<?xml version="1.0" encoding="utf-8" standalone="no"?>
<!DOCTYPE svg PUBLIC "-//W3C//DTD SVG 1.1//EN"
  "http://www.w3.org/Graphics/SVG/1.1/DTD/svg11.dtd">
<svg xmlns:xlink="http://www.w3.org/1999/xlink" width="720pt" height="432pt" viewBox="0 0 720 432" xmlns="http://www.w3.org/2000/svg" version="1.1">
 <metadata>
  <rdf:RDF xmlns:dc="http://purl.org/dc/elements/1.1/" xmlns:cc="http://creativecommons.org/ns#" xmlns:rdf="http://www.w3.org/1999/02/22-rdf-syntax-ns#">
   <cc:Work>
    <dc:type rdf:resource="http://purl.org/dc/dcmitype/StillImage"/>
    <dc:date>2022-12-21T12:54:39.803121</dc:date>
    <dc:format>image/svg+xml</dc:format>
    <dc:creator>
     <cc:Agent>
      <dc:title>Matplotlib v3.5.2, https://matplotlib.org/</dc:title>
     </cc:Agent>
    </dc:creator>
   </cc:Work>
  </rdf:RDF>
 </metadata>
 <defs>
  <style type="text/css">*{stroke-linejoin: round; stroke-linecap: butt}</style>
 </defs>
 <g id="figure_1">
  <g id="patch_1">
   <path d="M 0 432 
L 720 432 
L 720 0 
L 0 0 
z
" style="fill: #ffffff"/>
  </g>
  <g id="axes_1">
   <g id="patch_2">
    <path d="M 90 384.48 
L 648 384.48 
L 648 51.84 
L 90 51.84 
z
" style="fill: #ffffff"/>
   </g>
   <g id="PathCollection_1">
    <defs>
     <path id="m6a1e622c91" d="M 0 1.936492 
C 0.513564 1.936492 1.006162 1.732451 1.369306 1.369306 
C 1.732451 1.006162 1.936492 0.513564 1.936492 0 
C 1.936492 -0.513564 1.732451 -1.006162 1.369306 -1.369306 
C 1.006162 -1.732451 0.513564 -1.936492 0 -1.936492 
C -0.513564 -1.936492 -1.006162 -1.732451 -1.369306 -1.369306 
C -1.732451 -1.006162 -1.936492 -0.513564 -1.936492 0 
C -1.936492 0.513564 -1.732451 1.006162 -1.369306 1.369306 
C -1.006162 1.732451 -0.513564 1.936492 0 1.936492 
z
" style="stroke: #ff9900"/>
    </defs>
    <g clip-path="url(#pfba3b54caf)">
     <use xlink:href="#m6a1e622c91" x="115.363636" y="113.534469" style="fill: #ff9900; stroke: #ff9900"/>
     <use xlink:href="#m6a1e622c91" x="141.32497" y="157.868614" style="fill: #ff9900; stroke: #ff9900"/>
     <use xlink:href="#m6a1e622c91" x="194.641042" y="113.534469" style="fill: #ff9900; stroke: #ff9900"/>
     <use xlink:href="#m6a1e622c91" x="229.769514" y="166.735442" style="fill: #ff9900; stroke: #ff9900"/>
     <use xlink:href="#m6a1e622c91" x="238.569966" y="162.302028" style="fill: #ff9900; stroke: #ff9900"/>
     <use xlink:href="#m6a1e622c91" x="243.703563" y="180.035686" style="fill: #ff9900; stroke: #ff9900"/>
     <use xlink:href="#m6a1e622c91" x="246.490373" y="171.168857" style="fill: #ff9900; stroke: #ff9900"/>
     <use xlink:href="#m6a1e622c91" x="247.223744" y="184.4691" style="fill: #ff9900; stroke: #ff9900"/>
     <use xlink:href="#m6a1e622c91" x="296.286264" y="188.902514" style="fill: #ff9900; stroke: #ff9900"/>
     <use xlink:href="#m6a1e622c91" x="300.68649" y="157.868614" style="fill: #ff9900; stroke: #ff9900"/>
     <use xlink:href="#m6a1e622c91" x="310.073639" y="162.302028" style="fill: #ff9900; stroke: #ff9900"/>
     <use xlink:href="#m6a1e622c91" x="310.880347" y="162.302028" style="fill: #ff9900; stroke: #ff9900"/>
     <use xlink:href="#m6a1e622c91" x="319.094103" y="162.302028" style="fill: #ff9900; stroke: #ff9900"/>
     <use xlink:href="#m6a1e622c91" x="331.854758" y="157.868614" style="fill: #ff9900; stroke: #ff9900"/>
     <use xlink:href="#m6a1e622c91" x="334.274883" y="157.868614" style="fill: #ff9900; stroke: #ff9900"/>
     <use xlink:href="#m6a1e622c91" x="342.928661" y="175.602271" style="fill: #ff9900; stroke: #ff9900"/>
     <use xlink:href="#m6a1e622c91" x="351.142416" y="188.902514" style="fill: #ff9900; stroke: #ff9900"/>
     <use xlink:href="#m6a1e622c91" x="356.129339" y="202.202758" style="fill: #ff9900; stroke: #ff9900"/>
     <use xlink:href="#m6a1e622c91" x="409.005389" y="157.868614" style="fill: #ff9900; stroke: #ff9900"/>
     <use xlink:href="#m6a1e622c91" x="415.679065" y="157.868614" style="fill: #ff9900; stroke: #ff9900"/>
     <use xlink:href="#m6a1e622c91" x="436.28679" y="140.134956" style="fill: #ff9900; stroke: #ff9900"/>
     <use xlink:href="#m6a1e622c91" x="437.093498" y="157.868614" style="fill: #ff9900; stroke: #ff9900"/>
     <use xlink:href="#m6a1e622c91" x="445.013905" y="157.868614" style="fill: #ff9900; stroke: #ff9900"/>
     <use xlink:href="#m6a1e622c91" x="457.187864" y="162.302028" style="fill: #ff9900; stroke: #ff9900"/>
     <use xlink:href="#m6a1e622c91" x="515.417522" y="184.4691" style="fill: #ff9900; stroke: #ff9900"/>
     <use xlink:href="#m6a1e622c91" x="525.978065" y="175.602271" style="fill: #ff9900; stroke: #ff9900"/>
     <use xlink:href="#m6a1e622c91" x="537.858675" y="175.602271" style="fill: #ff9900; stroke: #ff9900"/>
     <use xlink:href="#m6a1e622c91" x="560.886525" y="180.035686" style="fill: #ff9900; stroke: #ff9900"/>
     <use xlink:href="#m6a1e622c91" x="622.636364" y="180.035686" style="fill: #ff9900; stroke: #ff9900"/>
    </g>
   </g>
   <g id="matplotlib.axis_1">
    <g id="xtick_1">
     <g id="line2d_1">
      <path d="M 147.265275 384.48 
L 147.265275 51.84 
" clip-path="url(#pfba3b54caf)" style="fill: none; stroke-dasharray: 2.96,1.28; stroke-dashoffset: 0; stroke: #b0b0b0; stroke-width: 0.8"/>
     </g>
     <g id="line2d_2">
      <defs>
       <path id="m8b19837d70" d="M 0 0 
L 0 3.5 
" style="stroke: #000000; stroke-width: 0.8"/>
      </defs>
      <g>
       <use xlink:href="#m8b19837d70" x="147.265275" y="384.48" style="stroke: #000000; stroke-width: 0.8"/>
      </g>
     </g>
     <g id="text_1">
      <!-- 2022-12-17 -->
      <g transform="translate(114.385275 400.6)scale(0.12 -0.12)">
       <defs>
        <path id="AlibabaPuHuiTi-Regular-32" d="M 365 608 
Q 1075 1165 1504 1555 
Q 1933 1946 2169 2240 
Q 2406 2534 2483 2768 
Q 2560 3002 2560 3238 
Q 2560 3475 2473 3628 
Q 2387 3782 2252 3872 
Q 2118 3962 1948 3994 
Q 1779 4026 1619 4026 
Q 1408 4026 1171 4003 
Q 934 3981 672 3910 
L 672 4403 
Q 896 4454 1149 4480 
Q 1402 4506 1683 4506 
Q 2010 4506 2272 4435 
Q 2534 4365 2723 4211 
Q 2912 4058 3011 3814 
Q 3110 3571 3110 3232 
Q 3110 2931 3020 2665 
Q 2931 2400 2720 2115 
Q 2509 1830 2150 1500 
Q 1792 1171 1254 742 
L 998 544 
L 998 486 
L 3290 486 
L 3290 0 
L 365 0 
L 365 608 
z
" transform="scale(0.015625)"/>
        <path id="AlibabaPuHuiTi-Regular-30" d="M 1837 -64 
Q 1504 -64 1229 35 
Q 954 134 755 390 
Q 557 646 448 1091 
Q 339 1536 339 2221 
Q 339 2906 448 3347 
Q 557 3789 755 4048 
Q 954 4307 1229 4406 
Q 1504 4506 1837 4506 
Q 2170 4506 2448 4406 
Q 2726 4307 2924 4048 
Q 3123 3789 3232 3347 
Q 3341 2906 3341 2221 
Q 3341 1536 3232 1091 
Q 3123 646 2924 390 
Q 2726 134 2448 35 
Q 2170 -64 1837 -64 
z
M 1837 416 
Q 2074 416 2246 496 
Q 2419 576 2534 781 
Q 2650 986 2704 1334 
Q 2758 1683 2758 2221 
Q 2758 2752 2704 3101 
Q 2650 3450 2534 3654 
Q 2419 3859 2246 3939 
Q 2074 4019 1837 4019 
Q 1606 4019 1433 3939 
Q 1261 3859 1149 3654 
Q 1037 3450 982 3101 
Q 928 2752 928 2221 
Q 928 1683 982 1334 
Q 1037 986 1149 781 
Q 1261 576 1433 496 
Q 1606 416 1837 416 
z
" transform="scale(0.015625)"/>
        <path id="AlibabaPuHuiTi-Regular-2d" d="M 461 2195 
L 2349 2195 
L 2349 1734 
L 461 1734 
L 461 2195 
z
" transform="scale(0.015625)"/>
        <path id="AlibabaPuHuiTi-Regular-31" d="M 1747 3917 
L 646 3706 
L 646 4173 
L 1946 4442 
L 2323 4442 
L 2323 0 
L 1747 0 
L 1747 3917 
z
" transform="scale(0.015625)"/>
        <path id="AlibabaPuHuiTi-Regular-37" d="M 2784 3942 
L 346 3942 
L 346 4442 
L 3277 4442 
L 3277 3878 
L 1453 0 
L 864 0 
L 2784 3942 
z
" transform="scale(0.015625)"/>
       </defs>
       <use xlink:href="#AlibabaPuHuiTi-Regular-32"/>
       <use xlink:href="#AlibabaPuHuiTi-Regular-30" x="57.499985"/>
       <use xlink:href="#AlibabaPuHuiTi-Regular-32" x="114.999969"/>
       <use xlink:href="#AlibabaPuHuiTi-Regular-32" x="172.499954"/>
       <use xlink:href="#AlibabaPuHuiTi-Regular-2d" x="229.999939"/>
       <use xlink:href="#AlibabaPuHuiTi-Regular-31" x="273.999924"/>
       <use xlink:href="#AlibabaPuHuiTi-Regular-32" x="331.499908"/>
       <use xlink:href="#AlibabaPuHuiTi-Regular-2d" x="388.999893"/>
       <use xlink:href="#AlibabaPuHuiTi-Regular-31" x="432.999878"/>
       <use xlink:href="#AlibabaPuHuiTi-Regular-37" x="490.499863"/>
      </g>
     </g>
    </g>
    <g id="xtick_2">
     <g id="line2d_3">
      <path d="M 252.870701 384.48 
L 252.870701 51.84 
" clip-path="url(#pfba3b54caf)" style="fill: none; stroke-dasharray: 2.96,1.28; stroke-dashoffset: 0; stroke: #b0b0b0; stroke-width: 0.8"/>
     </g>
     <g id="line2d_4">
      <g>
       <use xlink:href="#m8b19837d70" x="252.870701" y="384.48" style="stroke: #000000; stroke-width: 0.8"/>
      </g>
     </g>
     <g id="text_2">
      <!-- 2022-12-18 -->
      <g transform="translate(219.990701 400.6)scale(0.12 -0.12)">
       <defs>
        <path id="AlibabaPuHuiTi-Regular-38" d="M 1837 -64 
Q 1120 -64 720 237 
Q 320 538 320 1178 
Q 320 1434 390 1622 
Q 461 1811 573 1942 
Q 685 2074 825 2154 
Q 966 2234 1107 2285 
L 1107 2310 
Q 826 2438 646 2672 
Q 467 2906 467 3322 
Q 467 3584 547 3801 
Q 627 4019 793 4176 
Q 960 4333 1219 4419 
Q 1478 4506 1837 4506 
Q 2195 4506 2454 4419 
Q 2714 4333 2880 4176 
Q 3046 4019 3126 3801 
Q 3206 3584 3206 3322 
Q 3206 2918 3049 2678 
Q 2893 2438 2566 2310 
L 2566 2285 
Q 2726 2234 2870 2154 
Q 3014 2074 3123 1939 
Q 3232 1805 3293 1616 
Q 3354 1427 3354 1171 
Q 3354 531 2957 233 
Q 2560 -64 1837 -64 
z
M 1837 2496 
Q 2074 2496 2237 2557 
Q 2400 2618 2499 2726 
Q 2598 2835 2643 2976 
Q 2688 3117 2688 3283 
Q 2688 3648 2477 3846 
Q 2266 4045 1837 4045 
Q 986 4045 986 3283 
Q 986 3117 1024 2976 
Q 1062 2835 1161 2726 
Q 1261 2618 1424 2557 
Q 1587 2496 1837 2496 
z
M 1837 403 
Q 2362 403 2592 617 
Q 2822 832 2822 1197 
Q 2822 1651 2579 1862 
Q 2336 2074 1837 2074 
Q 1338 2074 1098 1862 
Q 858 1651 858 1197 
Q 858 832 1085 617 
Q 1312 403 1837 403 
z
" transform="scale(0.015625)"/>
       </defs>
       <use xlink:href="#AlibabaPuHuiTi-Regular-32"/>
       <use xlink:href="#AlibabaPuHuiTi-Regular-30" x="57.499985"/>
       <use xlink:href="#AlibabaPuHuiTi-Regular-32" x="114.999969"/>
       <use xlink:href="#AlibabaPuHuiTi-Regular-32" x="172.499954"/>
       <use xlink:href="#AlibabaPuHuiTi-Regular-2d" x="229.999939"/>
       <use xlink:href="#AlibabaPuHuiTi-Regular-31" x="273.999924"/>
       <use xlink:href="#AlibabaPuHuiTi-Regular-32" x="331.499908"/>
       <use xlink:href="#AlibabaPuHuiTi-Regular-2d" x="388.999893"/>
       <use xlink:href="#AlibabaPuHuiTi-Regular-31" x="432.999878"/>
       <use xlink:href="#AlibabaPuHuiTi-Regular-38" x="490.499863"/>
      </g>
     </g>
    </g>
    <g id="xtick_3">
     <g id="line2d_5">
      <path d="M 358.476126 384.48 
L 358.476126 51.84 
" clip-path="url(#pfba3b54caf)" style="fill: none; stroke-dasharray: 2.96,1.28; stroke-dashoffset: 0; stroke: #b0b0b0; stroke-width: 0.8"/>
     </g>
     <g id="line2d_6">
      <g>
       <use xlink:href="#m8b19837d70" x="358.476126" y="384.48" style="stroke: #000000; stroke-width: 0.8"/>
      </g>
     </g>
     <g id="text_3">
      <!-- 2022-12-19 -->
      <g transform="translate(325.596126 400.6)scale(0.12 -0.12)">
       <defs>
        <path id="AlibabaPuHuiTi-Regular-39" d="M 922 403 
Q 1344 403 1661 518 
Q 1978 634 2198 838 
Q 2419 1043 2544 1318 
Q 2669 1594 2701 1914 
L 2675 1914 
Q 2554 1779 2304 1664 
Q 2054 1549 1728 1549 
Q 1421 1549 1168 1632 
Q 915 1715 739 1884 
Q 563 2054 464 2320 
Q 365 2586 365 2950 
Q 365 3277 451 3561 
Q 538 3846 717 4054 
Q 896 4262 1171 4384 
Q 1446 4506 1818 4506 
Q 2125 4506 2390 4416 
Q 2656 4326 2854 4115 
Q 3053 3904 3168 3558 
Q 3283 3213 3283 2701 
Q 3283 2080 3148 1568 
Q 3014 1056 2726 691 
Q 2438 326 1990 124 
Q 1542 -77 915 -77 
L 922 403 
z
M 1747 1984 
Q 2266 1984 2506 2224 
Q 2746 2464 2746 2867 
Q 2746 3430 2509 3731 
Q 2272 4032 1818 4032 
Q 1363 4032 1132 3753 
Q 902 3475 902 2950 
Q 902 2451 1139 2217 
Q 1376 1984 1747 1984 
z
" transform="scale(0.015625)"/>
       </defs>
       <use xlink:href="#AlibabaPuHuiTi-Regular-32"/>
       <use xlink:href="#AlibabaPuHuiTi-Regular-30" x="57.499985"/>
       <use xlink:href="#AlibabaPuHuiTi-Regular-32" x="114.999969"/>
       <use xlink:href="#AlibabaPuHuiTi-Regular-32" x="172.499954"/>
       <use xlink:href="#AlibabaPuHuiTi-Regular-2d" x="229.999939"/>
       <use xlink:href="#AlibabaPuHuiTi-Regular-31" x="273.999924"/>
       <use xlink:href="#AlibabaPuHuiTi-Regular-32" x="331.499908"/>
       <use xlink:href="#AlibabaPuHuiTi-Regular-2d" x="388.999893"/>
       <use xlink:href="#AlibabaPuHuiTi-Regular-31" x="432.999878"/>
       <use xlink:href="#AlibabaPuHuiTi-Regular-39" x="490.499863"/>
      </g>
     </g>
    </g>
    <g id="xtick_4">
     <g id="line2d_7">
      <path d="M 464.081551 384.48 
L 464.081551 51.84 
" clip-path="url(#pfba3b54caf)" style="fill: none; stroke-dasharray: 2.96,1.28; stroke-dashoffset: 0; stroke: #b0b0b0; stroke-width: 0.8"/>
     </g>
     <g id="line2d_8">
      <g>
       <use xlink:href="#m8b19837d70" x="464.081551" y="384.48" style="stroke: #000000; stroke-width: 0.8"/>
      </g>
     </g>
     <g id="text_4">
      <!-- 2022-12-20 -->
      <g transform="translate(431.201551 400.6)scale(0.12 -0.12)">
       <use xlink:href="#AlibabaPuHuiTi-Regular-32"/>
       <use xlink:href="#AlibabaPuHuiTi-Regular-30" x="57.499985"/>
       <use xlink:href="#AlibabaPuHuiTi-Regular-32" x="114.999969"/>
       <use xlink:href="#AlibabaPuHuiTi-Regular-32" x="172.499954"/>
       <use xlink:href="#AlibabaPuHuiTi-Regular-2d" x="229.999939"/>
       <use xlink:href="#AlibabaPuHuiTi-Regular-31" x="273.999924"/>
       <use xlink:href="#AlibabaPuHuiTi-Regular-32" x="331.499908"/>
       <use xlink:href="#AlibabaPuHuiTi-Regular-2d" x="388.999893"/>
       <use xlink:href="#AlibabaPuHuiTi-Regular-32" x="432.999878"/>
       <use xlink:href="#AlibabaPuHuiTi-Regular-30" x="490.499863"/>
      </g>
     </g>
    </g>
    <g id="xtick_5">
     <g id="line2d_9">
      <path d="M 569.686977 384.48 
L 569.686977 51.84 
" clip-path="url(#pfba3b54caf)" style="fill: none; stroke-dasharray: 2.96,1.28; stroke-dashoffset: 0; stroke: #b0b0b0; stroke-width: 0.8"/>
     </g>
     <g id="line2d_10">
      <g>
       <use xlink:href="#m8b19837d70" x="569.686977" y="384.48" style="stroke: #000000; stroke-width: 0.8"/>
      </g>
     </g>
     <g id="text_5">
      <!-- 2022-12-21 -->
      <g transform="translate(536.806977 400.6)scale(0.12 -0.12)">
       <use xlink:href="#AlibabaPuHuiTi-Regular-32"/>
       <use xlink:href="#AlibabaPuHuiTi-Regular-30" x="57.499985"/>
       <use xlink:href="#AlibabaPuHuiTi-Regular-32" x="114.999969"/>
       <use xlink:href="#AlibabaPuHuiTi-Regular-32" x="172.499954"/>
       <use xlink:href="#AlibabaPuHuiTi-Regular-2d" x="229.999939"/>
       <use xlink:href="#AlibabaPuHuiTi-Regular-31" x="273.999924"/>
       <use xlink:href="#AlibabaPuHuiTi-Regular-32" x="331.499908"/>
       <use xlink:href="#AlibabaPuHuiTi-Regular-2d" x="388.999893"/>
       <use xlink:href="#AlibabaPuHuiTi-Regular-32" x="432.999878"/>
       <use xlink:href="#AlibabaPuHuiTi-Regular-31" x="490.499863"/>
      </g>
     </g>
    </g>
   </g>
   <g id="matplotlib.axis_2">
    <g id="ytick_1">
     <g id="line2d_11">
      <defs>
       <path id="m3ce90f7d2d" d="M 0 0 
L -3.5 0 
" style="stroke: #000000; stroke-width: 0.8"/>
      </defs>
      <g>
       <use xlink:href="#m3ce90f7d2d" x="90" y="366.239091" style="stroke: #000000; stroke-width: 0.8"/>
      </g>
     </g>
     <g id="text_6">
      <!-- 33℃ -->
      <g transform="translate(58.17125 370.799091)scale(0.12 -0.12)">
       <defs>
        <path id="AlibabaPuHuiTi-Regular-33" d="M 1446 -64 
Q 1178 -64 925 -45 
Q 672 -26 448 19 
L 448 525 
Q 704 461 944 438 
Q 1184 416 1440 416 
Q 1690 416 1904 454 
Q 2118 493 2272 589 
Q 2426 685 2515 841 
Q 2605 998 2605 1229 
Q 2605 1702 2285 1888 
Q 1965 2074 1331 2074 
L 979 2074 
L 979 2515 
L 1325 2515 
Q 1907 2515 2208 2729 
Q 2509 2944 2509 3309 
Q 2509 3699 2275 3865 
Q 2042 4032 1562 4032 
Q 1370 4032 1120 4000 
Q 870 3968 659 3904 
L 659 4378 
Q 826 4429 1078 4467 
Q 1331 4506 1587 4506 
Q 2304 4506 2672 4230 
Q 3040 3955 3040 3341 
Q 3040 2906 2829 2672 
Q 2618 2438 2253 2330 
L 2253 2291 
Q 2726 2208 2940 1936 
Q 3155 1664 3155 1222 
Q 3155 608 2742 272 
Q 2330 -64 1446 -64 
z
" transform="scale(0.015625)"/>
        <path id="AlibabaPuHuiTi-Regular-2103" d="M 4531 -64 
Q 4070 -64 3699 32 
Q 3328 128 3062 381 
Q 2797 634 2653 1078 
Q 2509 1523 2509 2221 
Q 2509 2861 2656 3299 
Q 2803 3738 3072 4006 
Q 3341 4275 3728 4390 
Q 4115 4506 4595 4506 
Q 4902 4506 5129 4474 
Q 5357 4442 5555 4378 
L 5555 3846 
Q 5363 3917 5132 3958 
Q 4902 4000 4608 4000 
Q 4230 4000 3948 3910 
Q 3667 3821 3481 3613 
Q 3296 3405 3203 3069 
Q 3110 2733 3110 2234 
Q 3110 1702 3196 1360 
Q 3283 1018 3459 816 
Q 3635 614 3907 534 
Q 4179 454 4550 454 
Q 4864 454 5107 496 
Q 5350 538 5606 627 
L 5606 128 
Q 5421 45 5145 -9 
Q 4870 -64 4531 -64 
z
M 1158 2432 
Q 947 2432 758 2515 
Q 570 2598 429 2739 
Q 288 2880 208 3069 
Q 128 3258 128 3469 
Q 128 3680 208 3869 
Q 288 4058 429 4195 
Q 570 4333 758 4416 
Q 947 4499 1158 4499 
Q 1370 4499 1558 4416 
Q 1747 4333 1888 4195 
Q 2029 4058 2112 3869 
Q 2195 3680 2195 3469 
Q 2195 3258 2112 3069 
Q 2029 2880 1888 2739 
Q 1747 2598 1558 2515 
Q 1370 2432 1158 2432 
z
M 1158 2918 
Q 1389 2918 1549 3078 
Q 1709 3238 1709 3469 
Q 1709 3693 1549 3853 
Q 1389 4013 1158 4013 
Q 1043 4013 944 3971 
Q 845 3930 771 3856 
Q 698 3782 653 3683 
Q 608 3584 608 3469 
Q 608 3354 653 3254 
Q 698 3155 771 3078 
Q 845 3002 944 2960 
Q 1043 2918 1158 2918 
z
" transform="scale(0.015625)"/>
       </defs>
       <use xlink:href="#AlibabaPuHuiTi-Regular-33"/>
       <use xlink:href="#AlibabaPuHuiTi-Regular-33" x="57.499985"/>
       <use xlink:href="#AlibabaPuHuiTi-Regular-2103" x="114.999969"/>
      </g>
     </g>
    </g>
    <g id="ytick_2">
     <g id="line2d_12">
      <g>
       <use xlink:href="#m3ce90f7d2d" x="90" y="321.904947" style="stroke: #000000; stroke-width: 0.8"/>
      </g>
     </g>
     <g id="text_7">
      <!-- 34℃ -->
      <g transform="translate(58.17125 326.464947)scale(0.12 -0.12)">
       <defs>
        <path id="AlibabaPuHuiTi-Regular-34" d="M 3386 1094 
L 2861 1094 
L 2861 0 
L 2323 0 
L 2323 1094 
L 224 1094 
L 224 1715 
L 2170 4442 
L 2861 4442 
L 2861 1581 
L 3386 1581 
L 3386 1094 
z
M 2323 1581 
L 2323 3853 
L 2285 3853 
L 710 1619 
L 710 1581 
L 2323 1581 
z
" transform="scale(0.015625)"/>
       </defs>
       <use xlink:href="#AlibabaPuHuiTi-Regular-33"/>
       <use xlink:href="#AlibabaPuHuiTi-Regular-34" x="57.499985"/>
       <use xlink:href="#AlibabaPuHuiTi-Regular-2103" x="114.999969"/>
      </g>
     </g>
    </g>
    <g id="ytick_3">
     <g id="line2d_13">
      <g>
       <use xlink:href="#m3ce90f7d2d" x="90" y="277.570803" style="stroke: #000000; stroke-width: 0.8"/>
      </g>
     </g>
     <g id="text_8">
      <!-- 35℃ -->
      <g transform="translate(58.17125 282.130803)scale(0.12 -0.12)">
       <defs>
        <path id="AlibabaPuHuiTi-Regular-35" d="M 1466 -64 
Q 1197 -64 982 -45 
Q 768 -26 550 19 
L 550 525 
Q 800 461 1001 438 
Q 1203 416 1459 416 
Q 1734 416 1961 464 
Q 2189 512 2349 624 
Q 2509 736 2598 918 
Q 2688 1101 2688 1376 
Q 2688 1875 2397 2102 
Q 2106 2330 1414 2330 
Q 1235 2330 1004 2301 
Q 774 2272 563 2234 
L 864 4442 
L 2938 4442 
L 2938 3942 
L 1299 3942 
L 1114 2726 
Q 1235 2746 1356 2755 
Q 1478 2765 1632 2765 
Q 2406 2765 2822 2445 
Q 3238 2125 3238 1414 
Q 3238 1018 3113 739 
Q 2989 461 2758 281 
Q 2528 102 2198 19 
Q 1869 -64 1466 -64 
z
" transform="scale(0.015625)"/>
       </defs>
       <use xlink:href="#AlibabaPuHuiTi-Regular-33"/>
       <use xlink:href="#AlibabaPuHuiTi-Regular-35" x="57.499985"/>
       <use xlink:href="#AlibabaPuHuiTi-Regular-2103" x="114.999969"/>
      </g>
     </g>
    </g>
    <g id="ytick_4">
     <g id="line2d_14">
      <g>
       <use xlink:href="#m3ce90f7d2d" x="90" y="233.236659" style="stroke: #000000; stroke-width: 0.8"/>
      </g>
     </g>
     <g id="text_9">
      <!-- 36℃ -->
      <g transform="translate(58.17125 237.796659)scale(0.12 -0.12)">
       <defs>
        <path id="AlibabaPuHuiTi-Regular-36" d="M 1837 -64 
Q 1530 -64 1264 22 
Q 998 109 796 313 
Q 595 518 480 860 
Q 365 1203 365 1722 
Q 365 2342 502 2854 
Q 640 3366 928 3734 
Q 1216 4102 1667 4304 
Q 2118 4506 2746 4506 
L 2739 4019 
Q 2330 4019 2010 3904 
Q 1690 3789 1466 3587 
Q 1242 3386 1114 3114 
Q 986 2842 960 2528 
L 979 2528 
Q 1107 2656 1356 2774 
Q 1606 2893 1933 2893 
Q 2554 2893 2918 2541 
Q 3283 2189 3283 1459 
Q 3283 1133 3196 854 
Q 3110 576 2934 371 
Q 2758 166 2483 51 
Q 2208 -64 1837 -64 
z
M 1830 416 
Q 2285 416 2521 675 
Q 2758 934 2758 1459 
Q 2758 1958 2521 2204 
Q 2285 2451 1907 2451 
Q 1389 2451 1152 2204 
Q 915 1958 915 1562 
Q 915 416 1830 416 
z
" transform="scale(0.015625)"/>
       </defs>
       <use xlink:href="#AlibabaPuHuiTi-Regular-33"/>
       <use xlink:href="#AlibabaPuHuiTi-Regular-36" x="57.499985"/>
       <use xlink:href="#AlibabaPuHuiTi-Regular-2103" x="114.999969"/>
      </g>
     </g>
    </g>
    <g id="ytick_5">
     <g id="line2d_15">
      <g>
       <use xlink:href="#m3ce90f7d2d" x="90" y="188.902514" style="stroke: #000000; stroke-width: 0.8"/>
      </g>
     </g>
     <g id="text_10">
      <!-- 37℃ -->
      <g transform="translate(58.17125 193.462514)scale(0.12 -0.12)">
       <use xlink:href="#AlibabaPuHuiTi-Regular-33"/>
       <use xlink:href="#AlibabaPuHuiTi-Regular-37" x="57.499985"/>
       <use xlink:href="#AlibabaPuHuiTi-Regular-2103" x="114.999969"/>
      </g>
     </g>
    </g>
    <g id="ytick_6">
     <g id="line2d_16">
      <g>
       <use xlink:href="#m3ce90f7d2d" x="90" y="144.56837" style="stroke: #000000; stroke-width: 0.8"/>
      </g>
     </g>
     <g id="text_11">
      <!-- 38℃ -->
      <g transform="translate(58.17125 149.12837)scale(0.12 -0.12)">
       <use xlink:href="#AlibabaPuHuiTi-Regular-33"/>
       <use xlink:href="#AlibabaPuHuiTi-Regular-38" x="57.499985"/>
       <use xlink:href="#AlibabaPuHuiTi-Regular-2103" x="114.999969"/>
      </g>
     </g>
    </g>
    <g id="ytick_7">
     <g id="line2d_17">
      <g>
       <use xlink:href="#m3ce90f7d2d" x="90" y="100.234226" style="stroke: #000000; stroke-width: 0.8"/>
      </g>
     </g>
     <g id="text_12">
      <!-- 39℃ -->
      <g transform="translate(58.17125 104.794226)scale(0.12 -0.12)">
       <use xlink:href="#AlibabaPuHuiTi-Regular-33"/>
       <use xlink:href="#AlibabaPuHuiTi-Regular-39" x="57.499985"/>
       <use xlink:href="#AlibabaPuHuiTi-Regular-2103" x="114.999969"/>
      </g>
     </g>
    </g>
   </g>
   <g id="line2d_18">
    <path d="M 115.363636 113.534469 
L 118.003772 121.185021 
L 120.497233 127.757333 
L 122.917358 133.529514 
L 125.264145 138.555909 
L 127.464258 142.757661 
L 129.591034 146.349758 
L 131.571136 149.279144 
L 133.4779 151.72183 
L 135.311328 153.720633 
L 137.071418 155.316722 
L 138.758172 156.549618 
L 140.371588 157.457196 
L 141.911667 158.075685 
L 143.451746 158.452102 
L 144.918488 158.585539 
L 146.38523 158.499409 
L 147.851972 158.193714 
L 149.392051 157.636425 
L 150.93213 156.837064 
L 152.545547 155.740001 
L 154.2323 154.309007 
L 155.99239 152.506208 
L 157.825818 150.292081 
L 159.732582 147.625458 
L 161.712684 144.463523 
L 163.766123 140.761814 
L 165.966236 136.318141 
L 168.313023 131.046005 
L 170.439799 126.441267 
L 172.419901 122.658121 
L 174.326666 119.474448 
L 176.160093 116.838245 
L 177.846846 114.780957 
L 179.460263 113.143132 
L 181.000342 111.880768 
L 182.467084 110.951864 
L 183.860489 110.316418 
L 185.253894 109.92165 
L 186.573961 109.76967 
L 187.894029 109.833701 
L 189.214097 110.113742 
L 190.607502 110.643686 
L 192.000907 111.414309 
L 193.467649 112.485504 
L 195.007728 113.897273 
L 196.621144 115.691618 
L 198.307898 117.912541 
L 200.067988 120.606044 
L 201.901415 123.82013 
L 203.881517 127.759366 
L 205.934956 132.357859 
L 208.061732 137.671611 
L 210.335182 143.971859 
L 215.395442 158.406778 
L 216.935521 161.741456 
L 218.328926 164.253466 
L 219.648994 166.190658 
L 220.895725 167.624804 
L 221.995781 168.57123 
L 223.022501 169.184743 
L 224.04922 169.537741 
L 225.002602 169.632259 
L 225.955985 169.50215 
L 226.909367 169.147413 
L 227.936086 168.51418 
L 228.962806 167.620432 
L 230.062862 166.373753 
L 231.236256 164.714333 
L 232.556324 162.440764 
L 233.949729 159.573688 
L 234.829774 157.868214 
L 235.343134 157.340968 
L 235.783156 157.176683 
L 236.223179 157.277911 
L 236.663201 157.644653 
L 237.176561 158.408099 
L 237.763258 159.723131 
L 238.423292 161.766759 
L 239.23 165.075819 
L 240.110045 169.703505 
L 241.063427 175.915331 
L 241.723461 179.922683 
L 242.163484 181.497779 
L 242.530169 182.133778 
L 242.750181 182.220143 
L 242.970192 182.085081 
L 243.26354 181.560558 
L 243.630226 180.351338 
L 244.070249 178.088378 
L 244.656945 173.693334 
L 245.610328 166.092197 
L 245.757002 166.001027 
L 245.903676 166.284768 
L 246.123687 167.413341 
L 246.417036 170.230298 
L 246.857058 177.267574 
L 248.910497 215.824045 
L 250.890599 248.91727 
L 252.724026 275.981975 
L 254.484117 298.728128 
L 256.097533 316.794079 
L 257.564275 330.906268 
L 258.95768 342.273861 
L 260.204411 350.760843 
L 261.377804 357.29571 
L 262.404524 361.858017 
L 263.357906 365.128609 
L 264.164614 367.169593 
L 264.897985 368.447182 
L 265.484682 369.073012 
L 265.998042 369.331689 
L 266.438064 369.338781 
L 266.878087 369.147754 
L 267.391447 368.674486 
L 267.978143 367.803408 
L 268.638177 366.402441 
L 269.371548 364.322993 
L 270.251594 361.101215 
L 271.204976 356.716662 
L 272.525044 349.387797 
L 276.338573 326.951868 
L 280.298776 302.30904 
L 284.332317 275.802257 
L 288.512532 246.832646 
L 292.766084 215.788702 
L 297.16631 182.011914 
L 299.586434 163.737918 
L 300.539816 158.538983 
L 301.346524 155.279191 
L 302.006558 153.388888 
L 302.593255 152.295535 
L 303.106615 151.791984 
L 303.4733 151.691238 
L 303.839986 151.80627 
L 304.280008 152.229135 
L 304.793368 153.115193 
L 305.380065 154.645697 
L 306.480121 157.659874 
L 307.433504 159.668107 
L 308.313549 161.024014 
L 309.04692 161.788848 
L 309.706954 162.193426 
L 310.293651 162.327361 
L 312.273752 162.265763 
L 314.767214 162.376434 
L 317.040664 162.473398 
L 319.020766 162.312415 
L 321.000867 161.921058 
L 322.980969 161.299328 
L 324.961071 160.447224 
L 328.407915 158.8763 
L 330.608028 158.166444 
L 332.808141 157.691829 
L 333.614849 157.651642 
L 334.274883 157.868614 
L 334.934917 158.322462 
L 335.668288 159.104556 
L 336.474996 160.30263 
L 337.355041 162.013187 
L 338.38176 164.54108 
L 340.948559 171.302351 
L 342.635312 175.016353 
L 344.175391 177.894106 
L 345.642133 180.179303 
L 347.035538 181.938606 
L 348.135595 183.339226 
L 349.308988 185.208013 
L 350.555719 187.617508 
L 351.949124 190.827325 
L 353.415866 194.795472 
L 355.689316 201.10486 
L 357.376069 205.092294 
L 358.989486 208.346359 
L 360.456228 210.829447 
L 361.849633 212.769227 
L 363.1697 214.230185 
L 364.416431 215.273411 
L 365.516488 215.922389 
L 366.616544 216.31682 
L 367.643264 216.455299 
L 368.669983 216.372039 
L 369.696702 216.067041 
L 370.796759 215.494195 
L 371.896815 214.666804 
L 373.070209 213.503686 
L 374.31694 211.950538 
L 375.637008 209.949665 
L 377.10375 207.296571 
L 378.643829 204.02379 
L 380.257245 200.060049 
L 382.017335 195.111481 
L 385.830865 183.986161 
L 388.030978 178.422072 
L 390.084417 173.812763 
L 392.064518 169.901941 
L 393.897946 166.748169 
L 395.658036 164.143328 
L 397.34479 162.035651 
L 398.958206 160.375524 
L 400.424948 159.168304 
L 401.89169 158.24869 
L 403.285095 157.641452 
L 404.605163 157.305606 
L 405.92523 157.20272 
L 407.245298 157.332796 
L 408.565366 157.695832 
L 409.885434 158.29183 
L 411.278839 159.173672 
L 413.185603 160.430907 
L 413.698963 160.364372 
L 414.212323 160.058802 
L 414.79902 159.416884 
L 415.459053 158.321538 
L 416.192424 156.641051 
L 416.999133 154.229076 
L 417.952515 150.617549 
L 418.979234 145.80622 
L 420.152628 139.136774 
L 421.399359 130.682133 
L 422.719426 120.193505 
L 424.186168 106.685732 
L 425.726248 90.402475 
L 426.899641 78.288382 
L 427.633012 72.886806 
L 428.293046 69.508354 
L 428.806406 67.851969 
L 429.246428 67.108652 
L 429.539777 66.96 
L 429.833125 67.088862 
L 430.126474 67.495239 
L 430.493159 68.393465 
L 431.006519 70.379455 
L 431.593216 73.689837 
L 432.25325 78.740883 
L 433.059958 86.822293 
L 433.940003 98.031939 
L 434.966722 114.266584 
L 436.066779 135.433306 
L 437.826869 170.735921 
L 438.486903 179.043895 
L 439.0736 183.825991 
L 439.513623 185.804969 
L 439.806971 186.358767 
L 440.026982 186.372217 
L 440.246994 186.041182 
L 440.540342 185.063938 
L 440.907027 182.981172 
L 443.327152 166.192593 
L 444.500545 160.103047 
L 445.527265 155.895763 
L 446.40731 153.122316 
L 447.214018 151.2553 
L 447.874052 150.208199 
L 448.460749 149.640457 
L 448.974109 149.42395 
L 449.414131 149.446571 
L 449.927491 149.715861 
L 450.440851 150.246733 
L 451.027547 151.173751 
L 455.207762 158.912929 
L 458.361258 164.226006 
L 461.368079 168.869586 
L 464.301563 173.00255 
L 467.16171 176.654333 
L 469.948519 179.853631 
L 472.661992 182.628408 
L 475.228791 184.944142 
L 477.722252 186.905995 
L 480.142376 188.538986 
L 482.562501 189.904865 
L 484.909288 190.97426 
L 487.256075 191.795112 
L 489.6762 192.406096 
L 492.096324 192.783813 
L 494.443111 192.92731 
L 496.789898 192.851463 
L 499.136686 192.55627 
L 501.483473 192.041733 
L 503.903597 191.281382 
L 506.323722 190.287763 
L 508.817183 189.020056 
L 511.310644 187.504728 
L 513.877443 185.686181 
L 516.517579 183.541922 
L 519.231051 181.048817 
L 523.191255 177.335186 
L 524.804671 176.232214 
L 526.34475 175.435156 
L 527.884829 174.88793 
L 529.351571 174.599031 
L 530.818313 174.536736 
L 532.358392 174.705389 
L 539.985451 175.980626 
L 547.612509 177.48223 
L 557.586355 179.482224 
L 564.186694 180.53299 
L 570.787033 181.359126 
L 577.387372 181.960633 
L 583.987711 182.33751 
L 590.588051 182.489759 
L 597.18839 182.417379 
L 603.788729 182.120369 
L 610.389068 181.59873 
L 616.989407 180.852462 
L 622.636364 180.035686 
L 622.636364 180.035686 
" clip-path="url(#pfba3b54caf)" style="fill: none; stroke: #92c6ff; stroke-width: 1.5; stroke-linecap: square"/>
   </g>
   <g id="line2d_19">
    <path d="M 115.363636 188.902514 
L 622.636364 188.902514 
" clip-path="url(#pfba3b54caf)" style="fill: none; stroke: #97f0aa; stroke-width: 1.5; stroke-linecap: square"/>
   </g>
   <g id="patch_3">
    <path d="M 90 384.48 
L 90 51.84 
" style="fill: none; stroke: #000000; stroke-width: 0.8; stroke-linejoin: miter; stroke-linecap: square"/>
   </g>
   <g id="patch_4">
    <path d="M 648 384.48 
L 648 51.84 
" style="fill: none; stroke: #000000; stroke-width: 0.8; stroke-linejoin: miter; stroke-linecap: square"/>
   </g>
   <g id="patch_5">
    <path d="M 90 384.48 
L 648 384.48 
" style="fill: none; stroke: #000000; stroke-width: 0.8; stroke-linejoin: miter; stroke-linecap: square"/>
   </g>
   <g id="patch_6">
    <path d="M 90 51.84 
L 648 51.84 
" style="fill: none; stroke: #000000; stroke-width: 0.8; stroke-linejoin: miter; stroke-linecap: square"/>
   </g>
  </g>
 </g>
 <defs>
  <clipPath id="pfba3b54caf">
   <rect x="90" y="51.84" width="558" height="332.64"/>
  </clipPath>
 </defs>
</svg>
