<?xml version="1.0" encoding="utf-8" standalone="no"?>
<!DOCTYPE svg PUBLIC "-//W3C//DTD SVG 1.1//EN"
  "http://www.w3.org/Graphics/SVG/1.1/DTD/svg11.dtd">
<svg xmlns:xlink="http://www.w3.org/1999/xlink" width="720pt" height="432pt" viewBox="0 0 720 432" xmlns="http://www.w3.org/2000/svg" version="1.1">
 <metadata>
  <rdf:RDF xmlns:dc="http://purl.org/dc/elements/1.1/" xmlns:cc="http://creativecommons.org/ns#" xmlns:rdf="http://www.w3.org/1999/02/22-rdf-syntax-ns#">
   <cc:Work>
    <dc:type rdf:resource="http://purl.org/dc/dcmitype/StillImage"/>
    <dc:date>2022-12-19T22:26:52.289266</dc:date>
    <dc:format>image/svg+xml</dc:format>
    <dc:creator>
     <cc:Agent>
      <dc:title>Matplotlib v3.5.2, https://matplotlib.org/</dc:title>
     </cc:Agent>
    </dc:creator>
   </cc:Work>
  </rdf:RDF>
 </metadata>
 <defs>
  <style type="text/css">*{stroke-linejoin: round; stroke-linecap: butt}</style>
 </defs>
 <g id="figure_1">
  <g id="patch_1">
   <path d="M 0 432 
L 720 432 
L 720 0 
L 0 0 
z
" style="fill: #ffffff"/>
  </g>
  <g id="axes_1">
   <g id="patch_2">
    <path d="M 90 384.48 
L 648 384.48 
L 648 51.84 
L 90 51.84 
z
" style="fill: #ffffff"/>
   </g>
   <g id="PathCollection_1">
    <defs>
     <path id="mf002d1babf" d="M 0 1.936492 
C 0.513564 1.936492 1.006162 1.732451 1.369306 1.369306 
C 1.732451 1.006162 1.936492 0.513564 1.936492 0 
C 1.936492 -0.513564 1.732451 -1.006162 1.369306 -1.369306 
C 1.006162 -1.732451 0.513564 -1.936492 0 -1.936492 
C -0.513564 -1.936492 -1.006162 -1.732451 -1.369306 -1.369306 
C -1.732451 -1.006162 -1.936492 -0.513564 -1.936492 0 
C -1.936492 0.513564 -1.732451 1.006162 -1.369306 1.369306 
C -1.006162 1.732451 -0.513564 1.936492 0 1.936492 
z
" style="stroke: #ff9900"/>
    </defs>
    <g clip-path="url(#pfb161a774e)">
     <use xlink:href="#mf002d1babf" x="115.363636" y="113.518697" style="fill: #ff9900; stroke: #ff9900"/>
     <use xlink:href="#mf002d1babf" x="153.890679" y="157.855575" style="fill: #ff9900; stroke: #ff9900"/>
     <use xlink:href="#mf002d1babf" x="233.0126" y="113.518697" style="fill: #ff9900; stroke: #ff9900"/>
     <use xlink:href="#mf002d1babf" x="285.143824" y="166.72295" style="fill: #ff9900; stroke: #ff9900"/>
     <use xlink:href="#mf002d1babf" x="298.203838" y="162.289262" style="fill: #ff9900; stroke: #ff9900"/>
     <use xlink:href="#mf002d1babf" x="305.82218" y="180.024013" style="fill: #ff9900; stroke: #ff9900"/>
     <use xlink:href="#mf002d1babf" x="309.957851" y="171.156638" style="fill: #ff9900; stroke: #ff9900"/>
     <use xlink:href="#mf002d1babf" x="311.046186" y="184.457701" style="fill: #ff9900; stroke: #ff9900"/>
     <use xlink:href="#mf002d1babf" x="383.855766" y="188.891389" style="fill: #ff9900; stroke: #ff9900"/>
     <use xlink:href="#mf002d1babf" x="390.385774" y="157.855575" style="fill: #ff9900; stroke: #ff9900"/>
     <use xlink:href="#mf002d1babf" x="404.316456" y="162.289262" style="fill: #ff9900; stroke: #ff9900"/>
     <use xlink:href="#mf002d1babf" x="405.513624" y="162.289262" style="fill: #ff9900; stroke: #ff9900"/>
     <use xlink:href="#mf002d1babf" x="417.70297" y="162.289262" style="fill: #ff9900; stroke: #ff9900"/>
     <use xlink:href="#mf002d1babf" x="436.639991" y="157.855575" style="fill: #ff9900; stroke: #ff9900"/>
     <use xlink:href="#mf002d1babf" x="440.231495" y="157.855575" style="fill: #ff9900; stroke: #ff9900"/>
     <use xlink:href="#mf002d1babf" x="453.073843" y="175.590326" style="fill: #ff9900; stroke: #ff9900"/>
     <use xlink:href="#mf002d1babf" x="465.26319" y="188.891389" style="fill: #ff9900; stroke: #ff9900"/>
     <use xlink:href="#mf002d1babf" x="472.663865" y="202.192452" style="fill: #ff9900; stroke: #ff9900"/>
     <use xlink:href="#mf002d1babf" x="551.132785" y="157.855575" style="fill: #ff9900; stroke: #ff9900"/>
     <use xlink:href="#mf002d1babf" x="561.036629" y="157.855575" style="fill: #ff9900; stroke: #ff9900"/>
     <use xlink:href="#mf002d1babf" x="591.618829" y="140.120824" style="fill: #ff9900; stroke: #ff9900"/>
     <use xlink:href="#mf002d1babf" x="592.815997" y="157.855575" style="fill: #ff9900; stroke: #ff9900"/>
     <use xlink:href="#mf002d1babf" x="604.57001" y="157.855575" style="fill: #ff9900; stroke: #ff9900"/>
     <use xlink:href="#mf002d1babf" x="622.636364" y="162.289262" style="fill: #ff9900; stroke: #ff9900"/>
    </g>
   </g>
   <g id="matplotlib.axis_1">
    <g id="xtick_1">
     <g id="line2d_1">
      <path d="M 162.706189 384.48 
L 162.706189 51.84 
" clip-path="url(#pfb161a774e)" style="fill: none; stroke-dasharray: 2.96,1.28; stroke-dashoffset: 0; stroke: #b0b0b0; stroke-width: 0.8"/>
     </g>
     <g id="line2d_2">
      <defs>
       <path id="m3863921425" d="M 0 0 
L 0 3.5 
" style="stroke: #000000; stroke-width: 0.8"/>
      </defs>
      <g>
       <use xlink:href="#m3863921425" x="162.706189" y="384.48" style="stroke: #000000; stroke-width: 0.8"/>
      </g>
     </g>
     <g id="text_1">
      <!-- 12-17 00 -->
      <g transform="translate(137.824001 400.6)scale(0.12 -0.12)">
       <defs>
        <path id="AlibabaPuHuiTi-Regular-31" d="M 1747 3917 
L 646 3706 
L 646 4173 
L 1946 4442 
L 2323 4442 
L 2323 0 
L 1747 0 
L 1747 3917 
z
" transform="scale(0.015625)"/>
        <path id="AlibabaPuHuiTi-Regular-32" d="M 365 608 
Q 1075 1165 1504 1555 
Q 1933 1946 2169 2240 
Q 2406 2534 2483 2768 
Q 2560 3002 2560 3238 
Q 2560 3475 2473 3628 
Q 2387 3782 2252 3872 
Q 2118 3962 1948 3994 
Q 1779 4026 1619 4026 
Q 1408 4026 1171 4003 
Q 934 3981 672 3910 
L 672 4403 
Q 896 4454 1149 4480 
Q 1402 4506 1683 4506 
Q 2010 4506 2272 4435 
Q 2534 4365 2723 4211 
Q 2912 4058 3011 3814 
Q 3110 3571 3110 3232 
Q 3110 2931 3020 2665 
Q 2931 2400 2720 2115 
Q 2509 1830 2150 1500 
Q 1792 1171 1254 742 
L 998 544 
L 998 486 
L 3290 486 
L 3290 0 
L 365 0 
L 365 608 
z
" transform="scale(0.015625)"/>
        <path id="AlibabaPuHuiTi-Regular-2d" d="M 461 2195 
L 2349 2195 
L 2349 1734 
L 461 1734 
L 461 2195 
z
" transform="scale(0.015625)"/>
        <path id="AlibabaPuHuiTi-Regular-37" d="M 2784 3942 
L 346 3942 
L 346 4442 
L 3277 4442 
L 3277 3878 
L 1453 0 
L 864 0 
L 2784 3942 
z
" transform="scale(0.015625)"/>
        <path id="AlibabaPuHuiTi-Regular-20" transform="scale(0.015625)"/>
        <path id="AlibabaPuHuiTi-Regular-30" d="M 1837 -64 
Q 1504 -64 1229 35 
Q 954 134 755 390 
Q 557 646 448 1091 
Q 339 1536 339 2221 
Q 339 2906 448 3347 
Q 557 3789 755 4048 
Q 954 4307 1229 4406 
Q 1504 4506 1837 4506 
Q 2170 4506 2448 4406 
Q 2726 4307 2924 4048 
Q 3123 3789 3232 3347 
Q 3341 2906 3341 2221 
Q 3341 1536 3232 1091 
Q 3123 646 2924 390 
Q 2726 134 2448 35 
Q 2170 -64 1837 -64 
z
M 1837 416 
Q 2074 416 2246 496 
Q 2419 576 2534 781 
Q 2650 986 2704 1334 
Q 2758 1683 2758 2221 
Q 2758 2752 2704 3101 
Q 2650 3450 2534 3654 
Q 2419 3859 2246 3939 
Q 2074 4019 1837 4019 
Q 1606 4019 1433 3939 
Q 1261 3859 1149 3654 
Q 1037 3450 982 3101 
Q 928 2752 928 2221 
Q 928 1683 982 1334 
Q 1037 986 1149 781 
Q 1261 576 1433 496 
Q 1606 416 1837 416 
z
" transform="scale(0.015625)"/>
       </defs>
       <use xlink:href="#AlibabaPuHuiTi-Regular-31"/>
       <use xlink:href="#AlibabaPuHuiTi-Regular-32" x="57.499985"/>
       <use xlink:href="#AlibabaPuHuiTi-Regular-2d" x="114.999969"/>
       <use xlink:href="#AlibabaPuHuiTi-Regular-31" x="158.999954"/>
       <use xlink:href="#AlibabaPuHuiTi-Regular-37" x="216.499939"/>
       <use xlink:href="#AlibabaPuHuiTi-Regular-20" x="273.999924"/>
       <use xlink:href="#AlibabaPuHuiTi-Regular-30" x="299.699921"/>
       <use xlink:href="#AlibabaPuHuiTi-Regular-30" x="357.199905"/>
      </g>
     </g>
    </g>
    <g id="xtick_2">
     <g id="line2d_3">
      <path d="M 241.066275 384.48 
L 241.066275 51.84 
" clip-path="url(#pfb161a774e)" style="fill: none; stroke-dasharray: 2.96,1.28; stroke-dashoffset: 0; stroke: #b0b0b0; stroke-width: 0.8"/>
     </g>
     <g id="line2d_4">
      <g>
       <use xlink:href="#m3863921425" x="241.066275" y="384.48" style="stroke: #000000; stroke-width: 0.8"/>
      </g>
     </g>
     <g id="text_2">
      <!-- 12-17 12 -->
      <g transform="translate(216.184088 400.6)scale(0.12 -0.12)">
       <use xlink:href="#AlibabaPuHuiTi-Regular-31"/>
       <use xlink:href="#AlibabaPuHuiTi-Regular-32" x="57.499985"/>
       <use xlink:href="#AlibabaPuHuiTi-Regular-2d" x="114.999969"/>
       <use xlink:href="#AlibabaPuHuiTi-Regular-31" x="158.999954"/>
       <use xlink:href="#AlibabaPuHuiTi-Regular-37" x="216.499939"/>
       <use xlink:href="#AlibabaPuHuiTi-Regular-20" x="273.999924"/>
       <use xlink:href="#AlibabaPuHuiTi-Regular-31" x="299.699921"/>
       <use xlink:href="#AlibabaPuHuiTi-Regular-32" x="357.199905"/>
      </g>
     </g>
    </g>
    <g id="xtick_3">
     <g id="line2d_5">
      <path d="M 319.426362 384.48 
L 319.426362 51.84 
" clip-path="url(#pfb161a774e)" style="fill: none; stroke-dasharray: 2.96,1.28; stroke-dashoffset: 0; stroke: #b0b0b0; stroke-width: 0.8"/>
     </g>
     <g id="line2d_6">
      <g>
       <use xlink:href="#m3863921425" x="319.426362" y="384.48" style="stroke: #000000; stroke-width: 0.8"/>
      </g>
     </g>
     <g id="text_3">
      <!-- 12-18 00 -->
      <g transform="translate(294.544174 400.6)scale(0.12 -0.12)">
       <defs>
        <path id="AlibabaPuHuiTi-Regular-38" d="M 1837 -64 
Q 1120 -64 720 237 
Q 320 538 320 1178 
Q 320 1434 390 1622 
Q 461 1811 573 1942 
Q 685 2074 825 2154 
Q 966 2234 1107 2285 
L 1107 2310 
Q 826 2438 646 2672 
Q 467 2906 467 3322 
Q 467 3584 547 3801 
Q 627 4019 793 4176 
Q 960 4333 1219 4419 
Q 1478 4506 1837 4506 
Q 2195 4506 2454 4419 
Q 2714 4333 2880 4176 
Q 3046 4019 3126 3801 
Q 3206 3584 3206 3322 
Q 3206 2918 3049 2678 
Q 2893 2438 2566 2310 
L 2566 2285 
Q 2726 2234 2870 2154 
Q 3014 2074 3123 1939 
Q 3232 1805 3293 1616 
Q 3354 1427 3354 1171 
Q 3354 531 2957 233 
Q 2560 -64 1837 -64 
z
M 1837 2496 
Q 2074 2496 2237 2557 
Q 2400 2618 2499 2726 
Q 2598 2835 2643 2976 
Q 2688 3117 2688 3283 
Q 2688 3648 2477 3846 
Q 2266 4045 1837 4045 
Q 986 4045 986 3283 
Q 986 3117 1024 2976 
Q 1062 2835 1161 2726 
Q 1261 2618 1424 2557 
Q 1587 2496 1837 2496 
z
M 1837 403 
Q 2362 403 2592 617 
Q 2822 832 2822 1197 
Q 2822 1651 2579 1862 
Q 2336 2074 1837 2074 
Q 1338 2074 1098 1862 
Q 858 1651 858 1197 
Q 858 832 1085 617 
Q 1312 403 1837 403 
z
" transform="scale(0.015625)"/>
       </defs>
       <use xlink:href="#AlibabaPuHuiTi-Regular-31"/>
       <use xlink:href="#AlibabaPuHuiTi-Regular-32" x="57.499985"/>
       <use xlink:href="#AlibabaPuHuiTi-Regular-2d" x="114.999969"/>
       <use xlink:href="#AlibabaPuHuiTi-Regular-31" x="158.999954"/>
       <use xlink:href="#AlibabaPuHuiTi-Regular-38" x="216.499939"/>
       <use xlink:href="#AlibabaPuHuiTi-Regular-20" x="273.999924"/>
       <use xlink:href="#AlibabaPuHuiTi-Regular-30" x="299.699921"/>
       <use xlink:href="#AlibabaPuHuiTi-Regular-30" x="357.199905"/>
      </g>
     </g>
    </g>
    <g id="xtick_4">
     <g id="line2d_7">
      <path d="M 397.786448 384.48 
L 397.786448 51.84 
" clip-path="url(#pfb161a774e)" style="fill: none; stroke-dasharray: 2.96,1.28; stroke-dashoffset: 0; stroke: #b0b0b0; stroke-width: 0.8"/>
     </g>
     <g id="line2d_8">
      <g>
       <use xlink:href="#m3863921425" x="397.786448" y="384.48" style="stroke: #000000; stroke-width: 0.8"/>
      </g>
     </g>
     <g id="text_4">
      <!-- 12-18 12 -->
      <g transform="translate(372.904261 400.6)scale(0.12 -0.12)">
       <use xlink:href="#AlibabaPuHuiTi-Regular-31"/>
       <use xlink:href="#AlibabaPuHuiTi-Regular-32" x="57.499985"/>
       <use xlink:href="#AlibabaPuHuiTi-Regular-2d" x="114.999969"/>
       <use xlink:href="#AlibabaPuHuiTi-Regular-31" x="158.999954"/>
       <use xlink:href="#AlibabaPuHuiTi-Regular-38" x="216.499939"/>
       <use xlink:href="#AlibabaPuHuiTi-Regular-20" x="273.999924"/>
       <use xlink:href="#AlibabaPuHuiTi-Regular-31" x="299.699921"/>
       <use xlink:href="#AlibabaPuHuiTi-Regular-32" x="357.199905"/>
      </g>
     </g>
    </g>
    <g id="xtick_5">
     <g id="line2d_9">
      <path d="M 476.146535 384.48 
L 476.146535 51.84 
" clip-path="url(#pfb161a774e)" style="fill: none; stroke-dasharray: 2.96,1.28; stroke-dashoffset: 0; stroke: #b0b0b0; stroke-width: 0.8"/>
     </g>
     <g id="line2d_10">
      <g>
       <use xlink:href="#m3863921425" x="476.146535" y="384.48" style="stroke: #000000; stroke-width: 0.8"/>
      </g>
     </g>
     <g id="text_5">
      <!-- 12-19 00 -->
      <g transform="translate(451.264348 400.6)scale(0.12 -0.12)">
       <defs>
        <path id="AlibabaPuHuiTi-Regular-39" d="M 922 403 
Q 1344 403 1661 518 
Q 1978 634 2198 838 
Q 2419 1043 2544 1318 
Q 2669 1594 2701 1914 
L 2675 1914 
Q 2554 1779 2304 1664 
Q 2054 1549 1728 1549 
Q 1421 1549 1168 1632 
Q 915 1715 739 1884 
Q 563 2054 464 2320 
Q 365 2586 365 2950 
Q 365 3277 451 3561 
Q 538 3846 717 4054 
Q 896 4262 1171 4384 
Q 1446 4506 1818 4506 
Q 2125 4506 2390 4416 
Q 2656 4326 2854 4115 
Q 3053 3904 3168 3558 
Q 3283 3213 3283 2701 
Q 3283 2080 3148 1568 
Q 3014 1056 2726 691 
Q 2438 326 1990 124 
Q 1542 -77 915 -77 
L 922 403 
z
M 1747 1984 
Q 2266 1984 2506 2224 
Q 2746 2464 2746 2867 
Q 2746 3430 2509 3731 
Q 2272 4032 1818 4032 
Q 1363 4032 1132 3753 
Q 902 3475 902 2950 
Q 902 2451 1139 2217 
Q 1376 1984 1747 1984 
z
" transform="scale(0.015625)"/>
       </defs>
       <use xlink:href="#AlibabaPuHuiTi-Regular-31"/>
       <use xlink:href="#AlibabaPuHuiTi-Regular-32" x="57.499985"/>
       <use xlink:href="#AlibabaPuHuiTi-Regular-2d" x="114.999969"/>
       <use xlink:href="#AlibabaPuHuiTi-Regular-31" x="158.999954"/>
       <use xlink:href="#AlibabaPuHuiTi-Regular-39" x="216.499939"/>
       <use xlink:href="#AlibabaPuHuiTi-Regular-20" x="273.999924"/>
       <use xlink:href="#AlibabaPuHuiTi-Regular-30" x="299.699921"/>
       <use xlink:href="#AlibabaPuHuiTi-Regular-30" x="357.199905"/>
      </g>
     </g>
    </g>
    <g id="xtick_6">
     <g id="line2d_11">
      <path d="M 554.506622 384.48 
L 554.506622 51.84 
" clip-path="url(#pfb161a774e)" style="fill: none; stroke-dasharray: 2.96,1.28; stroke-dashoffset: 0; stroke: #b0b0b0; stroke-width: 0.8"/>
     </g>
     <g id="line2d_12">
      <g>
       <use xlink:href="#m3863921425" x="554.506622" y="384.48" style="stroke: #000000; stroke-width: 0.8"/>
      </g>
     </g>
     <g id="text_6">
      <!-- 12-19 12 -->
      <g transform="translate(529.624434 400.6)scale(0.12 -0.12)">
       <use xlink:href="#AlibabaPuHuiTi-Regular-31"/>
       <use xlink:href="#AlibabaPuHuiTi-Regular-32" x="57.499985"/>
       <use xlink:href="#AlibabaPuHuiTi-Regular-2d" x="114.999969"/>
       <use xlink:href="#AlibabaPuHuiTi-Regular-31" x="158.999954"/>
       <use xlink:href="#AlibabaPuHuiTi-Regular-39" x="216.499939"/>
       <use xlink:href="#AlibabaPuHuiTi-Regular-20" x="273.999924"/>
       <use xlink:href="#AlibabaPuHuiTi-Regular-31" x="299.699921"/>
       <use xlink:href="#AlibabaPuHuiTi-Regular-32" x="357.199905"/>
      </g>
     </g>
    </g>
    <g id="xtick_7">
     <g id="line2d_13">
      <path d="M 632.866708 384.48 
L 632.866708 51.84 
" clip-path="url(#pfb161a774e)" style="fill: none; stroke-dasharray: 2.96,1.28; stroke-dashoffset: 0; stroke: #b0b0b0; stroke-width: 0.8"/>
     </g>
     <g id="line2d_14">
      <g>
       <use xlink:href="#m3863921425" x="632.866708" y="384.48" style="stroke: #000000; stroke-width: 0.8"/>
      </g>
     </g>
     <g id="text_7">
      <!-- 12-20 00 -->
      <g transform="translate(607.984521 400.6)scale(0.12 -0.12)">
       <use xlink:href="#AlibabaPuHuiTi-Regular-31"/>
       <use xlink:href="#AlibabaPuHuiTi-Regular-32" x="57.499985"/>
       <use xlink:href="#AlibabaPuHuiTi-Regular-2d" x="114.999969"/>
       <use xlink:href="#AlibabaPuHuiTi-Regular-32" x="158.999954"/>
       <use xlink:href="#AlibabaPuHuiTi-Regular-30" x="216.499939"/>
       <use xlink:href="#AlibabaPuHuiTi-Regular-20" x="273.999924"/>
       <use xlink:href="#AlibabaPuHuiTi-Regular-30" x="299.699921"/>
       <use xlink:href="#AlibabaPuHuiTi-Regular-30" x="357.199905"/>
      </g>
     </g>
    </g>
   </g>
   <g id="matplotlib.axis_2">
    <g id="ytick_1">
     <g id="line2d_15">
      <defs>
       <path id="mbe3cc1ce51" d="M 0 0 
L -3.5 0 
" style="stroke: #000000; stroke-width: 0.8"/>
      </defs>
      <g>
       <use xlink:href="#mbe3cc1ce51" x="90" y="366.238899" style="stroke: #000000; stroke-width: 0.8"/>
      </g>
     </g>
     <g id="text_8">
      <!-- 33℃ -->
      <g transform="translate(58.17125 370.798899)scale(0.12 -0.12)">
       <defs>
        <path id="AlibabaPuHuiTi-Regular-33" d="M 1446 -64 
Q 1178 -64 925 -45 
Q 672 -26 448 19 
L 448 525 
Q 704 461 944 438 
Q 1184 416 1440 416 
Q 1690 416 1904 454 
Q 2118 493 2272 589 
Q 2426 685 2515 841 
Q 2605 998 2605 1229 
Q 2605 1702 2285 1888 
Q 1965 2074 1331 2074 
L 979 2074 
L 979 2515 
L 1325 2515 
Q 1907 2515 2208 2729 
Q 2509 2944 2509 3309 
Q 2509 3699 2275 3865 
Q 2042 4032 1562 4032 
Q 1370 4032 1120 4000 
Q 870 3968 659 3904 
L 659 4378 
Q 826 4429 1078 4467 
Q 1331 4506 1587 4506 
Q 2304 4506 2672 4230 
Q 3040 3955 3040 3341 
Q 3040 2906 2829 2672 
Q 2618 2438 2253 2330 
L 2253 2291 
Q 2726 2208 2940 1936 
Q 3155 1664 3155 1222 
Q 3155 608 2742 272 
Q 2330 -64 1446 -64 
z
" transform="scale(0.015625)"/>
        <path id="AlibabaPuHuiTi-Regular-2103" d="M 4531 -64 
Q 4070 -64 3699 32 
Q 3328 128 3062 381 
Q 2797 634 2653 1078 
Q 2509 1523 2509 2221 
Q 2509 2861 2656 3299 
Q 2803 3738 3072 4006 
Q 3341 4275 3728 4390 
Q 4115 4506 4595 4506 
Q 4902 4506 5129 4474 
Q 5357 4442 5555 4378 
L 5555 3846 
Q 5363 3917 5132 3958 
Q 4902 4000 4608 4000 
Q 4230 4000 3948 3910 
Q 3667 3821 3481 3613 
Q 3296 3405 3203 3069 
Q 3110 2733 3110 2234 
Q 3110 1702 3196 1360 
Q 3283 1018 3459 816 
Q 3635 614 3907 534 
Q 4179 454 4550 454 
Q 4864 454 5107 496 
Q 5350 538 5606 627 
L 5606 128 
Q 5421 45 5145 -9 
Q 4870 -64 4531 -64 
z
M 1158 2432 
Q 947 2432 758 2515 
Q 570 2598 429 2739 
Q 288 2880 208 3069 
Q 128 3258 128 3469 
Q 128 3680 208 3869 
Q 288 4058 429 4195 
Q 570 4333 758 4416 
Q 947 4499 1158 4499 
Q 1370 4499 1558 4416 
Q 1747 4333 1888 4195 
Q 2029 4058 2112 3869 
Q 2195 3680 2195 3469 
Q 2195 3258 2112 3069 
Q 2029 2880 1888 2739 
Q 1747 2598 1558 2515 
Q 1370 2432 1158 2432 
z
M 1158 2918 
Q 1389 2918 1549 3078 
Q 1709 3238 1709 3469 
Q 1709 3693 1549 3853 
Q 1389 4013 1158 4013 
Q 1043 4013 944 3971 
Q 845 3930 771 3856 
Q 698 3782 653 3683 
Q 608 3584 608 3469 
Q 608 3354 653 3254 
Q 698 3155 771 3078 
Q 845 3002 944 2960 
Q 1043 2918 1158 2918 
z
" transform="scale(0.015625)"/>
       </defs>
       <use xlink:href="#AlibabaPuHuiTi-Regular-33"/>
       <use xlink:href="#AlibabaPuHuiTi-Regular-33" x="57.499985"/>
       <use xlink:href="#AlibabaPuHuiTi-Regular-2103" x="114.999969"/>
      </g>
     </g>
    </g>
    <g id="ytick_2">
     <g id="line2d_16">
      <g>
       <use xlink:href="#mbe3cc1ce51" x="90" y="321.902021" style="stroke: #000000; stroke-width: 0.8"/>
      </g>
     </g>
     <g id="text_9">
      <!-- 34℃ -->
      <g transform="translate(58.17125 326.462021)scale(0.12 -0.12)">
       <defs>
        <path id="AlibabaPuHuiTi-Regular-34" d="M 3386 1094 
L 2861 1094 
L 2861 0 
L 2323 0 
L 2323 1094 
L 224 1094 
L 224 1715 
L 2170 4442 
L 2861 4442 
L 2861 1581 
L 3386 1581 
L 3386 1094 
z
M 2323 1581 
L 2323 3853 
L 2285 3853 
L 710 1619 
L 710 1581 
L 2323 1581 
z
" transform="scale(0.015625)"/>
       </defs>
       <use xlink:href="#AlibabaPuHuiTi-Regular-33"/>
       <use xlink:href="#AlibabaPuHuiTi-Regular-34" x="57.499985"/>
       <use xlink:href="#AlibabaPuHuiTi-Regular-2103" x="114.999969"/>
      </g>
     </g>
    </g>
    <g id="ytick_3">
     <g id="line2d_17">
      <g>
       <use xlink:href="#mbe3cc1ce51" x="90" y="277.565144" style="stroke: #000000; stroke-width: 0.8"/>
      </g>
     </g>
     <g id="text_10">
      <!-- 35℃ -->
      <g transform="translate(58.17125 282.125144)scale(0.12 -0.12)">
       <defs>
        <path id="AlibabaPuHuiTi-Regular-35" d="M 1466 -64 
Q 1197 -64 982 -45 
Q 768 -26 550 19 
L 550 525 
Q 800 461 1001 438 
Q 1203 416 1459 416 
Q 1734 416 1961 464 
Q 2189 512 2349 624 
Q 2509 736 2598 918 
Q 2688 1101 2688 1376 
Q 2688 1875 2397 2102 
Q 2106 2330 1414 2330 
Q 1235 2330 1004 2301 
Q 774 2272 563 2234 
L 864 4442 
L 2938 4442 
L 2938 3942 
L 1299 3942 
L 1114 2726 
Q 1235 2746 1356 2755 
Q 1478 2765 1632 2765 
Q 2406 2765 2822 2445 
Q 3238 2125 3238 1414 
Q 3238 1018 3113 739 
Q 2989 461 2758 281 
Q 2528 102 2198 19 
Q 1869 -64 1466 -64 
z
" transform="scale(0.015625)"/>
       </defs>
       <use xlink:href="#AlibabaPuHuiTi-Regular-33"/>
       <use xlink:href="#AlibabaPuHuiTi-Regular-35" x="57.499985"/>
       <use xlink:href="#AlibabaPuHuiTi-Regular-2103" x="114.999969"/>
      </g>
     </g>
    </g>
    <g id="ytick_4">
     <g id="line2d_18">
      <g>
       <use xlink:href="#mbe3cc1ce51" x="90" y="233.228266" style="stroke: #000000; stroke-width: 0.8"/>
      </g>
     </g>
     <g id="text_11">
      <!-- 36℃ -->
      <g transform="translate(58.17125 237.788266)scale(0.12 -0.12)">
       <defs>
        <path id="AlibabaPuHuiTi-Regular-36" d="M 1837 -64 
Q 1530 -64 1264 22 
Q 998 109 796 313 
Q 595 518 480 860 
Q 365 1203 365 1722 
Q 365 2342 502 2854 
Q 640 3366 928 3734 
Q 1216 4102 1667 4304 
Q 2118 4506 2746 4506 
L 2739 4019 
Q 2330 4019 2010 3904 
Q 1690 3789 1466 3587 
Q 1242 3386 1114 3114 
Q 986 2842 960 2528 
L 979 2528 
Q 1107 2656 1356 2774 
Q 1606 2893 1933 2893 
Q 2554 2893 2918 2541 
Q 3283 2189 3283 1459 
Q 3283 1133 3196 854 
Q 3110 576 2934 371 
Q 2758 166 2483 51 
Q 2208 -64 1837 -64 
z
M 1830 416 
Q 2285 416 2521 675 
Q 2758 934 2758 1459 
Q 2758 1958 2521 2204 
Q 2285 2451 1907 2451 
Q 1389 2451 1152 2204 
Q 915 1958 915 1562 
Q 915 416 1830 416 
z
" transform="scale(0.015625)"/>
       </defs>
       <use xlink:href="#AlibabaPuHuiTi-Regular-33"/>
       <use xlink:href="#AlibabaPuHuiTi-Regular-36" x="57.499985"/>
       <use xlink:href="#AlibabaPuHuiTi-Regular-2103" x="114.999969"/>
      </g>
     </g>
    </g>
    <g id="ytick_5">
     <g id="line2d_19">
      <g>
       <use xlink:href="#mbe3cc1ce51" x="90" y="188.891389" style="stroke: #000000; stroke-width: 0.8"/>
      </g>
     </g>
     <g id="text_12">
      <!-- 37℃ -->
      <g transform="translate(58.17125 193.451389)scale(0.12 -0.12)">
       <use xlink:href="#AlibabaPuHuiTi-Regular-33"/>
       <use xlink:href="#AlibabaPuHuiTi-Regular-37" x="57.499985"/>
       <use xlink:href="#AlibabaPuHuiTi-Regular-2103" x="114.999969"/>
      </g>
     </g>
    </g>
    <g id="ytick_6">
     <g id="line2d_20">
      <g>
       <use xlink:href="#mbe3cc1ce51" x="90" y="144.554511" style="stroke: #000000; stroke-width: 0.8"/>
      </g>
     </g>
     <g id="text_13">
      <!-- 38℃ -->
      <g transform="translate(58.17125 149.114511)scale(0.12 -0.12)">
       <use xlink:href="#AlibabaPuHuiTi-Regular-33"/>
       <use xlink:href="#AlibabaPuHuiTi-Regular-38" x="57.499985"/>
       <use xlink:href="#AlibabaPuHuiTi-Regular-2103" x="114.999969"/>
      </g>
     </g>
    </g>
    <g id="ytick_7">
     <g id="line2d_21">
      <g>
       <use xlink:href="#mbe3cc1ce51" x="90" y="100.217634" style="stroke: #000000; stroke-width: 0.8"/>
      </g>
     </g>
     <g id="text_14">
      <!-- 39℃ -->
      <g transform="translate(58.17125 104.777634)scale(0.12 -0.12)">
       <use xlink:href="#AlibabaPuHuiTi-Regular-33"/>
       <use xlink:href="#AlibabaPuHuiTi-Regular-39" x="57.499985"/>
       <use xlink:href="#AlibabaPuHuiTi-Regular-2103" x="114.999969"/>
      </g>
     </g>
    </g>
   </g>
   <g id="line2d_22">
    <path d="M 115.363636 113.518697 
L 118.62864 119.943956 
L 121.78481 125.685412 
L 124.94098 130.965202 
L 127.988317 135.624869 
L 130.92682 139.710523 
L 133.75649 143.26663 
L 136.477326 146.336009 
L 139.089329 148.95983 
L 141.701332 151.267456 
L 144.204502 153.182223 
L 146.598838 154.74201 
L 148.993174 156.036104 
L 151.278676 157.023526 
L 153.564179 157.76886 
L 155.740848 158.253634 
L 157.917517 158.518827 
L 160.094186 158.56444 
L 162.270855 158.390473 
L 164.447524 157.996926 
L 166.624193 157.3838 
L 168.909696 156.503694 
L 171.195198 155.381501 
L 173.480701 154.017222 
L 175.875037 152.328323 
L 178.378206 150.278575 
L 180.881375 147.938433 
L 183.493378 145.186937 
L 186.214215 141.984564 
L 188.935051 138.439098 
L 191.764721 134.387859 
L 198.077061 125.111158 
L 200.580231 121.995625 
L 203.0834 119.232798 
L 205.477736 116.920131 
L 207.763238 115.013618 
L 210.048741 113.401138 
L 212.22541 112.138806 
L 214.293246 111.186618 
L 216.361081 110.475124 
L 218.428917 110.004323 
L 220.387919 109.780326 
L 222.346921 109.772353 
L 224.305923 109.980403 
L 226.264926 110.404478 
L 228.332761 111.086472 
L 230.400597 112.009159 
L 232.468432 113.17254 
L 234.645102 114.65718 
L 236.821771 116.408516 
L 239.107273 118.534452 
L 241.501609 121.07699 
L 243.895945 123.942231 
L 246.399115 127.282749 
L 249.011117 131.144548 
L 251.731954 135.575634 
L 254.561624 140.626013 
L 257.500127 146.34769 
L 262.288799 155.844854 
L 264.247801 159.074182 
L 266.09797 161.728656 
L 267.948138 163.99898 
L 269.689474 165.784837 
L 271.321975 167.150031 
L 272.845644 168.154377 
L 274.369312 168.898192 
L 275.784147 169.355597 
L 277.198982 169.588362 
L 278.613817 169.596485 
L 280.028652 169.379967 
L 281.443487 168.938809 
L 282.858321 168.273009 
L 284.38199 167.304769 
L 285.905658 166.075999 
L 287.53816 164.47035 
L 289.279495 162.428007 
L 291.02083 160.04538 
L 292.544499 157.960004 
L 293.1975 157.441669 
L 293.8505 157.188863 
L 294.503501 157.201588 
L 295.156502 157.479842 
L 295.809502 158.023627 
L 296.571337 158.993643 
L 297.333171 160.325075 
L 298.203838 162.289262 
L 299.18334 165.063224 
L 300.271674 168.846109 
L 301.468842 173.859191 
L 302.883677 179.911004 
L 303.427844 181.285176 
L 303.863178 181.941633 
L 304.298512 182.20442 
L 304.625012 182.143163 
L 304.951513 181.860467 
L 305.386846 181.139075 
L 305.931014 179.683737 
L 306.584014 177.125384 
L 307.345849 173.021136 
L 308.434183 166.545777 
L 308.760683 165.98721 
L 308.97835 166.083502 
L 309.196017 166.554728 
L 309.522518 167.964572 
L 309.957851 171.156638 
L 310.502019 177.255731 
L 313.005188 209.245532 
L 315.399524 237.120151 
L 317.685027 261.242832 
L 319.861696 281.960305 
L 321.929531 299.602792 
L 323.888533 314.484002 
L 325.738702 326.901134 
L 327.480037 337.134875 
L 329.112539 345.449403 
L 330.636208 352.092382 
L 332.051042 357.294966 
L 333.357044 361.271801 
L 334.554212 364.221017 
L 335.642546 366.324236 
L 336.622048 367.746569 
L 337.492715 368.636615 
L 338.254549 369.126462 
L 339.016384 369.346628 
L 339.669384 369.320699 
L 340.322385 369.096638 
L 341.084219 368.584815 
L 341.846053 367.803312 
L 342.716721 366.579946 
L 343.696222 364.782627 
L 344.784557 362.262757 
L 345.981725 358.855224 
L 347.287726 354.378409 
L 350.988063 340.048832 
L 355.776735 320.691473 
L 360.674241 299.953753 
L 365.68058 277.772275 
L 370.795752 254.08223 
L 376.019758 228.817402 
L 381.352597 201.910164 
L 386.79427 173.291483 
L 388.426771 165.132229 
L 389.623939 160.353066 
L 390.712274 156.914696 
L 391.691775 154.558168 
L 392.562443 153.050428 
L 393.324277 152.184317 
L 393.977278 151.77857 
L 394.521445 151.677818 
L 395.065612 151.792857 
L 395.609779 152.123687 
L 396.26278 152.805527 
L 397.024614 153.993747 
L 399.527784 158.485651 
L 400.724952 160.038985 
L 401.813286 161.102594 
L 402.792787 161.776051 
L 403.772288 162.180654 
L 404.642956 162.314597 
L 407.581459 162.252995 
L 411.281797 162.363673 
L 414.655634 162.460643 
L 417.594137 162.29965 
L 420.53264 161.908269 
L 423.471144 161.2865 
L 426.409647 160.434344 
L 431.415986 158.891038 
L 434.680989 158.173297 
L 437.837159 157.703103 
L 439.251994 157.63859 
L 440.231495 157.855575 
L 441.210996 158.309451 
L 442.190498 159.000219 
L 443.278832 160.045575 
L 444.476 161.533256 
L 445.673168 163.374813 
L 447.196836 166.179969 
L 449.482339 170.224545 
L 451.659008 173.620975 
L 453.726844 176.435924 
L 455.685846 178.732725 
L 457.536015 180.571375 
L 459.386183 182.094165 
L 460.909852 183.43323 
L 462.43352 185.068519 
L 464.066022 187.149334 
L 465.807357 189.743686 
L 467.657526 192.924119 
L 470.487195 198.374171 
L 472.663865 202.192452 
L 474.7317 205.400645 
L 476.799536 208.200412 
L 478.758538 210.476075 
L 480.608707 212.288728 
L 482.350042 213.696072 
L 484.091377 214.813784 
L 485.723879 215.598594 
L 487.356381 216.128845 
L 488.880049 216.394077 
L 490.403718 216.43756 
L 491.927386 216.259293 
L 493.451054 215.859276 
L 494.974723 215.237511 
L 496.607224 214.325259 
L 498.239726 213.158449 
L 499.981061 211.633269 
L 501.83123 209.695416 
L 503.681399 207.430596 
L 505.640401 204.676167 
L 507.708237 201.371037 
L 509.884906 197.450717 
L 512.170408 192.853106 
L 515.108911 187.000696 
L 517.938581 181.860446 
L 520.659418 177.376271 
L 523.27142 173.494246 
L 525.77459 170.162601 
L 528.168926 167.331724 
L 530.454428 164.95416 
L 532.739931 162.893682 
L 534.9166 161.22612 
L 536.984436 159.908332 
L 539.052271 158.850109 
L 541.011273 158.087015 
L 542.970276 157.556883 
L 544.929278 157.259713 
L 546.88828 157.195505 
L 548.847282 157.364258 
L 550.806284 157.765973 
L 552.765286 158.40065 
L 554.724289 159.268289 
L 557.118625 160.392558 
L 557.880459 160.394328 
L 558.642293 160.157097 
L 559.404127 159.680866 
L 560.274795 158.843949 
L 561.145462 157.694868 
L 562.124963 156.029019 
L 563.213298 153.714708 
L 564.410466 150.605608 
L 565.716467 146.54076 
L 567.131302 141.344572 
L 568.654971 134.826818 
L 570.287472 126.782643 
L 572.028808 116.992555 
L 573.878976 105.222433 
L 575.837979 91.22352 
L 577.47048 79.5754 
L 578.449981 74.32445 
L 579.320649 70.836175 
L 580.082483 68.694373 
L 580.735484 67.53487 
L 581.279651 67.045513 
L 581.714985 66.966179 
L 582.150319 67.164312 
L 582.585653 67.639912 
L 583.12982 68.6246 
L 583.782821 70.378502 
L 584.544655 73.213769 
L 585.415323 77.494575 
L 586.394824 83.637123 
L 587.483158 92.109637 
L 588.680326 103.43237 
L 589.986328 118.177596 
L 591.401162 136.969618 
L 593.686665 168.475326 
L 594.557333 176.664054 
L 595.319167 181.834993 
L 595.972168 184.785821 
L 596.516335 186.200264 
L 596.842835 186.593113 
L 597.169335 186.6441 
L 597.495836 186.353223 
L 597.822336 185.720485 
L 598.25767 184.345046 
L 598.801837 181.792269 
L 600.543173 173.273037 
L 602.175674 166.301921 
L 603.699343 160.68234 
L 605.114178 156.23082 
L 606.420179 152.776992 
L 607.617347 150.16359 
L 608.814515 148.078771 
L 609.90285 146.642167 
L 610.882351 145.722726 
L 611.753018 145.202499 
L 612.514852 144.976643 
L 613.276687 144.964842 
L 614.038521 145.167094 
L 614.800355 145.5834 
L 615.671023 146.321285 
L 616.650524 147.485592 
L 617.630025 149.003743 
L 618.718359 151.105579 
L 619.915527 153.922154 
L 621.221529 157.597628 
L 622.636364 162.289262 
L 622.636364 162.289262 
" clip-path="url(#pfb161a774e)" style="fill: none; stroke: #92c6ff; stroke-width: 1.5; stroke-linecap: square"/>
   </g>
   <g id="line2d_23">
    <path d="M 115.363636 188.891389 
L 622.636364 188.891389 
" clip-path="url(#pfb161a774e)" style="fill: none; stroke: #97f0aa; stroke-width: 1.5; stroke-linecap: square"/>
   </g>
   <g id="patch_3">
    <path d="M 90 384.48 
L 90 51.84 
" style="fill: none; stroke: #000000; stroke-width: 0.8; stroke-linejoin: miter; stroke-linecap: square"/>
   </g>
   <g id="patch_4">
    <path d="M 648 384.48 
L 648 51.84 
" style="fill: none; stroke: #000000; stroke-width: 0.8; stroke-linejoin: miter; stroke-linecap: square"/>
   </g>
   <g id="patch_5">
    <path d="M 90 384.48 
L 648 384.48 
" style="fill: none; stroke: #000000; stroke-width: 0.8; stroke-linejoin: miter; stroke-linecap: square"/>
   </g>
   <g id="patch_6">
    <path d="M 90 51.84 
L 648 51.84 
" style="fill: none; stroke: #000000; stroke-width: 0.8; stroke-linejoin: miter; stroke-linecap: square"/>
   </g>
  </g>
 </g>
 <defs>
  <clipPath id="pfb161a774e">
   <rect x="90" y="51.84" width="558" height="332.64"/>
  </clipPath>
 </defs>
</svg>
