<?xml version="1.0" encoding="utf-8" standalone="no"?>
<!DOCTYPE svg PUBLIC "-//W3C//DTD SVG 1.1//EN"
  "http://www.w3.org/Graphics/SVG/1.1/DTD/svg11.dtd">
<svg xmlns:xlink="http://www.w3.org/1999/xlink" width="720pt" height="432pt" viewBox="0 0 720 432" xmlns="http://www.w3.org/2000/svg" version="1.1">
 <metadata>
  <rdf:RDF xmlns:dc="http://purl.org/dc/elements/1.1/" xmlns:cc="http://creativecommons.org/ns#" xmlns:rdf="http://www.w3.org/1999/02/22-rdf-syntax-ns#">
   <cc:Work>
    <dc:type rdf:resource="http://purl.org/dc/dcmitype/StillImage"/>
    <dc:date>2022-12-19T17:57:01.928062</dc:date>
    <dc:format>image/svg+xml</dc:format>
    <dc:creator>
     <cc:Agent>
      <dc:title>Matplotlib v3.5.2, https://matplotlib.org/</dc:title>
     </cc:Agent>
    </dc:creator>
   </cc:Work>
  </rdf:RDF>
 </metadata>
 <defs>
  <style type="text/css">*{stroke-linejoin: round; stroke-linecap: butt}</style>
 </defs>
 <g id="figure_1">
  <g id="patch_1">
   <path d="M 0 432 
L 720 432 
L 720 0 
L 0 0 
z
" style="fill: #ffffff"/>
  </g>
  <g id="axes_1">
   <g id="patch_2">
    <path d="M 90 384.48 
L 648 384.48 
L 648 51.84 
L 90 51.84 
z
" style="fill: #ffffff"/>
   </g>
   <g id="PathCollection_1">
    <defs>
     <path id="mc95be0d335" d="M 0 1.936492 
C 0.513564 1.936492 1.006162 1.732451 1.369306 1.369306 
C 1.732451 1.006162 1.936492 0.513564 1.936492 0 
C 1.936492 -0.513564 1.732451 -1.006162 1.369306 -1.369306 
C 1.006162 -1.732451 0.513564 -1.936492 0 -1.936492 
C -0.513564 -1.936492 -1.006162 -1.732451 -1.369306 -1.369306 
C -1.732451 -1.006162 -1.936492 -0.513564 -1.936492 0 
C -1.936492 0.513564 -1.732451 1.006162 -1.369306 1.369306 
C -1.006162 1.732451 -0.513564 1.936492 0 1.936492 
z
" style="stroke: #ff9900"/>
    </defs>
    <g clip-path="url(#pa026145009)">
     <use xlink:href="#mc95be0d335" x="115.363636" y="110.553093" style="fill: #ff9900; stroke: #ff9900"/>
     <use xlink:href="#mc95be0d335" x="156.296972" y="155.403905" style="fill: #ff9900; stroke: #ff9900"/>
     <use xlink:href="#mc95be0d335" x="240.360632" y="110.553093" style="fill: #ff9900; stroke: #ff9900"/>
     <use xlink:href="#mc95be0d335" x="295.747829" y="164.374067" style="fill: #ff9900; stroke: #ff9900"/>
     <use xlink:href="#mc95be0d335" x="309.623536" y="159.888986" style="fill: #ff9900; stroke: #ff9900"/>
     <use xlink:href="#mc95be0d335" x="317.717699" y="177.82931" style="fill: #ff9900; stroke: #ff9900"/>
     <use xlink:href="#mc95be0d335" x="322.111673" y="168.859148" style="fill: #ff9900; stroke: #ff9900"/>
     <use xlink:href="#mc95be0d335" x="323.267982" y="182.314392" style="fill: #ff9900; stroke: #ff9900"/>
     <use xlink:href="#mc95be0d335" x="400.625049" y="186.799473" style="fill: #ff9900; stroke: #ff9900"/>
     <use xlink:href="#mc95be0d335" x="407.562903" y="155.403905" style="fill: #ff9900; stroke: #ff9900"/>
     <use xlink:href="#mc95be0d335" x="422.363657" y="159.888986" style="fill: #ff9900; stroke: #ff9900"/>
     <use xlink:href="#mc95be0d335" x="423.635597" y="159.888986" style="fill: #ff9900; stroke: #ff9900"/>
     <use xlink:href="#mc95be0d335" x="436.586257" y="159.888986" style="fill: #ff9900; stroke: #ff9900"/>
     <use xlink:href="#mc95be0d335" x="456.706032" y="155.403905" style="fill: #ff9900; stroke: #ff9900"/>
     <use xlink:href="#mc95be0d335" x="460.521852" y="155.403905" style="fill: #ff9900; stroke: #ff9900"/>
     <use xlink:href="#mc95be0d335" x="474.166297" y="173.344229" style="fill: #ff9900; stroke: #ff9900"/>
     <use xlink:href="#mc95be0d335" x="487.116957" y="186.799473" style="fill: #ff9900; stroke: #ff9900"/>
     <use xlink:href="#mc95be0d335" x="494.979858" y="200.254716" style="fill: #ff9900; stroke: #ff9900"/>
     <use xlink:href="#mc95be0d335" x="578.349732" y="155.403905" style="fill: #ff9900; stroke: #ff9900"/>
     <use xlink:href="#mc95be0d335" x="588.872143" y="155.403905" style="fill: #ff9900; stroke: #ff9900"/>
     <use xlink:href="#mc95be0d335" x="621.364424" y="137.46358" style="fill: #ff9900; stroke: #ff9900"/>
     <use xlink:href="#mc95be0d335" x="622.636364" y="155.403905" style="fill: #ff9900; stroke: #ff9900"/>
    </g>
   </g>
   <g id="matplotlib.axis_1">
    <g id="xtick_1">
     <g id="line2d_1">
      <path d="M 165.663075 384.48 
L 165.663075 51.84 
" clip-path="url(#pa026145009)" style="fill: none; stroke-dasharray: 2.96,1.28; stroke-dashoffset: 0; stroke: #b0b0b0; stroke-width: 0.8"/>
     </g>
     <g id="line2d_2">
      <defs>
       <path id="me8e41063fb" d="M 0 0 
L 0 3.5 
" style="stroke: #000000; stroke-width: 0.8"/>
      </defs>
      <g>
       <use xlink:href="#me8e41063fb" x="165.663075" y="384.48" style="stroke: #000000; stroke-width: 0.8"/>
      </g>
     </g>
     <g id="text_1">
      <!-- 12-17 00 -->
      <g transform="translate(140.780887 400.6)scale(0.12 -0.12)">
       <defs>
        <path id="AlibabaPuHuiTi-Regular-31" d="M 1747 3917 
L 646 3706 
L 646 4173 
L 1946 4442 
L 2323 4442 
L 2323 0 
L 1747 0 
L 1747 3917 
z
" transform="scale(0.015625)"/>
        <path id="AlibabaPuHuiTi-Regular-32" d="M 365 608 
Q 1075 1165 1504 1555 
Q 1933 1946 2169 2240 
Q 2406 2534 2483 2768 
Q 2560 3002 2560 3238 
Q 2560 3475 2473 3628 
Q 2387 3782 2252 3872 
Q 2118 3962 1948 3994 
Q 1779 4026 1619 4026 
Q 1408 4026 1171 4003 
Q 934 3981 672 3910 
L 672 4403 
Q 896 4454 1149 4480 
Q 1402 4506 1683 4506 
Q 2010 4506 2272 4435 
Q 2534 4365 2723 4211 
Q 2912 4058 3011 3814 
Q 3110 3571 3110 3232 
Q 3110 2931 3020 2665 
Q 2931 2400 2720 2115 
Q 2509 1830 2150 1500 
Q 1792 1171 1254 742 
L 998 544 
L 998 486 
L 3290 486 
L 3290 0 
L 365 0 
L 365 608 
z
" transform="scale(0.015625)"/>
        <path id="AlibabaPuHuiTi-Regular-2d" d="M 461 2195 
L 2349 2195 
L 2349 1734 
L 461 1734 
L 461 2195 
z
" transform="scale(0.015625)"/>
        <path id="AlibabaPuHuiTi-Regular-37" d="M 2784 3942 
L 346 3942 
L 346 4442 
L 3277 4442 
L 3277 3878 
L 1453 0 
L 864 0 
L 2784 3942 
z
" transform="scale(0.015625)"/>
        <path id="AlibabaPuHuiTi-Regular-20" transform="scale(0.015625)"/>
        <path id="AlibabaPuHuiTi-Regular-30" d="M 1837 -64 
Q 1504 -64 1229 35 
Q 954 134 755 390 
Q 557 646 448 1091 
Q 339 1536 339 2221 
Q 339 2906 448 3347 
Q 557 3789 755 4048 
Q 954 4307 1229 4406 
Q 1504 4506 1837 4506 
Q 2170 4506 2448 4406 
Q 2726 4307 2924 4048 
Q 3123 3789 3232 3347 
Q 3341 2906 3341 2221 
Q 3341 1536 3232 1091 
Q 3123 646 2924 390 
Q 2726 134 2448 35 
Q 2170 -64 1837 -64 
z
M 1837 416 
Q 2074 416 2246 496 
Q 2419 576 2534 781 
Q 2650 986 2704 1334 
Q 2758 1683 2758 2221 
Q 2758 2752 2704 3101 
Q 2650 3450 2534 3654 
Q 2419 3859 2246 3939 
Q 2074 4019 1837 4019 
Q 1606 4019 1433 3939 
Q 1261 3859 1149 3654 
Q 1037 3450 982 3101 
Q 928 2752 928 2221 
Q 928 1683 982 1334 
Q 1037 986 1149 781 
Q 1261 576 1433 496 
Q 1606 416 1837 416 
z
" transform="scale(0.015625)"/>
       </defs>
       <use xlink:href="#AlibabaPuHuiTi-Regular-31"/>
       <use xlink:href="#AlibabaPuHuiTi-Regular-32" x="57.499985"/>
       <use xlink:href="#AlibabaPuHuiTi-Regular-2d" x="114.999969"/>
       <use xlink:href="#AlibabaPuHuiTi-Regular-31" x="158.999954"/>
       <use xlink:href="#AlibabaPuHuiTi-Regular-37" x="216.499939"/>
       <use xlink:href="#AlibabaPuHuiTi-Regular-20" x="273.999924"/>
       <use xlink:href="#AlibabaPuHuiTi-Regular-30" x="299.699921"/>
       <use xlink:href="#AlibabaPuHuiTi-Regular-30" x="357.199905"/>
      </g>
     </g>
    </g>
    <g id="xtick_2">
     <g id="line2d_3">
      <path d="M 248.917318 384.48 
L 248.917318 51.84 
" clip-path="url(#pa026145009)" style="fill: none; stroke-dasharray: 2.96,1.28; stroke-dashoffset: 0; stroke: #b0b0b0; stroke-width: 0.8"/>
     </g>
     <g id="line2d_4">
      <g>
       <use xlink:href="#me8e41063fb" x="248.917318" y="384.48" style="stroke: #000000; stroke-width: 0.8"/>
      </g>
     </g>
     <g id="text_2">
      <!-- 12-17 12 -->
      <g transform="translate(224.03513 400.6)scale(0.12 -0.12)">
       <use xlink:href="#AlibabaPuHuiTi-Regular-31"/>
       <use xlink:href="#AlibabaPuHuiTi-Regular-32" x="57.499985"/>
       <use xlink:href="#AlibabaPuHuiTi-Regular-2d" x="114.999969"/>
       <use xlink:href="#AlibabaPuHuiTi-Regular-31" x="158.999954"/>
       <use xlink:href="#AlibabaPuHuiTi-Regular-37" x="216.499939"/>
       <use xlink:href="#AlibabaPuHuiTi-Regular-20" x="273.999924"/>
       <use xlink:href="#AlibabaPuHuiTi-Regular-31" x="299.699921"/>
       <use xlink:href="#AlibabaPuHuiTi-Regular-32" x="357.199905"/>
      </g>
     </g>
    </g>
    <g id="xtick_3">
     <g id="line2d_5">
      <path d="M 332.171561 384.48 
L 332.171561 51.84 
" clip-path="url(#pa026145009)" style="fill: none; stroke-dasharray: 2.96,1.28; stroke-dashoffset: 0; stroke: #b0b0b0; stroke-width: 0.8"/>
     </g>
     <g id="line2d_6">
      <g>
       <use xlink:href="#me8e41063fb" x="332.171561" y="384.48" style="stroke: #000000; stroke-width: 0.8"/>
      </g>
     </g>
     <g id="text_3">
      <!-- 12-18 00 -->
      <g transform="translate(307.289373 400.6)scale(0.12 -0.12)">
       <defs>
        <path id="AlibabaPuHuiTi-Regular-38" d="M 1837 -64 
Q 1120 -64 720 237 
Q 320 538 320 1178 
Q 320 1434 390 1622 
Q 461 1811 573 1942 
Q 685 2074 825 2154 
Q 966 2234 1107 2285 
L 1107 2310 
Q 826 2438 646 2672 
Q 467 2906 467 3322 
Q 467 3584 547 3801 
Q 627 4019 793 4176 
Q 960 4333 1219 4419 
Q 1478 4506 1837 4506 
Q 2195 4506 2454 4419 
Q 2714 4333 2880 4176 
Q 3046 4019 3126 3801 
Q 3206 3584 3206 3322 
Q 3206 2918 3049 2678 
Q 2893 2438 2566 2310 
L 2566 2285 
Q 2726 2234 2870 2154 
Q 3014 2074 3123 1939 
Q 3232 1805 3293 1616 
Q 3354 1427 3354 1171 
Q 3354 531 2957 233 
Q 2560 -64 1837 -64 
z
M 1837 2496 
Q 2074 2496 2237 2557 
Q 2400 2618 2499 2726 
Q 2598 2835 2643 2976 
Q 2688 3117 2688 3283 
Q 2688 3648 2477 3846 
Q 2266 4045 1837 4045 
Q 986 4045 986 3283 
Q 986 3117 1024 2976 
Q 1062 2835 1161 2726 
Q 1261 2618 1424 2557 
Q 1587 2496 1837 2496 
z
M 1837 403 
Q 2362 403 2592 617 
Q 2822 832 2822 1197 
Q 2822 1651 2579 1862 
Q 2336 2074 1837 2074 
Q 1338 2074 1098 1862 
Q 858 1651 858 1197 
Q 858 832 1085 617 
Q 1312 403 1837 403 
z
" transform="scale(0.015625)"/>
       </defs>
       <use xlink:href="#AlibabaPuHuiTi-Regular-31"/>
       <use xlink:href="#AlibabaPuHuiTi-Regular-32" x="57.499985"/>
       <use xlink:href="#AlibabaPuHuiTi-Regular-2d" x="114.999969"/>
       <use xlink:href="#AlibabaPuHuiTi-Regular-31" x="158.999954"/>
       <use xlink:href="#AlibabaPuHuiTi-Regular-38" x="216.499939"/>
       <use xlink:href="#AlibabaPuHuiTi-Regular-20" x="273.999924"/>
       <use xlink:href="#AlibabaPuHuiTi-Regular-30" x="299.699921"/>
       <use xlink:href="#AlibabaPuHuiTi-Regular-30" x="357.199905"/>
      </g>
     </g>
    </g>
    <g id="xtick_4">
     <g id="line2d_7">
      <path d="M 415.425804 384.48 
L 415.425804 51.84 
" clip-path="url(#pa026145009)" style="fill: none; stroke-dasharray: 2.96,1.28; stroke-dashoffset: 0; stroke: #b0b0b0; stroke-width: 0.8"/>
     </g>
     <g id="line2d_8">
      <g>
       <use xlink:href="#me8e41063fb" x="415.425804" y="384.48" style="stroke: #000000; stroke-width: 0.8"/>
      </g>
     </g>
     <g id="text_4">
      <!-- 12-18 12 -->
      <g transform="translate(390.543616 400.6)scale(0.12 -0.12)">
       <use xlink:href="#AlibabaPuHuiTi-Regular-31"/>
       <use xlink:href="#AlibabaPuHuiTi-Regular-32" x="57.499985"/>
       <use xlink:href="#AlibabaPuHuiTi-Regular-2d" x="114.999969"/>
       <use xlink:href="#AlibabaPuHuiTi-Regular-31" x="158.999954"/>
       <use xlink:href="#AlibabaPuHuiTi-Regular-38" x="216.499939"/>
       <use xlink:href="#AlibabaPuHuiTi-Regular-20" x="273.999924"/>
       <use xlink:href="#AlibabaPuHuiTi-Regular-31" x="299.699921"/>
       <use xlink:href="#AlibabaPuHuiTi-Regular-32" x="357.199905"/>
      </g>
     </g>
    </g>
    <g id="xtick_5">
     <g id="line2d_9">
      <path d="M 498.680046 384.48 
L 498.680046 51.84 
" clip-path="url(#pa026145009)" style="fill: none; stroke-dasharray: 2.96,1.28; stroke-dashoffset: 0; stroke: #b0b0b0; stroke-width: 0.8"/>
     </g>
     <g id="line2d_10">
      <g>
       <use xlink:href="#me8e41063fb" x="498.680046" y="384.48" style="stroke: #000000; stroke-width: 0.8"/>
      </g>
     </g>
     <g id="text_5">
      <!-- 12-19 00 -->
      <g transform="translate(473.797859 400.6)scale(0.12 -0.12)">
       <defs>
        <path id="AlibabaPuHuiTi-Regular-39" d="M 922 403 
Q 1344 403 1661 518 
Q 1978 634 2198 838 
Q 2419 1043 2544 1318 
Q 2669 1594 2701 1914 
L 2675 1914 
Q 2554 1779 2304 1664 
Q 2054 1549 1728 1549 
Q 1421 1549 1168 1632 
Q 915 1715 739 1884 
Q 563 2054 464 2320 
Q 365 2586 365 2950 
Q 365 3277 451 3561 
Q 538 3846 717 4054 
Q 896 4262 1171 4384 
Q 1446 4506 1818 4506 
Q 2125 4506 2390 4416 
Q 2656 4326 2854 4115 
Q 3053 3904 3168 3558 
Q 3283 3213 3283 2701 
Q 3283 2080 3148 1568 
Q 3014 1056 2726 691 
Q 2438 326 1990 124 
Q 1542 -77 915 -77 
L 922 403 
z
M 1747 1984 
Q 2266 1984 2506 2224 
Q 2746 2464 2746 2867 
Q 2746 3430 2509 3731 
Q 2272 4032 1818 4032 
Q 1363 4032 1132 3753 
Q 902 3475 902 2950 
Q 902 2451 1139 2217 
Q 1376 1984 1747 1984 
z
" transform="scale(0.015625)"/>
       </defs>
       <use xlink:href="#AlibabaPuHuiTi-Regular-31"/>
       <use xlink:href="#AlibabaPuHuiTi-Regular-32" x="57.499985"/>
       <use xlink:href="#AlibabaPuHuiTi-Regular-2d" x="114.999969"/>
       <use xlink:href="#AlibabaPuHuiTi-Regular-31" x="158.999954"/>
       <use xlink:href="#AlibabaPuHuiTi-Regular-39" x="216.499939"/>
       <use xlink:href="#AlibabaPuHuiTi-Regular-20" x="273.999924"/>
       <use xlink:href="#AlibabaPuHuiTi-Regular-30" x="299.699921"/>
       <use xlink:href="#AlibabaPuHuiTi-Regular-30" x="357.199905"/>
      </g>
     </g>
    </g>
    <g id="xtick_6">
     <g id="line2d_11">
      <path d="M 581.934289 384.48 
L 581.934289 51.84 
" clip-path="url(#pa026145009)" style="fill: none; stroke-dasharray: 2.96,1.28; stroke-dashoffset: 0; stroke: #b0b0b0; stroke-width: 0.8"/>
     </g>
     <g id="line2d_12">
      <g>
       <use xlink:href="#me8e41063fb" x="581.934289" y="384.48" style="stroke: #000000; stroke-width: 0.8"/>
      </g>
     </g>
     <g id="text_6">
      <!-- 12-19 12 -->
      <g transform="translate(557.052102 400.6)scale(0.12 -0.12)">
       <use xlink:href="#AlibabaPuHuiTi-Regular-31"/>
       <use xlink:href="#AlibabaPuHuiTi-Regular-32" x="57.499985"/>
       <use xlink:href="#AlibabaPuHuiTi-Regular-2d" x="114.999969"/>
       <use xlink:href="#AlibabaPuHuiTi-Regular-31" x="158.999954"/>
       <use xlink:href="#AlibabaPuHuiTi-Regular-39" x="216.499939"/>
       <use xlink:href="#AlibabaPuHuiTi-Regular-20" x="273.999924"/>
       <use xlink:href="#AlibabaPuHuiTi-Regular-31" x="299.699921"/>
       <use xlink:href="#AlibabaPuHuiTi-Regular-32" x="357.199905"/>
      </g>
     </g>
    </g>
   </g>
   <g id="matplotlib.axis_2">
    <g id="ytick_1">
     <g id="line2d_13">
      <defs>
       <path id="mfe4ef34084" d="M 0 0 
L -3.5 0 
" style="stroke: #000000; stroke-width: 0.8"/>
      </defs>
      <g>
       <use xlink:href="#mfe4ef34084" x="90" y="366.20272" style="stroke: #000000; stroke-width: 0.8"/>
      </g>
     </g>
     <g id="text_7">
      <!-- 33℃ -->
      <g transform="translate(58.17125 370.76272)scale(0.12 -0.12)">
       <defs>
        <path id="AlibabaPuHuiTi-Regular-33" d="M 1446 -64 
Q 1178 -64 925 -45 
Q 672 -26 448 19 
L 448 525 
Q 704 461 944 438 
Q 1184 416 1440 416 
Q 1690 416 1904 454 
Q 2118 493 2272 589 
Q 2426 685 2515 841 
Q 2605 998 2605 1229 
Q 2605 1702 2285 1888 
Q 1965 2074 1331 2074 
L 979 2074 
L 979 2515 
L 1325 2515 
Q 1907 2515 2208 2729 
Q 2509 2944 2509 3309 
Q 2509 3699 2275 3865 
Q 2042 4032 1562 4032 
Q 1370 4032 1120 4000 
Q 870 3968 659 3904 
L 659 4378 
Q 826 4429 1078 4467 
Q 1331 4506 1587 4506 
Q 2304 4506 2672 4230 
Q 3040 3955 3040 3341 
Q 3040 2906 2829 2672 
Q 2618 2438 2253 2330 
L 2253 2291 
Q 2726 2208 2940 1936 
Q 3155 1664 3155 1222 
Q 3155 608 2742 272 
Q 2330 -64 1446 -64 
z
" transform="scale(0.015625)"/>
        <path id="AlibabaPuHuiTi-Regular-2103" d="M 4531 -64 
Q 4070 -64 3699 32 
Q 3328 128 3062 381 
Q 2797 634 2653 1078 
Q 2509 1523 2509 2221 
Q 2509 2861 2656 3299 
Q 2803 3738 3072 4006 
Q 3341 4275 3728 4390 
Q 4115 4506 4595 4506 
Q 4902 4506 5129 4474 
Q 5357 4442 5555 4378 
L 5555 3846 
Q 5363 3917 5132 3958 
Q 4902 4000 4608 4000 
Q 4230 4000 3948 3910 
Q 3667 3821 3481 3613 
Q 3296 3405 3203 3069 
Q 3110 2733 3110 2234 
Q 3110 1702 3196 1360 
Q 3283 1018 3459 816 
Q 3635 614 3907 534 
Q 4179 454 4550 454 
Q 4864 454 5107 496 
Q 5350 538 5606 627 
L 5606 128 
Q 5421 45 5145 -9 
Q 4870 -64 4531 -64 
z
M 1158 2432 
Q 947 2432 758 2515 
Q 570 2598 429 2739 
Q 288 2880 208 3069 
Q 128 3258 128 3469 
Q 128 3680 208 3869 
Q 288 4058 429 4195 
Q 570 4333 758 4416 
Q 947 4499 1158 4499 
Q 1370 4499 1558 4416 
Q 1747 4333 1888 4195 
Q 2029 4058 2112 3869 
Q 2195 3680 2195 3469 
Q 2195 3258 2112 3069 
Q 2029 2880 1888 2739 
Q 1747 2598 1558 2515 
Q 1370 2432 1158 2432 
z
M 1158 2918 
Q 1389 2918 1549 3078 
Q 1709 3238 1709 3469 
Q 1709 3693 1549 3853 
Q 1389 4013 1158 4013 
Q 1043 4013 944 3971 
Q 845 3930 771 3856 
Q 698 3782 653 3683 
Q 608 3584 608 3469 
Q 608 3354 653 3254 
Q 698 3155 771 3078 
Q 845 3002 944 2960 
Q 1043 2918 1158 2918 
z
" transform="scale(0.015625)"/>
       </defs>
       <use xlink:href="#AlibabaPuHuiTi-Regular-33"/>
       <use xlink:href="#AlibabaPuHuiTi-Regular-33" x="57.499985"/>
       <use xlink:href="#AlibabaPuHuiTi-Regular-2103" x="114.999969"/>
      </g>
     </g>
    </g>
    <g id="ytick_2">
     <g id="line2d_14">
      <g>
       <use xlink:href="#mfe4ef34084" x="90" y="321.351908" style="stroke: #000000; stroke-width: 0.8"/>
      </g>
     </g>
     <g id="text_8">
      <!-- 34℃ -->
      <g transform="translate(58.17125 325.911908)scale(0.12 -0.12)">
       <defs>
        <path id="AlibabaPuHuiTi-Regular-34" d="M 3386 1094 
L 2861 1094 
L 2861 0 
L 2323 0 
L 2323 1094 
L 224 1094 
L 224 1715 
L 2170 4442 
L 2861 4442 
L 2861 1581 
L 3386 1581 
L 3386 1094 
z
M 2323 1581 
L 2323 3853 
L 2285 3853 
L 710 1619 
L 710 1581 
L 2323 1581 
z
" transform="scale(0.015625)"/>
       </defs>
       <use xlink:href="#AlibabaPuHuiTi-Regular-33"/>
       <use xlink:href="#AlibabaPuHuiTi-Regular-34" x="57.499985"/>
       <use xlink:href="#AlibabaPuHuiTi-Regular-2103" x="114.999969"/>
      </g>
     </g>
    </g>
    <g id="ytick_3">
     <g id="line2d_15">
      <g>
       <use xlink:href="#mfe4ef34084" x="90" y="276.501096" style="stroke: #000000; stroke-width: 0.8"/>
      </g>
     </g>
     <g id="text_9">
      <!-- 35℃ -->
      <g transform="translate(58.17125 281.061096)scale(0.12 -0.12)">
       <defs>
        <path id="AlibabaPuHuiTi-Regular-35" d="M 1466 -64 
Q 1197 -64 982 -45 
Q 768 -26 550 19 
L 550 525 
Q 800 461 1001 438 
Q 1203 416 1459 416 
Q 1734 416 1961 464 
Q 2189 512 2349 624 
Q 2509 736 2598 918 
Q 2688 1101 2688 1376 
Q 2688 1875 2397 2102 
Q 2106 2330 1414 2330 
Q 1235 2330 1004 2301 
Q 774 2272 563 2234 
L 864 4442 
L 2938 4442 
L 2938 3942 
L 1299 3942 
L 1114 2726 
Q 1235 2746 1356 2755 
Q 1478 2765 1632 2765 
Q 2406 2765 2822 2445 
Q 3238 2125 3238 1414 
Q 3238 1018 3113 739 
Q 2989 461 2758 281 
Q 2528 102 2198 19 
Q 1869 -64 1466 -64 
z
" transform="scale(0.015625)"/>
       </defs>
       <use xlink:href="#AlibabaPuHuiTi-Regular-33"/>
       <use xlink:href="#AlibabaPuHuiTi-Regular-35" x="57.499985"/>
       <use xlink:href="#AlibabaPuHuiTi-Regular-2103" x="114.999969"/>
      </g>
     </g>
    </g>
    <g id="ytick_4">
     <g id="line2d_16">
      <g>
       <use xlink:href="#mfe4ef34084" x="90" y="231.650285" style="stroke: #000000; stroke-width: 0.8"/>
      </g>
     </g>
     <g id="text_10">
      <!-- 36℃ -->
      <g transform="translate(58.17125 236.210285)scale(0.12 -0.12)">
       <defs>
        <path id="AlibabaPuHuiTi-Regular-36" d="M 1837 -64 
Q 1530 -64 1264 22 
Q 998 109 796 313 
Q 595 518 480 860 
Q 365 1203 365 1722 
Q 365 2342 502 2854 
Q 640 3366 928 3734 
Q 1216 4102 1667 4304 
Q 2118 4506 2746 4506 
L 2739 4019 
Q 2330 4019 2010 3904 
Q 1690 3789 1466 3587 
Q 1242 3386 1114 3114 
Q 986 2842 960 2528 
L 979 2528 
Q 1107 2656 1356 2774 
Q 1606 2893 1933 2893 
Q 2554 2893 2918 2541 
Q 3283 2189 3283 1459 
Q 3283 1133 3196 854 
Q 3110 576 2934 371 
Q 2758 166 2483 51 
Q 2208 -64 1837 -64 
z
M 1830 416 
Q 2285 416 2521 675 
Q 2758 934 2758 1459 
Q 2758 1958 2521 2204 
Q 2285 2451 1907 2451 
Q 1389 2451 1152 2204 
Q 915 1958 915 1562 
Q 915 416 1830 416 
z
" transform="scale(0.015625)"/>
       </defs>
       <use xlink:href="#AlibabaPuHuiTi-Regular-33"/>
       <use xlink:href="#AlibabaPuHuiTi-Regular-36" x="57.499985"/>
       <use xlink:href="#AlibabaPuHuiTi-Regular-2103" x="114.999969"/>
      </g>
     </g>
    </g>
    <g id="ytick_5">
     <g id="line2d_17">
      <g>
       <use xlink:href="#mfe4ef34084" x="90" y="186.799473" style="stroke: #000000; stroke-width: 0.8"/>
      </g>
     </g>
     <g id="text_11">
      <!-- 37℃ -->
      <g transform="translate(58.17125 191.359473)scale(0.12 -0.12)">
       <use xlink:href="#AlibabaPuHuiTi-Regular-33"/>
       <use xlink:href="#AlibabaPuHuiTi-Regular-37" x="57.499985"/>
       <use xlink:href="#AlibabaPuHuiTi-Regular-2103" x="114.999969"/>
      </g>
     </g>
    </g>
    <g id="ytick_6">
     <g id="line2d_18">
      <g>
       <use xlink:href="#mfe4ef34084" x="90" y="141.948661" style="stroke: #000000; stroke-width: 0.8"/>
      </g>
     </g>
     <g id="text_12">
      <!-- 38℃ -->
      <g transform="translate(58.17125 146.508661)scale(0.12 -0.12)">
       <use xlink:href="#AlibabaPuHuiTi-Regular-33"/>
       <use xlink:href="#AlibabaPuHuiTi-Regular-38" x="57.499985"/>
       <use xlink:href="#AlibabaPuHuiTi-Regular-2103" x="114.999969"/>
      </g>
     </g>
    </g>
    <g id="ytick_7">
     <g id="line2d_19">
      <g>
       <use xlink:href="#mfe4ef34084" x="90" y="97.097849" style="stroke: #000000; stroke-width: 0.8"/>
      </g>
     </g>
     <g id="text_13">
      <!-- 39℃ -->
      <g transform="translate(58.17125 101.657849)scale(0.12 -0.12)">
       <use xlink:href="#AlibabaPuHuiTi-Regular-33"/>
       <use xlink:href="#AlibabaPuHuiTi-Regular-39" x="57.499985"/>
       <use xlink:href="#AlibabaPuHuiTi-Regular-2103" x="114.999969"/>
      </g>
     </g>
    </g>
   </g>
   <g id="line2d_20">
    <path d="M 115.363636 110.553093 
L 118.832563 117.05283 
L 122.185859 122.860839 
L 125.423524 128.025433 
L 128.545558 132.593256 
L 131.551961 136.609291 
L 134.442734 140.11685 
L 137.333506 143.277339 
L 140.108647 145.984884 
L 142.768158 148.279468 
L 145.427669 150.280292 
L 147.971548 151.919243 
L 150.515428 153.289423 
L 152.943677 154.346598 
L 155.371925 155.15888 
L 157.684543 155.704804 
L 159.997161 156.028602 
L 162.309779 156.130275 
L 164.622397 156.009823 
L 166.935015 155.667246 
L 169.247632 155.102544 
L 171.56025 154.315716 
L 173.988499 153.250485 
L 176.416748 151.940361 
L 178.960627 150.305187 
L 181.504507 148.401241 
L 184.164018 146.123378 
L 186.823528 143.551754 
L 189.59867 140.555124 
L 192.489442 137.093506 
L 195.380214 133.284816 
L 198.386617 128.95576 
L 201.161759 124.995314 
L 203.9369 121.423362 
L 206.596411 118.364792 
L 209.140291 115.773065 
L 211.568539 113.603667 
L 213.996788 111.73171 
L 216.309406 110.225427 
L 218.622024 108.988931 
L 220.819011 108.064151 
L 223.015998 107.382854 
L 225.097354 106.962013 
L 227.17871 106.7597 
L 229.260066 106.775915 
L 231.341422 107.010659 
L 233.422778 107.46393 
L 235.504134 108.135729 
L 237.701121 109.081927 
L 239.898108 110.271608 
L 242.210726 111.786947 
L 244.523344 113.572073 
L 246.951593 115.736815 
L 249.379841 118.198998 
L 251.923721 121.097452 
L 254.583231 124.476691 
L 257.242742 128.212725 
L 260.017883 132.491596 
L 262.908656 137.361865 
L 265.915059 142.874118 
L 271.927865 154.133474 
L 274.009221 157.30342 
L 275.974947 159.897227 
L 277.825041 161.983472 
L 279.559504 163.626696 
L 281.293968 164.967375 
L 282.9128 165.945713 
L 284.531633 166.6605 
L 286.034834 167.088247 
L 287.538036 167.288748 
L 289.041238 167.262005 
L 290.544439 167.008017 
L 292.047641 166.526784 
L 293.550842 165.818306 
L 295.169675 164.801192 
L 296.788507 163.520528 
L 298.522971 161.855928 
L 300.257434 159.888783 
L 302.107528 157.457024 
L 303.61073 155.509545 
L 304.304515 154.985201 
L 304.998301 154.729465 
L 305.692086 154.742337 
L 306.385871 155.023817 
L 307.079657 155.573905 
L 307.889073 156.555165 
L 308.698489 157.902031 
L 309.623536 159.888986 
L 310.664215 162.695102 
L 311.820523 166.521836 
L 313.092463 171.593028 
L 314.595665 177.714991 
L 315.173819 179.105092 
L 315.636343 179.769159 
L 315.983236 180.005868 
L 316.330128 180.01857 
L 316.677021 179.807265 
L 317.139545 179.177071 
L 317.602068 178.148642 
L 318.180223 176.303089 
L 318.874008 173.267067 
L 319.683424 168.592562 
L 320.37721 164.572828 
L 320.724102 163.723325 
L 320.955364 163.631092 
L 321.186626 163.918141 
L 321.533518 165.059866 
L 321.880411 167.054974 
L 322.342935 171.042604 
L 323.152351 180.868436 
L 325.696231 211.393371 
L 328.124479 238.017093 
L 330.437097 261.090355 
L 332.749715 281.936627 
L 334.831071 298.794196 
L 336.912427 313.847903 
L 338.878152 326.408969 
L 340.728247 336.761335 
L 342.46271 345.172241 
L 344.081543 351.892223 
L 345.584744 357.155114 
L 346.972315 361.178046 
L 348.244255 364.161448 
L 349.400564 366.289047 
L 350.441242 367.727867 
L 351.366289 368.628229 
L 352.175705 369.123755 
L 352.985121 369.346473 
L 353.678907 369.320244 
L 354.372692 369.093585 
L 355.182108 368.57583 
L 355.991525 367.785268 
L 356.916572 366.547721 
L 357.95725 364.729568 
L 358.997928 362.46045 
L 360.154237 359.410298 
L 361.426177 355.412087 
L 363.507533 347.880494 
L 368.36403 329.587887 
L 373.336158 309.991558 
L 378.423918 289.030223 
L 383.627308 266.641174 
L 388.946329 242.760275 
L 394.380981 217.321969 
L 399.931264 190.259271 
L 405.94407 160.884641 
L 407.100379 156.795195 
L 408.141057 153.861254 
L 409.066104 151.847063 
L 409.875521 150.543059 
L 410.569306 149.765877 
L 411.263091 149.303037 
L 411.841246 149.157459 
L 412.4194 149.230173 
L 412.997555 149.521179 
L 413.69134 150.158533 
L 414.385125 151.110228 
L 415.310173 152.813727 
L 416.697743 155.192733 
L 417.969683 156.948744 
L 419.125992 158.192564 
L 420.16667 159.024922 
L 421.207348 159.58531 
L 422.132395 159.855112 
L 423.057442 159.910468 
L 426.988893 159.861573 
L 431.729759 160.055046 
L 434.736163 160.018744 
L 437.742566 159.766327 
L 440.748969 159.297795 
L 443.871003 158.582502 
L 446.993037 157.636778 
L 450.461964 156.625139 
L 453.81526 155.873437 
L 457.168556 155.344116 
L 459.365543 155.174809 
L 460.406221 155.367682 
L 461.446899 155.800191 
L 462.487577 156.472336 
L 463.643886 157.50022 
L 464.800195 158.823951 
L 466.072135 160.621759 
L 467.459705 162.989233 
L 469.772323 166.98701 
L 471.96931 170.368487 
L 474.166297 173.344229 
L 476.247653 175.789089 
L 478.213378 177.763758 
L 480.063473 179.325556 
L 482.607352 181.386513 
L 484.226185 183.062129 
L 485.960648 185.189893 
L 487.810742 187.838592 
L 489.660837 190.878601 
L 492.204716 195.56402 
L 494.517334 199.518617 
L 496.714321 202.852339 
L 498.795677 205.630284 
L 500.877033 208.03819 
L 502.842759 209.97255 
L 504.692853 211.491611 
L 506.542947 212.718296 
L 508.277411 213.602775 
L 510.011874 214.230284 
L 511.630706 214.584113 
L 513.249539 214.714091 
L 514.868371 214.620219 
L 516.487204 214.302496 
L 518.106036 213.760922 
L 519.8405 212.932259 
L 521.574963 211.846624 
L 523.309427 210.504018 
L 525.159521 208.788665 
L 527.125246 206.645745 
L 529.090971 204.172759 
L 531.172327 201.194544 
L 533.369314 197.649425 
L 535.681932 193.472305 
L 541.579108 182.434158 
L 544.46988 177.673883 
L 547.245021 173.527099 
L 549.904532 169.942 
L 552.448412 166.868939 
L 554.992291 164.144128 
L 557.42054 161.868036 
L 559.733158 159.995334 
L 562.045776 158.410442 
L 564.242763 157.171378 
L 566.43975 156.192062 
L 568.521106 155.50389 
L 570.602462 155.048844 
L 572.683818 154.826924 
L 574.765174 154.838129 
L 576.84653 155.082459 
L 578.927886 155.559916 
L 581.009242 156.270498 
L 583.090598 157.214206 
L 584.478169 157.819211 
L 585.287585 157.888955 
L 586.097001 157.726267 
L 586.906418 157.331149 
L 587.715834 156.7036 
L 588.640881 155.701792 
L 589.681559 154.21188 
L 590.722237 152.337746 
L 591.878546 149.804743 
L 593.150486 146.470567 
L 594.538057 142.178683 
L 596.041258 136.758325 
L 597.660091 130.024496 
L 599.394554 121.777971 
L 601.244648 111.805292 
L 603.210374 99.878772 
L 605.29173 85.780716 
L 606.448039 78.67048 
L 607.488717 73.706664 
L 608.298133 70.786061 
L 609.107549 68.688083 
L 609.685704 67.693174 
L 610.263858 67.117973 
L 610.726382 66.96 
L 611.188905 67.070639 
L 611.651429 67.449891 
L 612.229583 68.301691 
L 612.807738 69.573198 
L 613.501523 71.653019 
L 614.310939 74.843342 
L 615.235986 79.496721 
L 616.276665 86.016075 
L 617.432973 94.854685 
L 618.704913 106.516201 
L 620.092484 121.554635 
L 621.595686 140.574363 
L 622.636364 155.403905 
L 622.636364 155.403905 
" clip-path="url(#pa026145009)" style="fill: none; stroke: #92c6ff; stroke-width: 1.5; stroke-linecap: square"/>
   </g>
   <g id="line2d_21">
    <path d="M 115.363636 186.799473 
L 622.636364 186.799473 
" clip-path="url(#pa026145009)" style="fill: none; stroke: #97f0aa; stroke-width: 1.5; stroke-linecap: square"/>
   </g>
   <g id="patch_3">
    <path d="M 90 384.48 
L 90 51.84 
" style="fill: none; stroke: #000000; stroke-width: 0.8; stroke-linejoin: miter; stroke-linecap: square"/>
   </g>
   <g id="patch_4">
    <path d="M 648 384.48 
L 648 51.84 
" style="fill: none; stroke: #000000; stroke-width: 0.8; stroke-linejoin: miter; stroke-linecap: square"/>
   </g>
   <g id="patch_5">
    <path d="M 90 384.48 
L 648 384.48 
" style="fill: none; stroke: #000000; stroke-width: 0.8; stroke-linejoin: miter; stroke-linecap: square"/>
   </g>
   <g id="patch_6">
    <path d="M 90 51.84 
L 648 51.84 
" style="fill: none; stroke: #000000; stroke-width: 0.8; stroke-linejoin: miter; stroke-linecap: square"/>
   </g>
  </g>
 </g>
 <defs>
  <clipPath id="pa026145009">
   <rect x="90" y="51.84" width="558" height="332.64"/>
  </clipPath>
 </defs>
</svg>
