<?xml version="1.0" encoding="utf-8" standalone="no"?>
<!DOCTYPE svg PUBLIC "-//W3C//DTD SVG 1.1//EN"
  "http://www.w3.org/Graphics/SVG/1.1/DTD/svg11.dtd">
<svg xmlns:xlink="http://www.w3.org/1999/xlink" width="720pt" height="432pt" viewBox="0 0 720 432" xmlns="http://www.w3.org/2000/svg" version="1.1">
 <metadata>
  <rdf:RDF xmlns:dc="http://purl.org/dc/elements/1.1/" xmlns:cc="http://creativecommons.org/ns#" xmlns:rdf="http://www.w3.org/1999/02/22-rdf-syntax-ns#">
   <cc:Work>
    <dc:type rdf:resource="http://purl.org/dc/dcmitype/StillImage"/>
    <dc:date>2022-12-20T16:47:56.331925</dc:date>
    <dc:format>image/svg+xml</dc:format>
    <dc:creator>
     <cc:Agent>
      <dc:title>Matplotlib v3.5.2, https://matplotlib.org/</dc:title>
     </cc:Agent>
    </dc:creator>
   </cc:Work>
  </rdf:RDF>
 </metadata>
 <defs>
  <style type="text/css">*{stroke-linejoin: round; stroke-linecap: butt}</style>
 </defs>
 <g id="figure_1">
  <g id="patch_1">
   <path d="M 0 432 
L 720 432 
L 720 0 
L 0 0 
z
" style="fill: #ffffff"/>
  </g>
  <g id="axes_1">
   <g id="patch_2">
    <path d="M 90 384.48 
L 648 384.48 
L 648 51.84 
L 90 51.84 
z
" style="fill: #ffffff"/>
   </g>
   <g id="PathCollection_1">
    <defs>
     <path id="mdaa14fe22e" d="M 0 1.936492 
C 0.513564 1.936492 1.006162 1.732451 1.369306 1.369306 
C 1.732451 1.006162 1.936492 0.513564 1.936492 0 
C 1.936492 -0.513564 1.732451 -1.006162 1.369306 -1.369306 
C 1.006162 -1.732451 0.513564 -1.936492 0 -1.936492 
C -0.513564 -1.936492 -1.006162 -1.732451 -1.369306 -1.369306 
C -1.732451 -1.006162 -1.936492 -0.513564 -1.936492 0 
C -1.936492 0.513564 -1.732451 1.006162 -1.369306 1.369306 
C -1.006162 1.732451 -0.513564 1.936492 0 1.936492 
z
" style="stroke: #ff9900"/>
    </defs>
    <g clip-path="url(#p2fe66e7a1b)">
     <use xlink:href="#mdaa14fe22e" x="115.363636" y="113.534474" style="fill: #ff9900; stroke: #ff9900"/>
     <use xlink:href="#mdaa14fe22e" x="146.534361" y="157.868617" style="fill: #ff9900; stroke: #ff9900"/>
     <use xlink:href="#mdaa14fe22e" x="210.548816" y="113.534474" style="fill: #ff9900; stroke: #ff9900"/>
     <use xlink:href="#mdaa14fe22e" x="252.726152" y="166.735446" style="fill: #ff9900; stroke: #ff9900"/>
     <use xlink:href="#mdaa14fe22e" x="263.2925" y="162.302032" style="fill: #ff9900; stroke: #ff9900"/>
     <use xlink:href="#mdaa14fe22e" x="269.456202" y="180.035689" style="fill: #ff9900; stroke: #ff9900"/>
     <use xlink:href="#mdaa14fe22e" x="272.802212" y="171.16886" style="fill: #ff9900; stroke: #ff9900"/>
     <use xlink:href="#mdaa14fe22e" x="273.682741" y="184.469103" style="fill: #ff9900; stroke: #ff9900"/>
     <use xlink:href="#mdaa14fe22e" x="332.590128" y="188.902518" style="fill: #ff9900; stroke: #ff9900"/>
     <use xlink:href="#mdaa14fe22e" x="337.873302" y="157.868617" style="fill: #ff9900; stroke: #ff9900"/>
     <use xlink:href="#mdaa14fe22e" x="349.144072" y="162.302032" style="fill: #ff9900; stroke: #ff9900"/>
     <use xlink:href="#mdaa14fe22e" x="350.112654" y="162.302032" style="fill: #ff9900; stroke: #ff9900"/>
     <use xlink:href="#mdaa14fe22e" x="359.974578" y="162.302032" style="fill: #ff9900; stroke: #ff9900"/>
     <use xlink:href="#mdaa14fe22e" x="375.295782" y="157.868617" style="fill: #ff9900; stroke: #ff9900"/>
     <use xlink:href="#mdaa14fe22e" x="378.201528" y="157.868617" style="fill: #ff9900; stroke: #ff9900"/>
     <use xlink:href="#mdaa14fe22e" x="388.591769" y="175.602275" style="fill: #ff9900; stroke: #ff9900"/>
     <use xlink:href="#mdaa14fe22e" x="398.453693" y="188.902518" style="fill: #ff9900; stroke: #ff9900"/>
     <use xlink:href="#mdaa14fe22e" x="404.44129" y="202.202761" style="fill: #ff9900; stroke: #ff9900"/>
     <use xlink:href="#mdaa14fe22e" x="467.927427" y="157.868617" style="fill: #ff9900; stroke: #ff9900"/>
     <use xlink:href="#mdaa14fe22e" x="475.940241" y="157.868617" style="fill: #ff9900; stroke: #ff9900"/>
     <use xlink:href="#mdaa14fe22e" x="500.683104" y="140.13496" style="fill: #ff9900; stroke: #ff9900"/>
     <use xlink:href="#mdaa14fe22e" x="501.651686" y="157.868617" style="fill: #ff9900; stroke: #ff9900"/>
     <use xlink:href="#mdaa14fe22e" x="511.161399" y="157.868617" style="fill: #ff9900; stroke: #ff9900"/>
     <use xlink:href="#mdaa14fe22e" x="525.778179" y="162.302032" style="fill: #ff9900; stroke: #ff9900"/>
     <use xlink:href="#mdaa14fe22e" x="595.692178" y="184.469103" style="fill: #ff9900; stroke: #ff9900"/>
     <use xlink:href="#mdaa14fe22e" x="608.371795" y="175.602275" style="fill: #ff9900; stroke: #ff9900"/>
     <use xlink:href="#mdaa14fe22e" x="622.636364" y="175.602275" style="fill: #ff9900; stroke: #ff9900"/>
    </g>
   </g>
   <g id="matplotlib.axis_1">
    <g id="xtick_1">
     <g id="line2d_1">
      <path d="M 90.268561 384.48 
L 90.268561 51.84 
" clip-path="url(#p2fe66e7a1b)" style="fill: none; stroke-dasharray: 2.96,1.28; stroke-dashoffset: 0; stroke: #b0b0b0; stroke-width: 0.8"/>
     </g>
     <g id="line2d_2">
      <defs>
       <path id="m82c7fa07fc" d="M 0 0 
L 0 3.5 
" style="stroke: #000000; stroke-width: 0.8"/>
      </defs>
      <g>
       <use xlink:href="#m82c7fa07fc" x="90.268561" y="384.48" style="stroke: #000000; stroke-width: 0.8"/>
      </g>
     </g>
     <g id="text_1">
      <!-- 12-16 12 -->
      <g transform="translate(65.386374 400.6)scale(0.12 -0.12)">
       <defs>
        <path id="AlibabaPuHuiTi-Regular-31" d="M 1747 3917 
L 646 3706 
L 646 4173 
L 1946 4442 
L 2323 4442 
L 2323 0 
L 1747 0 
L 1747 3917 
z
" transform="scale(0.015625)"/>
        <path id="AlibabaPuHuiTi-Regular-32" d="M 365 608 
Q 1075 1165 1504 1555 
Q 1933 1946 2169 2240 
Q 2406 2534 2483 2768 
Q 2560 3002 2560 3238 
Q 2560 3475 2473 3628 
Q 2387 3782 2252 3872 
Q 2118 3962 1948 3994 
Q 1779 4026 1619 4026 
Q 1408 4026 1171 4003 
Q 934 3981 672 3910 
L 672 4403 
Q 896 4454 1149 4480 
Q 1402 4506 1683 4506 
Q 2010 4506 2272 4435 
Q 2534 4365 2723 4211 
Q 2912 4058 3011 3814 
Q 3110 3571 3110 3232 
Q 3110 2931 3020 2665 
Q 2931 2400 2720 2115 
Q 2509 1830 2150 1500 
Q 1792 1171 1254 742 
L 998 544 
L 998 486 
L 3290 486 
L 3290 0 
L 365 0 
L 365 608 
z
" transform="scale(0.015625)"/>
        <path id="AlibabaPuHuiTi-Regular-2d" d="M 461 2195 
L 2349 2195 
L 2349 1734 
L 461 1734 
L 461 2195 
z
" transform="scale(0.015625)"/>
        <path id="AlibabaPuHuiTi-Regular-36" d="M 1837 -64 
Q 1530 -64 1264 22 
Q 998 109 796 313 
Q 595 518 480 860 
Q 365 1203 365 1722 
Q 365 2342 502 2854 
Q 640 3366 928 3734 
Q 1216 4102 1667 4304 
Q 2118 4506 2746 4506 
L 2739 4019 
Q 2330 4019 2010 3904 
Q 1690 3789 1466 3587 
Q 1242 3386 1114 3114 
Q 986 2842 960 2528 
L 979 2528 
Q 1107 2656 1356 2774 
Q 1606 2893 1933 2893 
Q 2554 2893 2918 2541 
Q 3283 2189 3283 1459 
Q 3283 1133 3196 854 
Q 3110 576 2934 371 
Q 2758 166 2483 51 
Q 2208 -64 1837 -64 
z
M 1830 416 
Q 2285 416 2521 675 
Q 2758 934 2758 1459 
Q 2758 1958 2521 2204 
Q 2285 2451 1907 2451 
Q 1389 2451 1152 2204 
Q 915 1958 915 1562 
Q 915 416 1830 416 
z
" transform="scale(0.015625)"/>
        <path id="AlibabaPuHuiTi-Regular-20" transform="scale(0.015625)"/>
       </defs>
       <use xlink:href="#AlibabaPuHuiTi-Regular-31"/>
       <use xlink:href="#AlibabaPuHuiTi-Regular-32" x="57.499985"/>
       <use xlink:href="#AlibabaPuHuiTi-Regular-2d" x="114.999969"/>
       <use xlink:href="#AlibabaPuHuiTi-Regular-31" x="158.999954"/>
       <use xlink:href="#AlibabaPuHuiTi-Regular-36" x="216.499939"/>
       <use xlink:href="#AlibabaPuHuiTi-Regular-20" x="273.999924"/>
       <use xlink:href="#AlibabaPuHuiTi-Regular-31" x="299.699921"/>
       <use xlink:href="#AlibabaPuHuiTi-Regular-32" x="357.199905"/>
      </g>
     </g>
    </g>
    <g id="xtick_2">
     <g id="line2d_3">
      <path d="M 153.666646 384.48 
L 153.666646 51.84 
" clip-path="url(#p2fe66e7a1b)" style="fill: none; stroke-dasharray: 2.96,1.28; stroke-dashoffset: 0; stroke: #b0b0b0; stroke-width: 0.8"/>
     </g>
     <g id="line2d_4">
      <g>
       <use xlink:href="#m82c7fa07fc" x="153.666646" y="384.48" style="stroke: #000000; stroke-width: 0.8"/>
      </g>
     </g>
     <g id="text_2">
      <!-- 12-17 00 -->
      <g transform="translate(128.784458 400.6)scale(0.12 -0.12)">
       <defs>
        <path id="AlibabaPuHuiTi-Regular-37" d="M 2784 3942 
L 346 3942 
L 346 4442 
L 3277 4442 
L 3277 3878 
L 1453 0 
L 864 0 
L 2784 3942 
z
" transform="scale(0.015625)"/>
        <path id="AlibabaPuHuiTi-Regular-30" d="M 1837 -64 
Q 1504 -64 1229 35 
Q 954 134 755 390 
Q 557 646 448 1091 
Q 339 1536 339 2221 
Q 339 2906 448 3347 
Q 557 3789 755 4048 
Q 954 4307 1229 4406 
Q 1504 4506 1837 4506 
Q 2170 4506 2448 4406 
Q 2726 4307 2924 4048 
Q 3123 3789 3232 3347 
Q 3341 2906 3341 2221 
Q 3341 1536 3232 1091 
Q 3123 646 2924 390 
Q 2726 134 2448 35 
Q 2170 -64 1837 -64 
z
M 1837 416 
Q 2074 416 2246 496 
Q 2419 576 2534 781 
Q 2650 986 2704 1334 
Q 2758 1683 2758 2221 
Q 2758 2752 2704 3101 
Q 2650 3450 2534 3654 
Q 2419 3859 2246 3939 
Q 2074 4019 1837 4019 
Q 1606 4019 1433 3939 
Q 1261 3859 1149 3654 
Q 1037 3450 982 3101 
Q 928 2752 928 2221 
Q 928 1683 982 1334 
Q 1037 986 1149 781 
Q 1261 576 1433 496 
Q 1606 416 1837 416 
z
" transform="scale(0.015625)"/>
       </defs>
       <use xlink:href="#AlibabaPuHuiTi-Regular-31"/>
       <use xlink:href="#AlibabaPuHuiTi-Regular-32" x="57.499985"/>
       <use xlink:href="#AlibabaPuHuiTi-Regular-2d" x="114.999969"/>
       <use xlink:href="#AlibabaPuHuiTi-Regular-31" x="158.999954"/>
       <use xlink:href="#AlibabaPuHuiTi-Regular-37" x="216.499939"/>
       <use xlink:href="#AlibabaPuHuiTi-Regular-20" x="273.999924"/>
       <use xlink:href="#AlibabaPuHuiTi-Regular-30" x="299.699921"/>
       <use xlink:href="#AlibabaPuHuiTi-Regular-30" x="357.199905"/>
      </g>
     </g>
    </g>
    <g id="xtick_3">
     <g id="line2d_5">
      <path d="M 217.06473 384.48 
L 217.06473 51.84 
" clip-path="url(#p2fe66e7a1b)" style="fill: none; stroke-dasharray: 2.96,1.28; stroke-dashoffset: 0; stroke: #b0b0b0; stroke-width: 0.8"/>
     </g>
     <g id="line2d_6">
      <g>
       <use xlink:href="#m82c7fa07fc" x="217.06473" y="384.48" style="stroke: #000000; stroke-width: 0.8"/>
      </g>
     </g>
     <g id="text_3">
      <!-- 12-17 12 -->
      <g transform="translate(192.182542 400.6)scale(0.12 -0.12)">
       <use xlink:href="#AlibabaPuHuiTi-Regular-31"/>
       <use xlink:href="#AlibabaPuHuiTi-Regular-32" x="57.499985"/>
       <use xlink:href="#AlibabaPuHuiTi-Regular-2d" x="114.999969"/>
       <use xlink:href="#AlibabaPuHuiTi-Regular-31" x="158.999954"/>
       <use xlink:href="#AlibabaPuHuiTi-Regular-37" x="216.499939"/>
       <use xlink:href="#AlibabaPuHuiTi-Regular-20" x="273.999924"/>
       <use xlink:href="#AlibabaPuHuiTi-Regular-31" x="299.699921"/>
       <use xlink:href="#AlibabaPuHuiTi-Regular-32" x="357.199905"/>
      </g>
     </g>
    </g>
    <g id="xtick_4">
     <g id="line2d_7">
      <path d="M 280.462814 384.48 
L 280.462814 51.84 
" clip-path="url(#p2fe66e7a1b)" style="fill: none; stroke-dasharray: 2.96,1.28; stroke-dashoffset: 0; stroke: #b0b0b0; stroke-width: 0.8"/>
     </g>
     <g id="line2d_8">
      <g>
       <use xlink:href="#m82c7fa07fc" x="280.462814" y="384.48" style="stroke: #000000; stroke-width: 0.8"/>
      </g>
     </g>
     <g id="text_4">
      <!-- 12-18 00 -->
      <g transform="translate(255.580627 400.6)scale(0.12 -0.12)">
       <defs>
        <path id="AlibabaPuHuiTi-Regular-38" d="M 1837 -64 
Q 1120 -64 720 237 
Q 320 538 320 1178 
Q 320 1434 390 1622 
Q 461 1811 573 1942 
Q 685 2074 825 2154 
Q 966 2234 1107 2285 
L 1107 2310 
Q 826 2438 646 2672 
Q 467 2906 467 3322 
Q 467 3584 547 3801 
Q 627 4019 793 4176 
Q 960 4333 1219 4419 
Q 1478 4506 1837 4506 
Q 2195 4506 2454 4419 
Q 2714 4333 2880 4176 
Q 3046 4019 3126 3801 
Q 3206 3584 3206 3322 
Q 3206 2918 3049 2678 
Q 2893 2438 2566 2310 
L 2566 2285 
Q 2726 2234 2870 2154 
Q 3014 2074 3123 1939 
Q 3232 1805 3293 1616 
Q 3354 1427 3354 1171 
Q 3354 531 2957 233 
Q 2560 -64 1837 -64 
z
M 1837 2496 
Q 2074 2496 2237 2557 
Q 2400 2618 2499 2726 
Q 2598 2835 2643 2976 
Q 2688 3117 2688 3283 
Q 2688 3648 2477 3846 
Q 2266 4045 1837 4045 
Q 986 4045 986 3283 
Q 986 3117 1024 2976 
Q 1062 2835 1161 2726 
Q 1261 2618 1424 2557 
Q 1587 2496 1837 2496 
z
M 1837 403 
Q 2362 403 2592 617 
Q 2822 832 2822 1197 
Q 2822 1651 2579 1862 
Q 2336 2074 1837 2074 
Q 1338 2074 1098 1862 
Q 858 1651 858 1197 
Q 858 832 1085 617 
Q 1312 403 1837 403 
z
" transform="scale(0.015625)"/>
       </defs>
       <use xlink:href="#AlibabaPuHuiTi-Regular-31"/>
       <use xlink:href="#AlibabaPuHuiTi-Regular-32" x="57.499985"/>
       <use xlink:href="#AlibabaPuHuiTi-Regular-2d" x="114.999969"/>
       <use xlink:href="#AlibabaPuHuiTi-Regular-31" x="158.999954"/>
       <use xlink:href="#AlibabaPuHuiTi-Regular-38" x="216.499939"/>
       <use xlink:href="#AlibabaPuHuiTi-Regular-20" x="273.999924"/>
       <use xlink:href="#AlibabaPuHuiTi-Regular-30" x="299.699921"/>
       <use xlink:href="#AlibabaPuHuiTi-Regular-30" x="357.199905"/>
      </g>
     </g>
    </g>
    <g id="xtick_5">
     <g id="line2d_9">
      <path d="M 343.860899 384.48 
L 343.860899 51.84 
" clip-path="url(#p2fe66e7a1b)" style="fill: none; stroke-dasharray: 2.96,1.28; stroke-dashoffset: 0; stroke: #b0b0b0; stroke-width: 0.8"/>
     </g>
     <g id="line2d_10">
      <g>
       <use xlink:href="#m82c7fa07fc" x="343.860899" y="384.48" style="stroke: #000000; stroke-width: 0.8"/>
      </g>
     </g>
     <g id="text_5">
      <!-- 12-18 12 -->
      <g transform="translate(318.978711 400.6)scale(0.12 -0.12)">
       <use xlink:href="#AlibabaPuHuiTi-Regular-31"/>
       <use xlink:href="#AlibabaPuHuiTi-Regular-32" x="57.499985"/>
       <use xlink:href="#AlibabaPuHuiTi-Regular-2d" x="114.999969"/>
       <use xlink:href="#AlibabaPuHuiTi-Regular-31" x="158.999954"/>
       <use xlink:href="#AlibabaPuHuiTi-Regular-38" x="216.499939"/>
       <use xlink:href="#AlibabaPuHuiTi-Regular-20" x="273.999924"/>
       <use xlink:href="#AlibabaPuHuiTi-Regular-31" x="299.699921"/>
       <use xlink:href="#AlibabaPuHuiTi-Regular-32" x="357.199905"/>
      </g>
     </g>
    </g>
    <g id="xtick_6">
     <g id="line2d_11">
      <path d="M 407.258983 384.48 
L 407.258983 51.84 
" clip-path="url(#p2fe66e7a1b)" style="fill: none; stroke-dasharray: 2.96,1.28; stroke-dashoffset: 0; stroke: #b0b0b0; stroke-width: 0.8"/>
     </g>
     <g id="line2d_12">
      <g>
       <use xlink:href="#m82c7fa07fc" x="407.258983" y="384.48" style="stroke: #000000; stroke-width: 0.8"/>
      </g>
     </g>
     <g id="text_6">
      <!-- 12-19 00 -->
      <g transform="translate(382.376795 400.6)scale(0.12 -0.12)">
       <defs>
        <path id="AlibabaPuHuiTi-Regular-39" d="M 922 403 
Q 1344 403 1661 518 
Q 1978 634 2198 838 
Q 2419 1043 2544 1318 
Q 2669 1594 2701 1914 
L 2675 1914 
Q 2554 1779 2304 1664 
Q 2054 1549 1728 1549 
Q 1421 1549 1168 1632 
Q 915 1715 739 1884 
Q 563 2054 464 2320 
Q 365 2586 365 2950 
Q 365 3277 451 3561 
Q 538 3846 717 4054 
Q 896 4262 1171 4384 
Q 1446 4506 1818 4506 
Q 2125 4506 2390 4416 
Q 2656 4326 2854 4115 
Q 3053 3904 3168 3558 
Q 3283 3213 3283 2701 
Q 3283 2080 3148 1568 
Q 3014 1056 2726 691 
Q 2438 326 1990 124 
Q 1542 -77 915 -77 
L 922 403 
z
M 1747 1984 
Q 2266 1984 2506 2224 
Q 2746 2464 2746 2867 
Q 2746 3430 2509 3731 
Q 2272 4032 1818 4032 
Q 1363 4032 1132 3753 
Q 902 3475 902 2950 
Q 902 2451 1139 2217 
Q 1376 1984 1747 1984 
z
" transform="scale(0.015625)"/>
       </defs>
       <use xlink:href="#AlibabaPuHuiTi-Regular-31"/>
       <use xlink:href="#AlibabaPuHuiTi-Regular-32" x="57.499985"/>
       <use xlink:href="#AlibabaPuHuiTi-Regular-2d" x="114.999969"/>
       <use xlink:href="#AlibabaPuHuiTi-Regular-31" x="158.999954"/>
       <use xlink:href="#AlibabaPuHuiTi-Regular-39" x="216.499939"/>
       <use xlink:href="#AlibabaPuHuiTi-Regular-20" x="273.999924"/>
       <use xlink:href="#AlibabaPuHuiTi-Regular-30" x="299.699921"/>
       <use xlink:href="#AlibabaPuHuiTi-Regular-30" x="357.199905"/>
      </g>
     </g>
    </g>
    <g id="xtick_7">
     <g id="line2d_13">
      <path d="M 470.657067 384.48 
L 470.657067 51.84 
" clip-path="url(#p2fe66e7a1b)" style="fill: none; stroke-dasharray: 2.96,1.28; stroke-dashoffset: 0; stroke: #b0b0b0; stroke-width: 0.8"/>
     </g>
     <g id="line2d_14">
      <g>
       <use xlink:href="#m82c7fa07fc" x="470.657067" y="384.48" style="stroke: #000000; stroke-width: 0.8"/>
      </g>
     </g>
     <g id="text_7">
      <!-- 12-19 12 -->
      <g transform="translate(445.77488 400.6)scale(0.12 -0.12)">
       <use xlink:href="#AlibabaPuHuiTi-Regular-31"/>
       <use xlink:href="#AlibabaPuHuiTi-Regular-32" x="57.499985"/>
       <use xlink:href="#AlibabaPuHuiTi-Regular-2d" x="114.999969"/>
       <use xlink:href="#AlibabaPuHuiTi-Regular-31" x="158.999954"/>
       <use xlink:href="#AlibabaPuHuiTi-Regular-39" x="216.499939"/>
       <use xlink:href="#AlibabaPuHuiTi-Regular-20" x="273.999924"/>
       <use xlink:href="#AlibabaPuHuiTi-Regular-31" x="299.699921"/>
       <use xlink:href="#AlibabaPuHuiTi-Regular-32" x="357.199905"/>
      </g>
     </g>
    </g>
    <g id="xtick_8">
     <g id="line2d_15">
      <path d="M 534.055151 384.48 
L 534.055151 51.84 
" clip-path="url(#p2fe66e7a1b)" style="fill: none; stroke-dasharray: 2.96,1.28; stroke-dashoffset: 0; stroke: #b0b0b0; stroke-width: 0.8"/>
     </g>
     <g id="line2d_16">
      <g>
       <use xlink:href="#m82c7fa07fc" x="534.055151" y="384.48" style="stroke: #000000; stroke-width: 0.8"/>
      </g>
     </g>
     <g id="text_8">
      <!-- 12-20 00 -->
      <g transform="translate(509.172964 400.6)scale(0.12 -0.12)">
       <use xlink:href="#AlibabaPuHuiTi-Regular-31"/>
       <use xlink:href="#AlibabaPuHuiTi-Regular-32" x="57.499985"/>
       <use xlink:href="#AlibabaPuHuiTi-Regular-2d" x="114.999969"/>
       <use xlink:href="#AlibabaPuHuiTi-Regular-32" x="158.999954"/>
       <use xlink:href="#AlibabaPuHuiTi-Regular-30" x="216.499939"/>
       <use xlink:href="#AlibabaPuHuiTi-Regular-20" x="273.999924"/>
       <use xlink:href="#AlibabaPuHuiTi-Regular-30" x="299.699921"/>
       <use xlink:href="#AlibabaPuHuiTi-Regular-30" x="357.199905"/>
      </g>
     </g>
    </g>
    <g id="xtick_9">
     <g id="line2d_17">
      <path d="M 597.453236 384.48 
L 597.453236 51.84 
" clip-path="url(#p2fe66e7a1b)" style="fill: none; stroke-dasharray: 2.96,1.28; stroke-dashoffset: 0; stroke: #b0b0b0; stroke-width: 0.8"/>
     </g>
     <g id="line2d_18">
      <g>
       <use xlink:href="#m82c7fa07fc" x="597.453236" y="384.48" style="stroke: #000000; stroke-width: 0.8"/>
      </g>
     </g>
     <g id="text_9">
      <!-- 12-20 12 -->
      <g transform="translate(572.571048 400.6)scale(0.12 -0.12)">
       <use xlink:href="#AlibabaPuHuiTi-Regular-31"/>
       <use xlink:href="#AlibabaPuHuiTi-Regular-32" x="57.499985"/>
       <use xlink:href="#AlibabaPuHuiTi-Regular-2d" x="114.999969"/>
       <use xlink:href="#AlibabaPuHuiTi-Regular-32" x="158.999954"/>
       <use xlink:href="#AlibabaPuHuiTi-Regular-30" x="216.499939"/>
       <use xlink:href="#AlibabaPuHuiTi-Regular-20" x="273.999924"/>
       <use xlink:href="#AlibabaPuHuiTi-Regular-31" x="299.699921"/>
       <use xlink:href="#AlibabaPuHuiTi-Regular-32" x="357.199905"/>
      </g>
     </g>
    </g>
   </g>
   <g id="matplotlib.axis_2">
    <g id="ytick_1">
     <g id="line2d_19">
      <defs>
       <path id="m2262ff50ff" d="M 0 0 
L -3.5 0 
" style="stroke: #000000; stroke-width: 0.8"/>
      </defs>
      <g>
       <use xlink:href="#m2262ff50ff" x="90" y="366.239091" style="stroke: #000000; stroke-width: 0.8"/>
      </g>
     </g>
     <g id="text_10">
      <!-- 33℃ -->
      <g transform="translate(58.17125 370.799091)scale(0.12 -0.12)">
       <defs>
        <path id="AlibabaPuHuiTi-Regular-33" d="M 1446 -64 
Q 1178 -64 925 -45 
Q 672 -26 448 19 
L 448 525 
Q 704 461 944 438 
Q 1184 416 1440 416 
Q 1690 416 1904 454 
Q 2118 493 2272 589 
Q 2426 685 2515 841 
Q 2605 998 2605 1229 
Q 2605 1702 2285 1888 
Q 1965 2074 1331 2074 
L 979 2074 
L 979 2515 
L 1325 2515 
Q 1907 2515 2208 2729 
Q 2509 2944 2509 3309 
Q 2509 3699 2275 3865 
Q 2042 4032 1562 4032 
Q 1370 4032 1120 4000 
Q 870 3968 659 3904 
L 659 4378 
Q 826 4429 1078 4467 
Q 1331 4506 1587 4506 
Q 2304 4506 2672 4230 
Q 3040 3955 3040 3341 
Q 3040 2906 2829 2672 
Q 2618 2438 2253 2330 
L 2253 2291 
Q 2726 2208 2940 1936 
Q 3155 1664 3155 1222 
Q 3155 608 2742 272 
Q 2330 -64 1446 -64 
z
" transform="scale(0.015625)"/>
        <path id="AlibabaPuHuiTi-Regular-2103" d="M 4531 -64 
Q 4070 -64 3699 32 
Q 3328 128 3062 381 
Q 2797 634 2653 1078 
Q 2509 1523 2509 2221 
Q 2509 2861 2656 3299 
Q 2803 3738 3072 4006 
Q 3341 4275 3728 4390 
Q 4115 4506 4595 4506 
Q 4902 4506 5129 4474 
Q 5357 4442 5555 4378 
L 5555 3846 
Q 5363 3917 5132 3958 
Q 4902 4000 4608 4000 
Q 4230 4000 3948 3910 
Q 3667 3821 3481 3613 
Q 3296 3405 3203 3069 
Q 3110 2733 3110 2234 
Q 3110 1702 3196 1360 
Q 3283 1018 3459 816 
Q 3635 614 3907 534 
Q 4179 454 4550 454 
Q 4864 454 5107 496 
Q 5350 538 5606 627 
L 5606 128 
Q 5421 45 5145 -9 
Q 4870 -64 4531 -64 
z
M 1158 2432 
Q 947 2432 758 2515 
Q 570 2598 429 2739 
Q 288 2880 208 3069 
Q 128 3258 128 3469 
Q 128 3680 208 3869 
Q 288 4058 429 4195 
Q 570 4333 758 4416 
Q 947 4499 1158 4499 
Q 1370 4499 1558 4416 
Q 1747 4333 1888 4195 
Q 2029 4058 2112 3869 
Q 2195 3680 2195 3469 
Q 2195 3258 2112 3069 
Q 2029 2880 1888 2739 
Q 1747 2598 1558 2515 
Q 1370 2432 1158 2432 
z
M 1158 2918 
Q 1389 2918 1549 3078 
Q 1709 3238 1709 3469 
Q 1709 3693 1549 3853 
Q 1389 4013 1158 4013 
Q 1043 4013 944 3971 
Q 845 3930 771 3856 
Q 698 3782 653 3683 
Q 608 3584 608 3469 
Q 608 3354 653 3254 
Q 698 3155 771 3078 
Q 845 3002 944 2960 
Q 1043 2918 1158 2918 
z
" transform="scale(0.015625)"/>
       </defs>
       <use xlink:href="#AlibabaPuHuiTi-Regular-33"/>
       <use xlink:href="#AlibabaPuHuiTi-Regular-33" x="57.499985"/>
       <use xlink:href="#AlibabaPuHuiTi-Regular-2103" x="114.999969"/>
      </g>
     </g>
    </g>
    <g id="ytick_2">
     <g id="line2d_20">
      <g>
       <use xlink:href="#m2262ff50ff" x="90" y="321.904948" style="stroke: #000000; stroke-width: 0.8"/>
      </g>
     </g>
     <g id="text_11">
      <!-- 34℃ -->
      <g transform="translate(58.17125 326.464948)scale(0.12 -0.12)">
       <defs>
        <path id="AlibabaPuHuiTi-Regular-34" d="M 3386 1094 
L 2861 1094 
L 2861 0 
L 2323 0 
L 2323 1094 
L 224 1094 
L 224 1715 
L 2170 4442 
L 2861 4442 
L 2861 1581 
L 3386 1581 
L 3386 1094 
z
M 2323 1581 
L 2323 3853 
L 2285 3853 
L 710 1619 
L 710 1581 
L 2323 1581 
z
" transform="scale(0.015625)"/>
       </defs>
       <use xlink:href="#AlibabaPuHuiTi-Regular-33"/>
       <use xlink:href="#AlibabaPuHuiTi-Regular-34" x="57.499985"/>
       <use xlink:href="#AlibabaPuHuiTi-Regular-2103" x="114.999969"/>
      </g>
     </g>
    </g>
    <g id="ytick_3">
     <g id="line2d_21">
      <g>
       <use xlink:href="#m2262ff50ff" x="90" y="277.570804" style="stroke: #000000; stroke-width: 0.8"/>
      </g>
     </g>
     <g id="text_12">
      <!-- 35℃ -->
      <g transform="translate(58.17125 282.130804)scale(0.12 -0.12)">
       <defs>
        <path id="AlibabaPuHuiTi-Regular-35" d="M 1466 -64 
Q 1197 -64 982 -45 
Q 768 -26 550 19 
L 550 525 
Q 800 461 1001 438 
Q 1203 416 1459 416 
Q 1734 416 1961 464 
Q 2189 512 2349 624 
Q 2509 736 2598 918 
Q 2688 1101 2688 1376 
Q 2688 1875 2397 2102 
Q 2106 2330 1414 2330 
Q 1235 2330 1004 2301 
Q 774 2272 563 2234 
L 864 4442 
L 2938 4442 
L 2938 3942 
L 1299 3942 
L 1114 2726 
Q 1235 2746 1356 2755 
Q 1478 2765 1632 2765 
Q 2406 2765 2822 2445 
Q 3238 2125 3238 1414 
Q 3238 1018 3113 739 
Q 2989 461 2758 281 
Q 2528 102 2198 19 
Q 1869 -64 1466 -64 
z
" transform="scale(0.015625)"/>
       </defs>
       <use xlink:href="#AlibabaPuHuiTi-Regular-33"/>
       <use xlink:href="#AlibabaPuHuiTi-Regular-35" x="57.499985"/>
       <use xlink:href="#AlibabaPuHuiTi-Regular-2103" x="114.999969"/>
      </g>
     </g>
    </g>
    <g id="ytick_4">
     <g id="line2d_22">
      <g>
       <use xlink:href="#m2262ff50ff" x="90" y="233.236661" style="stroke: #000000; stroke-width: 0.8"/>
      </g>
     </g>
     <g id="text_13">
      <!-- 36℃ -->
      <g transform="translate(58.17125 237.796661)scale(0.12 -0.12)">
       <use xlink:href="#AlibabaPuHuiTi-Regular-33"/>
       <use xlink:href="#AlibabaPuHuiTi-Regular-36" x="57.499985"/>
       <use xlink:href="#AlibabaPuHuiTi-Regular-2103" x="114.999969"/>
      </g>
     </g>
    </g>
    <g id="ytick_5">
     <g id="line2d_23">
      <g>
       <use xlink:href="#m2262ff50ff" x="90" y="188.902518" style="stroke: #000000; stroke-width: 0.8"/>
      </g>
     </g>
     <g id="text_14">
      <!-- 37℃ -->
      <g transform="translate(58.17125 193.462518)scale(0.12 -0.12)">
       <use xlink:href="#AlibabaPuHuiTi-Regular-33"/>
       <use xlink:href="#AlibabaPuHuiTi-Regular-37" x="57.499985"/>
       <use xlink:href="#AlibabaPuHuiTi-Regular-2103" x="114.999969"/>
      </g>
     </g>
    </g>
    <g id="ytick_6">
     <g id="line2d_24">
      <g>
       <use xlink:href="#m2262ff50ff" x="90" y="144.568374" style="stroke: #000000; stroke-width: 0.8"/>
      </g>
     </g>
     <g id="text_15">
      <!-- 38℃ -->
      <g transform="translate(58.17125 149.128374)scale(0.12 -0.12)">
       <use xlink:href="#AlibabaPuHuiTi-Regular-33"/>
       <use xlink:href="#AlibabaPuHuiTi-Regular-38" x="57.499985"/>
       <use xlink:href="#AlibabaPuHuiTi-Regular-2103" x="114.999969"/>
      </g>
     </g>
    </g>
    <g id="ytick_7">
     <g id="line2d_25">
      <g>
       <use xlink:href="#m2262ff50ff" x="90" y="100.234231" style="stroke: #000000; stroke-width: 0.8"/>
      </g>
     </g>
     <g id="text_16">
      <!-- 39℃ -->
      <g transform="translate(58.17125 104.794231)scale(0.12 -0.12)">
       <use xlink:href="#AlibabaPuHuiTi-Regular-33"/>
       <use xlink:href="#AlibabaPuHuiTi-Regular-39" x="57.499985"/>
       <use xlink:href="#AlibabaPuHuiTi-Regular-2103" x="114.999969"/>
      </g>
     </g>
    </g>
   </g>
   <g id="line2d_26">
    <path d="M 115.363636 113.534474 
L 118.269382 120.574651 
L 121.087075 126.830617 
L 123.816714 132.355068 
L 126.458301 137.199052 
L 128.923782 141.274384 
L 131.30121 144.796599 
L 133.590586 147.810158 
L 135.791908 150.357877 
L 137.905177 152.480925 
L 139.930394 154.218823 
L 141.955611 155.666345 
L 143.892774 156.779218 
L 145.741885 157.59367 
L 147.590996 158.16605 
L 149.352054 158.486118 
L 151.113112 158.58662 
L 152.87417 158.467556 
L 154.635227 158.128925 
L 156.396285 157.570728 
L 158.245396 156.748313 
L 160.094507 155.683825 
L 162.031671 154.309011 
L 164.056887 152.587641 
L 166.082104 150.575895 
L 168.195373 148.167092 
L 170.396696 145.321712 
L 172.686071 141.998585 
L 175.063499 138.154897 
L 177.52898 133.746184 
L 181.931625 125.70402 
L 184.132947 122.267778 
L 186.246217 119.361004 
L 188.271433 116.935697 
L 190.208597 114.945855 
L 192.057708 113.347475 
L 193.906819 112.04311 
L 195.667876 111.074203 
L 197.340881 110.400755 
L 199.013886 109.967985 
L 200.598839 109.780003 
L 202.183791 109.808032 
L 203.768743 110.052072 
L 205.353695 110.512123 
L 207.0267 111.232076 
L 208.699705 112.192709 
L 210.460763 113.463913 
L 212.309874 115.085692 
L 214.247037 117.100048 
L 216.184201 119.437086 
L 218.209418 122.22537 
L 220.322687 125.510903 
L 222.524009 129.341686 
L 224.813385 133.767723 
L 227.190813 138.841015 
L 229.744347 144.831467 
L 234.939468 157.346355 
L 236.700525 160.695029 
L 238.285478 163.254264 
L 239.782377 165.275896 
L 241.191223 166.827712 
L 242.512017 167.973511 
L 243.744757 168.773106 
L 244.977498 169.312186 
L 246.122185 169.579494 
L 247.266873 169.622175 
L 248.41156 169.440228 
L 249.556248 169.033655 
L 250.788989 168.344597 
L 252.021729 167.395024 
L 253.342523 166.088534 
L 254.751369 164.365315 
L 256.248268 162.161566 
L 257.83322 159.409501 
L 258.713749 157.97304 
L 259.330119 157.394167 
L 259.858437 157.185629 
L 260.386754 157.242605 
L 260.915072 157.565095 
L 261.443389 158.153098 
L 262.059759 159.174682 
L 262.764182 160.78473 
L 263.556658 163.16025 
L 264.437187 166.500378 
L 265.405769 171.026376 
L 267.430986 181.071162 
L 267.87125 181.953191 
L 268.223462 182.215961 
L 268.487621 182.154708 
L 268.751779 181.872029 
L 269.103991 181.150682 
L 269.544255 179.695433 
L 270.072573 177.137238 
L 270.688943 173.033244 
L 271.657525 166.278378 
L 271.833631 165.999751 
L 272.009736 166.096037 
L 272.185842 166.567235 
L 272.450001 167.976992 
L 272.802212 171.16886 
L 273.242477 177.267577 
L 275.531852 213.213101 
L 277.733174 244.267726 
L 279.758391 269.800138 
L 281.695555 291.498292 
L 283.544666 309.725409 
L 285.217671 324.125341 
L 286.802623 335.934771 
L 288.299522 345.450877 
L 289.620315 352.526641 
L 290.853056 358.013509 
L 291.997743 362.142621 
L 293.054378 365.128609 
L 293.934907 367.011566 
L 294.727383 368.235691 
L 295.431806 368.949575 
L 296.048177 369.285298 
L 296.664547 369.351357 
L 297.192864 369.19335 
L 297.809235 368.758606 
L 298.425605 368.054198 
L 299.130028 366.91896 
L 299.922504 365.220812 
L 300.803033 362.811164 
L 301.771615 359.524915 
L 302.916302 354.782646 
L 305.645942 341.76521 
L 309.872481 320.694474 
L 314.275126 297.595285 
L 318.765823 272.824674 
L 323.344574 246.310791 
L 328.011377 217.980382 
L 332.854287 187.186207 
L 336.552508 163.737922 
L 337.609143 158.887118 
L 338.489672 155.794204 
L 339.282148 153.748541 
L 339.986571 152.51709 
L 340.602941 151.892704 
L 341.131259 151.694129 
L 341.571523 151.766005 
L 342.011788 152.053659 
L 342.540105 152.68367 
L 343.156475 153.8114 
L 345.710009 159.254457 
L 346.678591 160.625152 
L 347.55912 161.522746 
L 348.351596 162.046807 
L 349.144072 162.302032 
L 349.936548 162.309941 
L 352.930347 162.281484 
L 359.358208 162.368101 
L 361.735636 162.027938 
L 364.113064 161.457402 
L 366.490492 160.656493 
L 372.125878 158.588709 
L 374.767465 157.965108 
L 377.05684 157.631249 
L 377.849316 157.742941 
L 378.641792 158.091511 
L 379.434268 158.676958 
L 380.314797 159.605273 
L 381.283379 160.964188 
L 382.340014 162.85021 
L 383.484701 165.3666 
L 385.509918 169.872761 
L 387.359029 173.473789 
L 389.120086 176.447821 
L 390.793091 178.861517 
L 392.378044 180.778205 
L 396.076265 184.95326 
L 397.485111 187.16057 
L 398.982011 189.929745 
L 400.566963 193.337861 
L 404.969608 203.25993 
L 406.818718 206.639297 
L 408.579776 209.3939 
L 410.252781 211.591621 
L 411.74968 213.211819 
L 413.24658 214.505067 
L 414.655426 215.423573 
L 415.976219 216.021641 
L 417.20896 216.350181 
L 418.4417 216.456983 
L 419.674441 216.342046 
L 420.907182 216.005371 
L 422.139922 215.446958 
L 423.460715 214.602596 
L 424.869562 213.421377 
L 426.278408 211.950541 
L 427.775307 210.070443 
L 429.360259 207.723386 
L 431.033264 204.848279 
L 432.794322 201.380636 
L 434.643433 197.252579 
L 436.756703 191.962977 
L 439.310237 185.781578 
L 441.775718 180.387104 
L 444.153146 175.719159 
L 446.354468 171.864347 
L 448.467738 168.586509 
L 450.492954 165.833875 
L 452.430118 163.556833 
L 454.279229 161.707928 
L 456.040287 160.241863 
L 457.801344 159.063403 
L 459.474349 158.210262 
L 461.059302 157.641455 
L 462.644254 157.305609 
L 464.229206 157.202724 
L 465.814158 157.332799 
L 467.39911 157.695836 
L 468.984062 158.291833 
L 470.569014 159.120792 
L 472.946442 160.43091 
L 473.562813 160.364376 
L 474.179183 160.058806 
L 474.883606 159.416887 
L 475.588029 158.46276 
L 476.380505 157.016178 
L 477.261034 154.94543 
L 478.229616 152.104167 
L 479.286251 148.331405 
L 480.518991 143.042006 
L 481.839785 136.313768 
L 483.248631 127.927171 
L 484.74553 117.648057 
L 486.330482 105.227634 
L 488.09154 89.573422 
L 489.324281 78.923936 
L 490.20481 73.348912 
L 490.909233 70.137708 
L 491.525603 68.238499 
L 492.053921 67.287046 
L 492.406132 66.999637 
L 492.758344 66.989742 
L 493.110555 67.257362 
L 493.55082 67.982141 
L 494.079137 69.424249 
L 494.695507 71.89589 
L 495.399931 75.761301 
L 496.192407 81.436753 
L 497.072936 89.390553 
L 498.041517 100.14304 
L 499.186205 115.556289 
L 500.418946 135.43331 
L 502.532215 170.735917 
L 503.236638 178.273875 
L 503.853008 182.860093 
L 504.381326 185.298367 
L 504.733537 186.158361 
L 504.997696 186.401458 
L 505.173802 186.372141 
L 505.437961 186.041096 
L 505.790172 185.063836 
L 506.230437 182.981048 
L 509.048129 166.618412 
L 510.28087 161.140656 
L 511.425557 156.99111 
L 512.482192 153.961564 
L 513.450774 151.859826 
L 514.24325 150.620704 
L 514.947673 149.882294 
L 515.564043 149.516467 
L 516.180414 149.412236 
L 516.708731 149.531104 
L 517.325101 149.912694 
L 517.941472 150.555881 
L 518.733948 151.742087 
L 522.344116 157.351184 
L 525.866232 162.424045 
L 529.300295 166.990258 
L 532.646305 171.078671 
L 535.904262 174.71739 
L 539.074166 177.933786 
L 542.156018 180.754485 
L 545.237869 183.273148 
L 548.231667 185.430633 
L 551.137413 187.252091 
L 553.955106 188.761929 
L 556.772798 190.019289 
L 559.502438 190.996591 
L 562.320131 191.762869 
L 565.225876 192.324538 
L 568.131622 192.657926 
L 571.037367 192.763032 
L 573.943113 192.639858 
L 576.848858 192.288403 
L 579.754604 191.708666 
L 582.660349 190.900649 
L 585.566095 189.864351 
L 588.559893 188.557887 
L 591.553692 187.009097 
L 594.635543 185.161633 
L 597.717394 183.05738 
L 600.887299 180.625104 
L 604.761626 177.616701 
L 606.874895 176.338776 
L 608.900112 175.375733 
L 610.837276 174.694173 
L 612.774439 174.246899 
L 614.711603 174.033912 
L 616.560714 174.04916 
L 618.409825 174.277879 
L 620.346988 174.746452 
L 622.284152 175.449311 
L 622.636364 175.602275 
L 622.636364 175.602275 
" clip-path="url(#p2fe66e7a1b)" style="fill: none; stroke: #92c6ff; stroke-width: 1.5; stroke-linecap: square"/>
   </g>
   <g id="line2d_27">
    <path d="M 115.363636 188.902518 
L 622.636364 188.902518 
" clip-path="url(#p2fe66e7a1b)" style="fill: none; stroke: #97f0aa; stroke-width: 1.5; stroke-linecap: square"/>
   </g>
   <g id="patch_3">
    <path d="M 90 384.48 
L 90 51.84 
" style="fill: none; stroke: #000000; stroke-width: 0.8; stroke-linejoin: miter; stroke-linecap: square"/>
   </g>
   <g id="patch_4">
    <path d="M 648 384.48 
L 648 51.84 
" style="fill: none; stroke: #000000; stroke-width: 0.8; stroke-linejoin: miter; stroke-linecap: square"/>
   </g>
   <g id="patch_5">
    <path d="M 90 384.48 
L 648 384.48 
" style="fill: none; stroke: #000000; stroke-width: 0.8; stroke-linejoin: miter; stroke-linecap: square"/>
   </g>
   <g id="patch_6">
    <path d="M 90 51.84 
L 648 51.84 
" style="fill: none; stroke: #000000; stroke-width: 0.8; stroke-linejoin: miter; stroke-linecap: square"/>
   </g>
  </g>
 </g>
 <defs>
  <clipPath id="p2fe66e7a1b">
   <rect x="90" y="51.84" width="558" height="332.64"/>
  </clipPath>
 </defs>
</svg>
