<?xml version="1.0" encoding="utf-8" standalone="no"?>
<!DOCTYPE svg PUBLIC "-//W3C//DTD SVG 1.1//EN"
  "http://www.w3.org/Graphics/SVG/1.1/DTD/svg11.dtd">
<svg xmlns:xlink="http://www.w3.org/1999/xlink" width="720pt" height="432pt" viewBox="0 0 720 432" xmlns="http://www.w3.org/2000/svg" version="1.1">
 <metadata>
  <rdf:RDF xmlns:dc="http://purl.org/dc/elements/1.1/" xmlns:cc="http://creativecommons.org/ns#" xmlns:rdf="http://www.w3.org/1999/02/22-rdf-syntax-ns#">
   <cc:Work>
    <dc:type rdf:resource="http://purl.org/dc/dcmitype/StillImage"/>
    <dc:date>2022-12-18T23:28:42.201817</dc:date>
    <dc:format>image/svg+xml</dc:format>
    <dc:creator>
     <cc:Agent>
      <dc:title>Matplotlib v3.5.2, https://matplotlib.org/</dc:title>
     </cc:Agent>
    </dc:creator>
   </cc:Work>
  </rdf:RDF>
 </metadata>
 <defs>
  <style type="text/css">*{stroke-linejoin: round; stroke-linecap: butt}</style>
 </defs>
 <g id="figure_1">
  <g id="patch_1">
   <path d="M 0 432 
L 720 432 
L 720 0 
L 0 0 
z
" style="fill: #ffffff"/>
  </g>
  <g id="axes_1">
   <g id="patch_2">
    <path d="M 90 384.48 
L 648 384.48 
L 648 51.84 
L 90 51.84 
z
" style="fill: #ffffff"/>
   </g>
   <g id="PathCollection_1">
    <defs>
     <path id="m1ce232458f" d="M 0 1.936492 
C 0.513564 1.936492 1.006162 1.732451 1.369306 1.369306 
C 1.732451 1.006162 1.936492 0.513564 1.936492 0 
C 1.936492 -0.513564 1.732451 -1.006162 1.369306 -1.369306 
C 1.006162 -1.732451 0.513564 -1.936492 0 -1.936492 
C -0.513564 -1.936492 -1.006162 -1.732451 -1.369306 -1.369306 
C -1.732451 -1.006162 -1.936492 -0.513564 -1.936492 0 
C -1.936492 0.513564 -1.732451 1.006162 -1.369306 1.369306 
C -1.006162 1.732451 -0.513564 1.936492 0 1.936492 
z
" style="stroke: #ff9900"/>
    </defs>
    <g clip-path="url(#p5e907a60a2)">
     <use xlink:href="#m1ce232458f" x="115.363636" y="71.350757" style="fill: #ff9900; stroke: #ff9900"/>
     <use xlink:href="#m1ce232458f" x="170.061944" y="122.995269" style="fill: #ff9900; stroke: #ff9900"/>
     <use xlink:href="#m1ce232458f" x="282.394346" y="71.350757" style="fill: #ff9900; stroke: #ff9900"/>
     <use xlink:href="#m1ce232458f" x="356.407028" y="133.324172" style="fill: #ff9900; stroke: #ff9900"/>
     <use xlink:href="#m1ce232458f" x="374.948827" y="128.159721" style="fill: #ff9900; stroke: #ff9900"/>
     <use xlink:href="#m1ce232458f" x="385.764877" y="148.817525" style="fill: #ff9900; stroke: #ff9900"/>
     <use xlink:href="#m1ce232458f" x="391.636447" y="138.488623" style="fill: #ff9900; stroke: #ff9900"/>
     <use xlink:href="#m1ce232458f" x="393.181597" y="153.981977" style="fill: #ff9900; stroke: #ff9900"/>
     <use xlink:href="#m1ce232458f" x="496.552128" y="159.146428" style="fill: #ff9900; stroke: #ff9900"/>
     <use xlink:href="#m1ce232458f" x="505.823028" y="122.995269" style="fill: #ff9900; stroke: #ff9900"/>
     <use xlink:href="#m1ce232458f" x="525.600947" y="128.159721" style="fill: #ff9900; stroke: #ff9900"/>
     <use xlink:href="#m1ce232458f" x="527.300612" y="128.159721" style="fill: #ff9900; stroke: #ff9900"/>
     <use xlink:href="#m1ce232458f" x="544.606291" y="128.159721" style="fill: #ff9900; stroke: #ff9900"/>
     <use xlink:href="#m1ce232458f" x="571.4919" y="122.995269" style="fill: #ff9900; stroke: #ff9900"/>
     <use xlink:href="#m1ce232458f" x="576.590895" y="122.995269" style="fill: #ff9900; stroke: #ff9900"/>
     <use xlink:href="#m1ce232458f" x="594.823665" y="143.653074" style="fill: #ff9900; stroke: #ff9900"/>
     <use xlink:href="#m1ce232458f" x="612.129344" y="159.146428" style="fill: #ff9900; stroke: #ff9900"/>
     <use xlink:href="#m1ce232458f" x="622.636364" y="174.639782" style="fill: #ff9900; stroke: #ff9900"/>
    </g>
   </g>
   <g id="matplotlib.axis_1">
    <g id="xtick_1">
     <g id="line2d_1">
      <defs>
       <path id="m6649a5daeb" d="M 0 0 
L 0 3.5 
" style="stroke: #000000; stroke-width: 0.8"/>
      </defs>
      <g>
       <use xlink:href="#m6649a5daeb" x="126.952261" y="384.48" style="stroke: #000000; stroke-width: 0.8"/>
      </g>
     </g>
     <g id="text_1">
      <!-- 12-16 18 -->
      <g transform="translate(102.070073 400.6)scale(0.12 -0.12)">
       <defs>
        <path id="AlibabaPuHuiTi-Regular-31" d="M 1747 3917 
L 646 3706 
L 646 4173 
L 1946 4442 
L 2323 4442 
L 2323 0 
L 1747 0 
L 1747 3917 
z
" transform="scale(0.015625)"/>
        <path id="AlibabaPuHuiTi-Regular-32" d="M 365 608 
Q 1075 1165 1504 1555 
Q 1933 1946 2169 2240 
Q 2406 2534 2483 2768 
Q 2560 3002 2560 3238 
Q 2560 3475 2473 3628 
Q 2387 3782 2252 3872 
Q 2118 3962 1948 3994 
Q 1779 4026 1619 4026 
Q 1408 4026 1171 4003 
Q 934 3981 672 3910 
L 672 4403 
Q 896 4454 1149 4480 
Q 1402 4506 1683 4506 
Q 2010 4506 2272 4435 
Q 2534 4365 2723 4211 
Q 2912 4058 3011 3814 
Q 3110 3571 3110 3232 
Q 3110 2931 3020 2665 
Q 2931 2400 2720 2115 
Q 2509 1830 2150 1500 
Q 1792 1171 1254 742 
L 998 544 
L 998 486 
L 3290 486 
L 3290 0 
L 365 0 
L 365 608 
z
" transform="scale(0.015625)"/>
        <path id="AlibabaPuHuiTi-Regular-2d" d="M 461 2195 
L 2349 2195 
L 2349 1734 
L 461 1734 
L 461 2195 
z
" transform="scale(0.015625)"/>
        <path id="AlibabaPuHuiTi-Regular-36" d="M 1837 -64 
Q 1530 -64 1264 22 
Q 998 109 796 313 
Q 595 518 480 860 
Q 365 1203 365 1722 
Q 365 2342 502 2854 
Q 640 3366 928 3734 
Q 1216 4102 1667 4304 
Q 2118 4506 2746 4506 
L 2739 4019 
Q 2330 4019 2010 3904 
Q 1690 3789 1466 3587 
Q 1242 3386 1114 3114 
Q 986 2842 960 2528 
L 979 2528 
Q 1107 2656 1356 2774 
Q 1606 2893 1933 2893 
Q 2554 2893 2918 2541 
Q 3283 2189 3283 1459 
Q 3283 1133 3196 854 
Q 3110 576 2934 371 
Q 2758 166 2483 51 
Q 2208 -64 1837 -64 
z
M 1830 416 
Q 2285 416 2521 675 
Q 2758 934 2758 1459 
Q 2758 1958 2521 2204 
Q 2285 2451 1907 2451 
Q 1389 2451 1152 2204 
Q 915 1958 915 1562 
Q 915 416 1830 416 
z
" transform="scale(0.015625)"/>
        <path id="AlibabaPuHuiTi-Regular-20" transform="scale(0.015625)"/>
        <path id="AlibabaPuHuiTi-Regular-38" d="M 1837 -64 
Q 1120 -64 720 237 
Q 320 538 320 1178 
Q 320 1434 390 1622 
Q 461 1811 573 1942 
Q 685 2074 825 2154 
Q 966 2234 1107 2285 
L 1107 2310 
Q 826 2438 646 2672 
Q 467 2906 467 3322 
Q 467 3584 547 3801 
Q 627 4019 793 4176 
Q 960 4333 1219 4419 
Q 1478 4506 1837 4506 
Q 2195 4506 2454 4419 
Q 2714 4333 2880 4176 
Q 3046 4019 3126 3801 
Q 3206 3584 3206 3322 
Q 3206 2918 3049 2678 
Q 2893 2438 2566 2310 
L 2566 2285 
Q 2726 2234 2870 2154 
Q 3014 2074 3123 1939 
Q 3232 1805 3293 1616 
Q 3354 1427 3354 1171 
Q 3354 531 2957 233 
Q 2560 -64 1837 -64 
z
M 1837 2496 
Q 2074 2496 2237 2557 
Q 2400 2618 2499 2726 
Q 2598 2835 2643 2976 
Q 2688 3117 2688 3283 
Q 2688 3648 2477 3846 
Q 2266 4045 1837 4045 
Q 986 4045 986 3283 
Q 986 3117 1024 2976 
Q 1062 2835 1161 2726 
Q 1261 2618 1424 2557 
Q 1587 2496 1837 2496 
z
M 1837 403 
Q 2362 403 2592 617 
Q 2822 832 2822 1197 
Q 2822 1651 2579 1862 
Q 2336 2074 1837 2074 
Q 1338 2074 1098 1862 
Q 858 1651 858 1197 
Q 858 832 1085 617 
Q 1312 403 1837 403 
z
" transform="scale(0.015625)"/>
       </defs>
       <use xlink:href="#AlibabaPuHuiTi-Regular-31"/>
       <use xlink:href="#AlibabaPuHuiTi-Regular-32" x="57.499985"/>
       <use xlink:href="#AlibabaPuHuiTi-Regular-2d" x="114.999969"/>
       <use xlink:href="#AlibabaPuHuiTi-Regular-31" x="158.999954"/>
       <use xlink:href="#AlibabaPuHuiTi-Regular-36" x="216.499939"/>
       <use xlink:href="#AlibabaPuHuiTi-Regular-20" x="273.999924"/>
       <use xlink:href="#AlibabaPuHuiTi-Regular-31" x="299.699921"/>
       <use xlink:href="#AlibabaPuHuiTi-Regular-38" x="357.199905"/>
      </g>
     </g>
    </g>
    <g id="xtick_2">
     <g id="line2d_2">
      <g>
       <use xlink:href="#m6649a5daeb" x="182.577659" y="384.48" style="stroke: #000000; stroke-width: 0.8"/>
      </g>
     </g>
     <g id="text_2">
      <!-- 12-17 00 -->
      <g transform="translate(157.695472 400.6)scale(0.12 -0.12)">
       <defs>
        <path id="AlibabaPuHuiTi-Regular-37" d="M 2784 3942 
L 346 3942 
L 346 4442 
L 3277 4442 
L 3277 3878 
L 1453 0 
L 864 0 
L 2784 3942 
z
" transform="scale(0.015625)"/>
        <path id="AlibabaPuHuiTi-Regular-30" d="M 1837 -64 
Q 1504 -64 1229 35 
Q 954 134 755 390 
Q 557 646 448 1091 
Q 339 1536 339 2221 
Q 339 2906 448 3347 
Q 557 3789 755 4048 
Q 954 4307 1229 4406 
Q 1504 4506 1837 4506 
Q 2170 4506 2448 4406 
Q 2726 4307 2924 4048 
Q 3123 3789 3232 3347 
Q 3341 2906 3341 2221 
Q 3341 1536 3232 1091 
Q 3123 646 2924 390 
Q 2726 134 2448 35 
Q 2170 -64 1837 -64 
z
M 1837 416 
Q 2074 416 2246 496 
Q 2419 576 2534 781 
Q 2650 986 2704 1334 
Q 2758 1683 2758 2221 
Q 2758 2752 2704 3101 
Q 2650 3450 2534 3654 
Q 2419 3859 2246 3939 
Q 2074 4019 1837 4019 
Q 1606 4019 1433 3939 
Q 1261 3859 1149 3654 
Q 1037 3450 982 3101 
Q 928 2752 928 2221 
Q 928 1683 982 1334 
Q 1037 986 1149 781 
Q 1261 576 1433 496 
Q 1606 416 1837 416 
z
" transform="scale(0.015625)"/>
       </defs>
       <use xlink:href="#AlibabaPuHuiTi-Regular-31"/>
       <use xlink:href="#AlibabaPuHuiTi-Regular-32" x="57.499985"/>
       <use xlink:href="#AlibabaPuHuiTi-Regular-2d" x="114.999969"/>
       <use xlink:href="#AlibabaPuHuiTi-Regular-31" x="158.999954"/>
       <use xlink:href="#AlibabaPuHuiTi-Regular-37" x="216.499939"/>
       <use xlink:href="#AlibabaPuHuiTi-Regular-20" x="273.999924"/>
       <use xlink:href="#AlibabaPuHuiTi-Regular-30" x="299.699921"/>
       <use xlink:href="#AlibabaPuHuiTi-Regular-30" x="357.199905"/>
      </g>
     </g>
    </g>
    <g id="xtick_3">
     <g id="line2d_3">
      <g>
       <use xlink:href="#m6649a5daeb" x="238.203057" y="384.48" style="stroke: #000000; stroke-width: 0.8"/>
      </g>
     </g>
     <g id="text_3">
      <!-- 12-17 06 -->
      <g transform="translate(213.32087 400.6)scale(0.12 -0.12)">
       <use xlink:href="#AlibabaPuHuiTi-Regular-31"/>
       <use xlink:href="#AlibabaPuHuiTi-Regular-32" x="57.499985"/>
       <use xlink:href="#AlibabaPuHuiTi-Regular-2d" x="114.999969"/>
       <use xlink:href="#AlibabaPuHuiTi-Regular-31" x="158.999954"/>
       <use xlink:href="#AlibabaPuHuiTi-Regular-37" x="216.499939"/>
       <use xlink:href="#AlibabaPuHuiTi-Regular-20" x="273.999924"/>
       <use xlink:href="#AlibabaPuHuiTi-Regular-30" x="299.699921"/>
       <use xlink:href="#AlibabaPuHuiTi-Regular-36" x="357.199905"/>
      </g>
     </g>
    </g>
    <g id="xtick_4">
     <g id="line2d_4">
      <g>
       <use xlink:href="#m6649a5daeb" x="293.828455" y="384.48" style="stroke: #000000; stroke-width: 0.8"/>
      </g>
     </g>
     <g id="text_4">
      <!-- 12-17 12 -->
      <g transform="translate(268.946268 400.6)scale(0.12 -0.12)">
       <use xlink:href="#AlibabaPuHuiTi-Regular-31"/>
       <use xlink:href="#AlibabaPuHuiTi-Regular-32" x="57.499985"/>
       <use xlink:href="#AlibabaPuHuiTi-Regular-2d" x="114.999969"/>
       <use xlink:href="#AlibabaPuHuiTi-Regular-31" x="158.999954"/>
       <use xlink:href="#AlibabaPuHuiTi-Regular-37" x="216.499939"/>
       <use xlink:href="#AlibabaPuHuiTi-Regular-20" x="273.999924"/>
       <use xlink:href="#AlibabaPuHuiTi-Regular-31" x="299.699921"/>
       <use xlink:href="#AlibabaPuHuiTi-Regular-32" x="357.199905"/>
      </g>
     </g>
    </g>
    <g id="xtick_5">
     <g id="line2d_5">
      <g>
       <use xlink:href="#m6649a5daeb" x="349.453853" y="384.48" style="stroke: #000000; stroke-width: 0.8"/>
      </g>
     </g>
     <g id="text_5">
      <!-- 12-17 18 -->
      <g transform="translate(324.571666 400.6)scale(0.12 -0.12)">
       <use xlink:href="#AlibabaPuHuiTi-Regular-31"/>
       <use xlink:href="#AlibabaPuHuiTi-Regular-32" x="57.499985"/>
       <use xlink:href="#AlibabaPuHuiTi-Regular-2d" x="114.999969"/>
       <use xlink:href="#AlibabaPuHuiTi-Regular-31" x="158.999954"/>
       <use xlink:href="#AlibabaPuHuiTi-Regular-37" x="216.499939"/>
       <use xlink:href="#AlibabaPuHuiTi-Regular-20" x="273.999924"/>
       <use xlink:href="#AlibabaPuHuiTi-Regular-31" x="299.699921"/>
       <use xlink:href="#AlibabaPuHuiTi-Regular-38" x="357.199905"/>
      </g>
     </g>
    </g>
    <g id="xtick_6">
     <g id="line2d_6">
      <g>
       <use xlink:href="#m6649a5daeb" x="405.079251" y="384.48" style="stroke: #000000; stroke-width: 0.8"/>
      </g>
     </g>
     <g id="text_6">
      <!-- 12-18 00 -->
      <g transform="translate(380.197064 400.6)scale(0.12 -0.12)">
       <use xlink:href="#AlibabaPuHuiTi-Regular-31"/>
       <use xlink:href="#AlibabaPuHuiTi-Regular-32" x="57.499985"/>
       <use xlink:href="#AlibabaPuHuiTi-Regular-2d" x="114.999969"/>
       <use xlink:href="#AlibabaPuHuiTi-Regular-31" x="158.999954"/>
       <use xlink:href="#AlibabaPuHuiTi-Regular-38" x="216.499939"/>
       <use xlink:href="#AlibabaPuHuiTi-Regular-20" x="273.999924"/>
       <use xlink:href="#AlibabaPuHuiTi-Regular-30" x="299.699921"/>
       <use xlink:href="#AlibabaPuHuiTi-Regular-30" x="357.199905"/>
      </g>
     </g>
    </g>
    <g id="xtick_7">
     <g id="line2d_7">
      <g>
       <use xlink:href="#m6649a5daeb" x="460.704649" y="384.48" style="stroke: #000000; stroke-width: 0.8"/>
      </g>
     </g>
     <g id="text_7">
      <!-- 12-18 06 -->
      <g transform="translate(435.822462 400.6)scale(0.12 -0.12)">
       <use xlink:href="#AlibabaPuHuiTi-Regular-31"/>
       <use xlink:href="#AlibabaPuHuiTi-Regular-32" x="57.499985"/>
       <use xlink:href="#AlibabaPuHuiTi-Regular-2d" x="114.999969"/>
       <use xlink:href="#AlibabaPuHuiTi-Regular-31" x="158.999954"/>
       <use xlink:href="#AlibabaPuHuiTi-Regular-38" x="216.499939"/>
       <use xlink:href="#AlibabaPuHuiTi-Regular-20" x="273.999924"/>
       <use xlink:href="#AlibabaPuHuiTi-Regular-30" x="299.699921"/>
       <use xlink:href="#AlibabaPuHuiTi-Regular-36" x="357.199905"/>
      </g>
     </g>
    </g>
    <g id="xtick_8">
     <g id="line2d_8">
      <g>
       <use xlink:href="#m6649a5daeb" x="516.330047" y="384.48" style="stroke: #000000; stroke-width: 0.8"/>
      </g>
     </g>
     <g id="text_8">
      <!-- 12-18 12 -->
      <g transform="translate(491.44786 400.6)scale(0.12 -0.12)">
       <use xlink:href="#AlibabaPuHuiTi-Regular-31"/>
       <use xlink:href="#AlibabaPuHuiTi-Regular-32" x="57.499985"/>
       <use xlink:href="#AlibabaPuHuiTi-Regular-2d" x="114.999969"/>
       <use xlink:href="#AlibabaPuHuiTi-Regular-31" x="158.999954"/>
       <use xlink:href="#AlibabaPuHuiTi-Regular-38" x="216.499939"/>
       <use xlink:href="#AlibabaPuHuiTi-Regular-20" x="273.999924"/>
       <use xlink:href="#AlibabaPuHuiTi-Regular-31" x="299.699921"/>
       <use xlink:href="#AlibabaPuHuiTi-Regular-32" x="357.199905"/>
      </g>
     </g>
    </g>
    <g id="xtick_9">
     <g id="line2d_9">
      <g>
       <use xlink:href="#m6649a5daeb" x="571.955445" y="384.48" style="stroke: #000000; stroke-width: 0.8"/>
      </g>
     </g>
     <g id="text_9">
      <!-- 12-18 18 -->
      <g transform="translate(547.073258 400.6)scale(0.12 -0.12)">
       <use xlink:href="#AlibabaPuHuiTi-Regular-31"/>
       <use xlink:href="#AlibabaPuHuiTi-Regular-32" x="57.499985"/>
       <use xlink:href="#AlibabaPuHuiTi-Regular-2d" x="114.999969"/>
       <use xlink:href="#AlibabaPuHuiTi-Regular-31" x="158.999954"/>
       <use xlink:href="#AlibabaPuHuiTi-Regular-38" x="216.499939"/>
       <use xlink:href="#AlibabaPuHuiTi-Regular-20" x="273.999924"/>
       <use xlink:href="#AlibabaPuHuiTi-Regular-31" x="299.699921"/>
       <use xlink:href="#AlibabaPuHuiTi-Regular-38" x="357.199905"/>
      </g>
     </g>
    </g>
    <g id="xtick_10">
     <g id="line2d_10">
      <g>
       <use xlink:href="#m6649a5daeb" x="627.580843" y="384.48" style="stroke: #000000; stroke-width: 0.8"/>
      </g>
     </g>
     <g id="text_10">
      <!-- 12-19 00 -->
      <g transform="translate(602.698656 400.6)scale(0.12 -0.12)">
       <defs>
        <path id="AlibabaPuHuiTi-Regular-39" d="M 922 403 
Q 1344 403 1661 518 
Q 1978 634 2198 838 
Q 2419 1043 2544 1318 
Q 2669 1594 2701 1914 
L 2675 1914 
Q 2554 1779 2304 1664 
Q 2054 1549 1728 1549 
Q 1421 1549 1168 1632 
Q 915 1715 739 1884 
Q 563 2054 464 2320 
Q 365 2586 365 2950 
Q 365 3277 451 3561 
Q 538 3846 717 4054 
Q 896 4262 1171 4384 
Q 1446 4506 1818 4506 
Q 2125 4506 2390 4416 
Q 2656 4326 2854 4115 
Q 3053 3904 3168 3558 
Q 3283 3213 3283 2701 
Q 3283 2080 3148 1568 
Q 3014 1056 2726 691 
Q 2438 326 1990 124 
Q 1542 -77 915 -77 
L 922 403 
z
M 1747 1984 
Q 2266 1984 2506 2224 
Q 2746 2464 2746 2867 
Q 2746 3430 2509 3731 
Q 2272 4032 1818 4032 
Q 1363 4032 1132 3753 
Q 902 3475 902 2950 
Q 902 2451 1139 2217 
Q 1376 1984 1747 1984 
z
" transform="scale(0.015625)"/>
       </defs>
       <use xlink:href="#AlibabaPuHuiTi-Regular-31"/>
       <use xlink:href="#AlibabaPuHuiTi-Regular-32" x="57.499985"/>
       <use xlink:href="#AlibabaPuHuiTi-Regular-2d" x="114.999969"/>
       <use xlink:href="#AlibabaPuHuiTi-Regular-31" x="158.999954"/>
       <use xlink:href="#AlibabaPuHuiTi-Regular-39" x="216.499939"/>
       <use xlink:href="#AlibabaPuHuiTi-Regular-20" x="273.999924"/>
       <use xlink:href="#AlibabaPuHuiTi-Regular-30" x="299.699921"/>
       <use xlink:href="#AlibabaPuHuiTi-Regular-30" x="357.199905"/>
      </g>
     </g>
    </g>
   </g>
   <g id="matplotlib.axis_2">
    <g id="ytick_1">
     <g id="line2d_11">
      <defs>
       <path id="mcbdbf59c60" d="M 0 0 
L -3.5 0 
" style="stroke: #000000; stroke-width: 0.8"/>
      </defs>
      <g>
       <use xlink:href="#mcbdbf59c60" x="90" y="365.724476" style="stroke: #000000; stroke-width: 0.8"/>
      </g>
     </g>
     <g id="text_11">
      <!-- 33℃ -->
      <g transform="translate(58.17125 370.284476)scale(0.12 -0.12)">
       <defs>
        <path id="AlibabaPuHuiTi-Regular-33" d="M 1446 -64 
Q 1178 -64 925 -45 
Q 672 -26 448 19 
L 448 525 
Q 704 461 944 438 
Q 1184 416 1440 416 
Q 1690 416 1904 454 
Q 2118 493 2272 589 
Q 2426 685 2515 841 
Q 2605 998 2605 1229 
Q 2605 1702 2285 1888 
Q 1965 2074 1331 2074 
L 979 2074 
L 979 2515 
L 1325 2515 
Q 1907 2515 2208 2729 
Q 2509 2944 2509 3309 
Q 2509 3699 2275 3865 
Q 2042 4032 1562 4032 
Q 1370 4032 1120 4000 
Q 870 3968 659 3904 
L 659 4378 
Q 826 4429 1078 4467 
Q 1331 4506 1587 4506 
Q 2304 4506 2672 4230 
Q 3040 3955 3040 3341 
Q 3040 2906 2829 2672 
Q 2618 2438 2253 2330 
L 2253 2291 
Q 2726 2208 2940 1936 
Q 3155 1664 3155 1222 
Q 3155 608 2742 272 
Q 2330 -64 1446 -64 
z
" transform="scale(0.015625)"/>
        <path id="AlibabaPuHuiTi-Regular-2103" d="M 4531 -64 
Q 4070 -64 3699 32 
Q 3328 128 3062 381 
Q 2797 634 2653 1078 
Q 2509 1523 2509 2221 
Q 2509 2861 2656 3299 
Q 2803 3738 3072 4006 
Q 3341 4275 3728 4390 
Q 4115 4506 4595 4506 
Q 4902 4506 5129 4474 
Q 5357 4442 5555 4378 
L 5555 3846 
Q 5363 3917 5132 3958 
Q 4902 4000 4608 4000 
Q 4230 4000 3948 3910 
Q 3667 3821 3481 3613 
Q 3296 3405 3203 3069 
Q 3110 2733 3110 2234 
Q 3110 1702 3196 1360 
Q 3283 1018 3459 816 
Q 3635 614 3907 534 
Q 4179 454 4550 454 
Q 4864 454 5107 496 
Q 5350 538 5606 627 
L 5606 128 
Q 5421 45 5145 -9 
Q 4870 -64 4531 -64 
z
M 1158 2432 
Q 947 2432 758 2515 
Q 570 2598 429 2739 
Q 288 2880 208 3069 
Q 128 3258 128 3469 
Q 128 3680 208 3869 
Q 288 4058 429 4195 
Q 570 4333 758 4416 
Q 947 4499 1158 4499 
Q 1370 4499 1558 4416 
Q 1747 4333 1888 4195 
Q 2029 4058 2112 3869 
Q 2195 3680 2195 3469 
Q 2195 3258 2112 3069 
Q 2029 2880 1888 2739 
Q 1747 2598 1558 2515 
Q 1370 2432 1158 2432 
z
M 1158 2918 
Q 1389 2918 1549 3078 
Q 1709 3238 1709 3469 
Q 1709 3693 1549 3853 
Q 1389 4013 1158 4013 
Q 1043 4013 944 3971 
Q 845 3930 771 3856 
Q 698 3782 653 3683 
Q 608 3584 608 3469 
Q 608 3354 653 3254 
Q 698 3155 771 3078 
Q 845 3002 944 2960 
Q 1043 2918 1158 2918 
z
" transform="scale(0.015625)"/>
       </defs>
       <use xlink:href="#AlibabaPuHuiTi-Regular-33"/>
       <use xlink:href="#AlibabaPuHuiTi-Regular-33" x="57.499985"/>
       <use xlink:href="#AlibabaPuHuiTi-Regular-2103" x="114.999969"/>
      </g>
     </g>
    </g>
    <g id="ytick_2">
     <g id="line2d_12">
      <g>
       <use xlink:href="#mcbdbf59c60" x="90" y="314.079964" style="stroke: #000000; stroke-width: 0.8"/>
      </g>
     </g>
     <g id="text_12">
      <!-- 34℃ -->
      <g transform="translate(58.17125 318.639964)scale(0.12 -0.12)">
       <defs>
        <path id="AlibabaPuHuiTi-Regular-34" d="M 3386 1094 
L 2861 1094 
L 2861 0 
L 2323 0 
L 2323 1094 
L 224 1094 
L 224 1715 
L 2170 4442 
L 2861 4442 
L 2861 1581 
L 3386 1581 
L 3386 1094 
z
M 2323 1581 
L 2323 3853 
L 2285 3853 
L 710 1619 
L 710 1581 
L 2323 1581 
z
" transform="scale(0.015625)"/>
       </defs>
       <use xlink:href="#AlibabaPuHuiTi-Regular-33"/>
       <use xlink:href="#AlibabaPuHuiTi-Regular-34" x="57.499985"/>
       <use xlink:href="#AlibabaPuHuiTi-Regular-2103" x="114.999969"/>
      </g>
     </g>
    </g>
    <g id="ytick_3">
     <g id="line2d_13">
      <g>
       <use xlink:href="#mcbdbf59c60" x="90" y="262.435452" style="stroke: #000000; stroke-width: 0.8"/>
      </g>
     </g>
     <g id="text_13">
      <!-- 35℃ -->
      <g transform="translate(58.17125 266.995452)scale(0.12 -0.12)">
       <defs>
        <path id="AlibabaPuHuiTi-Regular-35" d="M 1466 -64 
Q 1197 -64 982 -45 
Q 768 -26 550 19 
L 550 525 
Q 800 461 1001 438 
Q 1203 416 1459 416 
Q 1734 416 1961 464 
Q 2189 512 2349 624 
Q 2509 736 2598 918 
Q 2688 1101 2688 1376 
Q 2688 1875 2397 2102 
Q 2106 2330 1414 2330 
Q 1235 2330 1004 2301 
Q 774 2272 563 2234 
L 864 4442 
L 2938 4442 
L 2938 3942 
L 1299 3942 
L 1114 2726 
Q 1235 2746 1356 2755 
Q 1478 2765 1632 2765 
Q 2406 2765 2822 2445 
Q 3238 2125 3238 1414 
Q 3238 1018 3113 739 
Q 2989 461 2758 281 
Q 2528 102 2198 19 
Q 1869 -64 1466 -64 
z
" transform="scale(0.015625)"/>
       </defs>
       <use xlink:href="#AlibabaPuHuiTi-Regular-33"/>
       <use xlink:href="#AlibabaPuHuiTi-Regular-35" x="57.499985"/>
       <use xlink:href="#AlibabaPuHuiTi-Regular-2103" x="114.999969"/>
      </g>
     </g>
    </g>
    <g id="ytick_4">
     <g id="line2d_14">
      <g>
       <use xlink:href="#mcbdbf59c60" x="90" y="210.79094" style="stroke: #000000; stroke-width: 0.8"/>
      </g>
     </g>
     <g id="text_14">
      <!-- 36℃ -->
      <g transform="translate(58.17125 215.35094)scale(0.12 -0.12)">
       <use xlink:href="#AlibabaPuHuiTi-Regular-33"/>
       <use xlink:href="#AlibabaPuHuiTi-Regular-36" x="57.499985"/>
       <use xlink:href="#AlibabaPuHuiTi-Regular-2103" x="114.999969"/>
      </g>
     </g>
    </g>
    <g id="ytick_5">
     <g id="line2d_15">
      <g>
       <use xlink:href="#mcbdbf59c60" x="90" y="159.146428" style="stroke: #000000; stroke-width: 0.8"/>
      </g>
     </g>
     <g id="text_15">
      <!-- 37℃ -->
      <g transform="translate(58.17125 163.706428)scale(0.12 -0.12)">
       <use xlink:href="#AlibabaPuHuiTi-Regular-33"/>
       <use xlink:href="#AlibabaPuHuiTi-Regular-37" x="57.499985"/>
       <use xlink:href="#AlibabaPuHuiTi-Regular-2103" x="114.999969"/>
      </g>
     </g>
    </g>
    <g id="ytick_6">
     <g id="line2d_16">
      <g>
       <use xlink:href="#mcbdbf59c60" x="90" y="107.501916" style="stroke: #000000; stroke-width: 0.8"/>
      </g>
     </g>
     <g id="text_16">
      <!-- 38℃ -->
      <g transform="translate(58.17125 112.061916)scale(0.12 -0.12)">
       <use xlink:href="#AlibabaPuHuiTi-Regular-33"/>
       <use xlink:href="#AlibabaPuHuiTi-Regular-38" x="57.499985"/>
       <use xlink:href="#AlibabaPuHuiTi-Regular-2103" x="114.999969"/>
      </g>
     </g>
    </g>
    <g id="ytick_7">
     <g id="line2d_17">
      <g>
       <use xlink:href="#mcbdbf59c60" x="90" y="55.857404" style="stroke: #000000; stroke-width: 0.8"/>
      </g>
     </g>
     <g id="text_17">
      <!-- 39℃ -->
      <g transform="translate(58.17125 60.417404)scale(0.12 -0.12)">
       <use xlink:href="#AlibabaPuHuiTi-Regular-33"/>
       <use xlink:href="#AlibabaPuHuiTi-Regular-39" x="57.499985"/>
       <use xlink:href="#AlibabaPuHuiTi-Regular-2103" x="114.999969"/>
      </g>
     </g>
    </g>
   </g>
   <g id="line2d_18">
    <path d="M 115.363636 71.350757 
L 119.381026 77.870378 
L 123.243901 83.73161 
L 127.106776 89.193198 
L 130.815136 94.060339 
L 134.523496 98.55917 
L 138.077341 102.524939 
L 141.631185 106.15245 
L 145.030515 109.305726 
L 148.429845 112.149519 
L 151.67466 114.575347 
L 154.919475 116.719187 
L 158.009775 118.498774 
L 161.100075 120.02259 
L 164.190375 121.290635 
L 167.12616 122.258369 
L 170.061944 122.995269 
L 172.997729 123.501337 
L 175.933514 123.77657 
L 178.869299 123.82097 
L 181.805084 123.634537 
L 184.740869 123.21727 
L 187.676654 122.569169 
L 190.612439 121.690235 
L 193.548224 120.580467 
L 196.484009 119.239866 
L 199.574308 117.57933 
L 202.664608 115.663023 
L 205.754908 113.490944 
L 208.999723 110.934988 
L 212.244538 108.097044 
L 215.643868 104.82151 
L 219.043198 101.236493 
L 222.597043 97.157617 
L 226.150887 92.740483 
L 229.550217 88.526169 
L 232.795032 84.853896 
L 236.039847 81.524118 
L 239.130147 78.67132 
L 242.065932 76.248905 
L 245.001717 74.106855 
L 247.937502 72.245169 
L 250.718772 70.740086 
L 253.500042 69.486632 
L 256.281311 68.484807 
L 258.908066 67.769687 
L 261.534821 67.279015 
L 264.161576 67.01279 
L 266.788331 66.971011 
L 269.415086 67.15368 
L 272.041841 67.560796 
L 274.668596 68.192359 
L 277.295351 69.048369 
L 279.922106 70.128825 
L 282.703376 71.517478 
L 285.484645 73.15776 
L 288.265915 75.049671 
L 291.2017 77.319675 
L 294.137485 79.870044 
L 297.227785 82.85753 
L 300.318085 86.155669 
L 303.5629 89.953055 
L 306.807715 94.092937 
L 310.207045 98.797304 
L 313.606374 103.877561 
L 317.160219 109.590647 
L 323.649849 120.20422 
L 326.122089 123.622173 
L 328.439814 126.46652 
L 330.757539 128.962494 
L 332.920749 130.977761 
L 335.083959 132.689556 
L 337.092654 134.00735 
L 339.101349 135.063478 
L 341.110043 135.857939 
L 342.964223 136.35904 
L 344.818403 136.637182 
L 346.672583 136.692366 
L 348.526763 136.524592 
L 350.380943 136.133859 
L 352.235123 135.520168 
L 354.089303 134.683519 
L 356.097998 133.525546 
L 358.106693 132.105908 
L 360.115388 130.424602 
L 362.278598 128.321333 
L 364.441808 125.914593 
L 366.914048 123.116911 
L 367.841138 122.513143 
L 368.613713 122.24627 
L 369.386287 122.194185 
L 370.158862 122.356888 
L 370.931437 122.73438 
L 371.858527 123.47089 
L 372.785617 124.516695 
L 373.867222 126.127715 
L 374.948827 128.159721 
L 376.184947 130.997504 
L 377.421067 134.385145 
L 378.811702 138.853493 
L 380.356852 144.63452 
L 381.283942 147.845006 
L 382.056517 149.732267 
L 382.674577 150.726201 
L 383.138122 151.170723 
L 383.601667 151.357308 
L 384.065212 151.285955 
L 384.528757 150.956664 
L 384.992302 150.369435 
L 385.610362 149.185227 
L 386.382937 147.060122 
L 387.155512 144.218523 
L 388.082602 139.862832 
L 389.318722 133.55304 
L 389.782267 132.57486 
L 390.091297 132.468656 
L 390.400327 132.799185 
L 390.709357 133.566446 
L 391.172902 135.53621 
L 391.636447 138.488623 
L 392.254507 143.953737 
L 396.889957 192.018237 
L 399.671226 218.12215 
L 402.452496 242.148965 
L 405.079251 262.933744 
L 407.551491 280.803439 
L 410.023731 297.031969 
L 412.341456 310.755705 
L 414.504666 322.263134 
L 416.513361 331.823508 
L 418.522056 340.300457 
L 420.376236 347.163714 
L 422.075901 352.644067 
L 423.621051 356.953071 
L 425.166201 360.620997 
L 426.556835 363.374006 
L 427.792955 365.385191 
L 429.029075 366.986085 
L 430.11068 368.0503 
L 431.192285 368.800386 
L 432.119375 369.193296 
L 433.046465 369.355418 
L 433.973555 369.28675 
L 434.900645 368.987294 
L 435.827735 368.457049 
L 436.90934 367.546738 
L 437.990945 366.322299 
L 439.227065 364.538291 
L 440.463185 362.343993 
L 441.85382 359.384981 
L 443.244455 355.906694 
L 444.789605 351.432905 
L 450.19763 334.215818 
L 455.914684 315.285484 
L 461.786254 295.064006 
L 467.812339 273.489024 
L 473.838424 251.082014 
L 480.019024 227.236165 
L 486.354138 201.885832 
L 492.689253 175.615947 
L 499.178883 147.751867 
L 502.887243 132.037671 
L 504.277878 127.301984 
L 505.513998 123.776178 
L 506.750118 120.893848 
L 507.831723 118.899661 
L 508.758813 117.582476 
L 509.685903 116.627247 
L 510.458478 116.107716 
L 511.231053 115.839543 
L 512.003628 115.822728 
L 512.776202 116.057271 
L 513.548777 116.543172 
L 514.321352 117.280431 
L 515.248442 118.496934 
L 518.647772 123.541512 
L 520.192922 125.244375 
L 521.583557 126.446388 
L 522.819677 127.251937 
L 524.055797 127.810047 
L 525.291917 128.120716 
L 526.528037 128.184456 
L 531.318002 128.122594 
L 536.107967 128.278623 
L 539.970842 128.362692 
L 543.833716 128.216569 
L 547.696591 127.840251 
L 551.559466 127.233741 
L 555.422341 126.397037 
L 567.010966 123.638894 
L 571.18287 123.031412 
L 574.736715 122.720755 
L 575.972835 122.849512 
L 577.208955 123.195281 
L 578.445075 123.758062 
L 579.83571 124.65059 
L 581.226345 125.817775 
L 582.771495 127.436775 
L 584.316645 129.394858 
L 586.01631 131.93114 
L 588.79758 136.065878 
L 591.57885 139.800855 
L 594.205605 142.961269 
L 596.677845 145.610044 
L 599.150084 147.942958 
L 601.467809 149.8432 
L 603.940049 151.576009 
L 606.103259 153.192164 
L 608.266469 155.083709 
L 610.584194 157.415962 
L 612.901919 160.06435 
L 615.374159 163.237749 
L 617.846399 166.770841 
L 620.473154 170.918866 
L 622.636364 174.639782 
L 622.636364 174.639782 
" clip-path="url(#p5e907a60a2)" style="fill: none; stroke: #92c6ff; stroke-width: 1.5; stroke-linecap: square"/>
   </g>
   <g id="line2d_19">
    <path d="M 115.363636 159.146428 
L 622.636364 159.146428 
" clip-path="url(#p5e907a60a2)" style="fill: none; stroke: #97f0aa; stroke-width: 1.5; stroke-linecap: square"/>
   </g>
   <g id="patch_3">
    <path d="M 90 384.48 
L 90 51.84 
" style="fill: none; stroke: #000000; stroke-width: 0.8; stroke-linejoin: miter; stroke-linecap: square"/>
   </g>
   <g id="patch_4">
    <path d="M 648 384.48 
L 648 51.84 
" style="fill: none; stroke: #000000; stroke-width: 0.8; stroke-linejoin: miter; stroke-linecap: square"/>
   </g>
   <g id="patch_5">
    <path d="M 90 384.48 
L 648 384.48 
" style="fill: none; stroke: #000000; stroke-width: 0.8; stroke-linejoin: miter; stroke-linecap: square"/>
   </g>
   <g id="patch_6">
    <path d="M 90 51.84 
L 648 51.84 
" style="fill: none; stroke: #000000; stroke-width: 0.8; stroke-linejoin: miter; stroke-linecap: square"/>
   </g>
  </g>
 </g>
 <defs>
  <clipPath id="p5e907a60a2">
   <rect x="90" y="51.84" width="558" height="332.64"/>
  </clipPath>
 </defs>
</svg>
