<?xml version="1.0" encoding="utf-8" standalone="no"?>
<!DOCTYPE svg PUBLIC "-//W3C//DTD SVG 1.1//EN"
  "http://www.w3.org/Graphics/SVG/1.1/DTD/svg11.dtd">
<svg xmlns:xlink="http://www.w3.org/1999/xlink" width="720pt" height="432pt" viewBox="0 0 720 432" xmlns="http://www.w3.org/2000/svg" version="1.1">
 <metadata>
  <rdf:RDF xmlns:dc="http://purl.org/dc/elements/1.1/" xmlns:cc="http://creativecommons.org/ns#" xmlns:rdf="http://www.w3.org/1999/02/22-rdf-syntax-ns#">
   <cc:Work>
    <dc:type rdf:resource="http://purl.org/dc/dcmitype/StillImage"/>
    <dc:date>2022-12-20T22:43:56.952012</dc:date>
    <dc:format>image/svg+xml</dc:format>
    <dc:creator>
     <cc:Agent>
      <dc:title>Matplotlib v3.5.2, https://matplotlib.org/</dc:title>
     </cc:Agent>
    </dc:creator>
   </cc:Work>
  </rdf:RDF>
 </metadata>
 <defs>
  <style type="text/css">*{stroke-linejoin: round; stroke-linecap: butt}</style>
 </defs>
 <g id="figure_1">
  <g id="patch_1">
   <path d="M 0 432 
L 720 432 
L 720 0 
L 0 0 
z
" style="fill: #ffffff"/>
  </g>
  <g id="axes_1">
   <g id="patch_2">
    <path d="M 90 384.48 
L 648 384.48 
L 648 51.84 
L 90 51.84 
z
" style="fill: #ffffff"/>
   </g>
   <g id="PathCollection_1">
    <defs>
     <path id="mfadbc90b8b" d="M 0 1.936492 
C 0.513564 1.936492 1.006162 1.732451 1.369306 1.369306 
C 1.732451 1.006162 1.936492 0.513564 1.936492 0 
C 1.936492 -0.513564 1.732451 -1.006162 1.369306 -1.369306 
C 1.006162 -1.732451 0.513564 -1.936492 0 -1.936492 
C -0.513564 -1.936492 -1.006162 -1.732451 -1.369306 -1.369306 
C -1.732451 -1.006162 -1.936492 -0.513564 -1.936492 0 
C -1.936492 0.513564 -1.732451 1.006162 -1.369306 1.369306 
C -1.006162 1.732451 -0.513564 1.936492 0 1.936492 
z
" style="stroke: #ff9900"/>
    </defs>
    <g clip-path="url(#p1457701c55)">
     <use xlink:href="#mfadbc90b8b" x="115.363636" y="113.534469" style="fill: #ff9900; stroke: #ff9900"/>
     <use xlink:href="#mfadbc90b8b" x="144.923232" y="157.868613" style="fill: #ff9900; stroke: #ff9900"/>
     <use xlink:href="#mfadbc90b8b" x="205.628956" y="113.534469" style="fill: #ff9900; stroke: #ff9900"/>
     <use xlink:href="#mfadbc90b8b" x="245.626263" y="166.735442" style="fill: #ff9900; stroke: #ff9900"/>
     <use xlink:href="#mfadbc90b8b" x="255.646465" y="162.302028" style="fill: #ff9900; stroke: #ff9900"/>
     <use xlink:href="#mfadbc90b8b" x="261.491582" y="180.035686" style="fill: #ff9900; stroke: #ff9900"/>
     <use xlink:href="#mfadbc90b8b" x="264.664646" y="171.168857" style="fill: #ff9900; stroke: #ff9900"/>
     <use xlink:href="#mfadbc90b8b" x="265.499663" y="184.4691" style="fill: #ff9900; stroke: #ff9900"/>
     <use xlink:href="#mfadbc90b8b" x="321.36229" y="188.902514" style="fill: #ff9900; stroke: #ff9900"/>
     <use xlink:href="#mfadbc90b8b" x="326.372391" y="157.868613" style="fill: #ff9900; stroke: #ff9900"/>
     <use xlink:href="#mfadbc90b8b" x="337.060606" y="162.302028" style="fill: #ff9900; stroke: #ff9900"/>
     <use xlink:href="#mfadbc90b8b" x="337.979125" y="162.302028" style="fill: #ff9900; stroke: #ff9900"/>
     <use xlink:href="#mfadbc90b8b" x="347.331313" y="162.302028" style="fill: #ff9900; stroke: #ff9900"/>
     <use xlink:href="#mfadbc90b8b" x="361.860606" y="157.868613" style="fill: #ff9900; stroke: #ff9900"/>
     <use xlink:href="#mfadbc90b8b" x="364.616162" y="157.868613" style="fill: #ff9900; stroke: #ff9900"/>
     <use xlink:href="#mfadbc90b8b" x="374.46936" y="175.602271" style="fill: #ff9900; stroke: #ff9900"/>
     <use xlink:href="#mfadbc90b8b" x="383.821549" y="188.902514" style="fill: #ff9900; stroke: #ff9900"/>
     <use xlink:href="#mfadbc90b8b" x="389.499663" y="202.202758" style="fill: #ff9900; stroke: #ff9900"/>
     <use xlink:href="#mfadbc90b8b" x="449.704377" y="157.868613" style="fill: #ff9900; stroke: #ff9900"/>
     <use xlink:href="#mfadbc90b8b" x="457.30303" y="157.868613" style="fill: #ff9900; stroke: #ff9900"/>
     <use xlink:href="#mfadbc90b8b" x="480.767003" y="140.134956" style="fill: #ff9900; stroke: #ff9900"/>
     <use xlink:href="#mfadbc90b8b" x="481.685522" y="157.868613" style="fill: #ff9900; stroke: #ff9900"/>
     <use xlink:href="#mfadbc90b8b" x="490.703704" y="157.868613" style="fill: #ff9900; stroke: #ff9900"/>
     <use xlink:href="#mfadbc90b8b" x="504.564983" y="162.302028" style="fill: #ff9900; stroke: #ff9900"/>
     <use xlink:href="#mfadbc90b8b" x="570.86532" y="184.4691" style="fill: #ff9900; stroke: #ff9900"/>
     <use xlink:href="#mfadbc90b8b" x="582.889562" y="175.602271" style="fill: #ff9900; stroke: #ff9900"/>
     <use xlink:href="#mfadbc90b8b" x="596.416835" y="175.602271" style="fill: #ff9900; stroke: #ff9900"/>
     <use xlink:href="#mfadbc90b8b" x="622.636364" y="180.035686" style="fill: #ff9900; stroke: #ff9900"/>
    </g>
   </g>
   <g id="matplotlib.axis_1">
    <g id="xtick_1">
     <g id="line2d_1">
      <path d="M 91.565657 384.48 
L 91.565657 51.84 
" clip-path="url(#p1457701c55)" style="fill: none; stroke-dasharray: 2.96,1.28; stroke-dashoffset: 0; stroke: #b0b0b0; stroke-width: 0.8"/>
     </g>
     <g id="line2d_2">
      <defs>
       <path id="m5ce84a86e5" d="M 0 0 
L 0 3.5 
" style="stroke: #000000; stroke-width: 0.8"/>
      </defs>
      <g>
       <use xlink:href="#m5ce84a86e5" x="91.565657" y="384.48" style="stroke: #000000; stroke-width: 0.8"/>
      </g>
     </g>
     <g id="text_1">
      <!-- 12-16 12 -->
      <g transform="translate(66.683469 400.6)scale(0.12 -0.12)">
       <defs>
        <path id="AlibabaPuHuiTi-Regular-31" d="M 1747 3917 
L 646 3706 
L 646 4173 
L 1946 4442 
L 2323 4442 
L 2323 0 
L 1747 0 
L 1747 3917 
z
" transform="scale(0.015625)"/>
        <path id="AlibabaPuHuiTi-Regular-32" d="M 365 608 
Q 1075 1165 1504 1555 
Q 1933 1946 2169 2240 
Q 2406 2534 2483 2768 
Q 2560 3002 2560 3238 
Q 2560 3475 2473 3628 
Q 2387 3782 2252 3872 
Q 2118 3962 1948 3994 
Q 1779 4026 1619 4026 
Q 1408 4026 1171 4003 
Q 934 3981 672 3910 
L 672 4403 
Q 896 4454 1149 4480 
Q 1402 4506 1683 4506 
Q 2010 4506 2272 4435 
Q 2534 4365 2723 4211 
Q 2912 4058 3011 3814 
Q 3110 3571 3110 3232 
Q 3110 2931 3020 2665 
Q 2931 2400 2720 2115 
Q 2509 1830 2150 1500 
Q 1792 1171 1254 742 
L 998 544 
L 998 486 
L 3290 486 
L 3290 0 
L 365 0 
L 365 608 
z
" transform="scale(0.015625)"/>
        <path id="AlibabaPuHuiTi-Regular-2d" d="M 461 2195 
L 2349 2195 
L 2349 1734 
L 461 1734 
L 461 2195 
z
" transform="scale(0.015625)"/>
        <path id="AlibabaPuHuiTi-Regular-36" d="M 1837 -64 
Q 1530 -64 1264 22 
Q 998 109 796 313 
Q 595 518 480 860 
Q 365 1203 365 1722 
Q 365 2342 502 2854 
Q 640 3366 928 3734 
Q 1216 4102 1667 4304 
Q 2118 4506 2746 4506 
L 2739 4019 
Q 2330 4019 2010 3904 
Q 1690 3789 1466 3587 
Q 1242 3386 1114 3114 
Q 986 2842 960 2528 
L 979 2528 
Q 1107 2656 1356 2774 
Q 1606 2893 1933 2893 
Q 2554 2893 2918 2541 
Q 3283 2189 3283 1459 
Q 3283 1133 3196 854 
Q 3110 576 2934 371 
Q 2758 166 2483 51 
Q 2208 -64 1837 -64 
z
M 1830 416 
Q 2285 416 2521 675 
Q 2758 934 2758 1459 
Q 2758 1958 2521 2204 
Q 2285 2451 1907 2451 
Q 1389 2451 1152 2204 
Q 915 1958 915 1562 
Q 915 416 1830 416 
z
" transform="scale(0.015625)"/>
        <path id="AlibabaPuHuiTi-Regular-20" transform="scale(0.015625)"/>
       </defs>
       <use xlink:href="#AlibabaPuHuiTi-Regular-31"/>
       <use xlink:href="#AlibabaPuHuiTi-Regular-32" x="57.499985"/>
       <use xlink:href="#AlibabaPuHuiTi-Regular-2d" x="114.999969"/>
       <use xlink:href="#AlibabaPuHuiTi-Regular-31" x="158.999954"/>
       <use xlink:href="#AlibabaPuHuiTi-Regular-36" x="216.499939"/>
       <use xlink:href="#AlibabaPuHuiTi-Regular-20" x="273.999924"/>
       <use xlink:href="#AlibabaPuHuiTi-Regular-31" x="299.699921"/>
       <use xlink:href="#AlibabaPuHuiTi-Regular-32" x="357.199905"/>
      </g>
     </g>
    </g>
    <g id="xtick_2">
     <g id="line2d_3">
      <path d="M 151.686869 384.48 
L 151.686869 51.84 
" clip-path="url(#p1457701c55)" style="fill: none; stroke-dasharray: 2.96,1.28; stroke-dashoffset: 0; stroke: #b0b0b0; stroke-width: 0.8"/>
     </g>
     <g id="line2d_4">
      <g>
       <use xlink:href="#m5ce84a86e5" x="151.686869" y="384.48" style="stroke: #000000; stroke-width: 0.8"/>
      </g>
     </g>
     <g id="text_2">
      <!-- 12-17 00 -->
      <g transform="translate(126.804681 400.6)scale(0.12 -0.12)">
       <defs>
        <path id="AlibabaPuHuiTi-Regular-37" d="M 2784 3942 
L 346 3942 
L 346 4442 
L 3277 4442 
L 3277 3878 
L 1453 0 
L 864 0 
L 2784 3942 
z
" transform="scale(0.015625)"/>
        <path id="AlibabaPuHuiTi-Regular-30" d="M 1837 -64 
Q 1504 -64 1229 35 
Q 954 134 755 390 
Q 557 646 448 1091 
Q 339 1536 339 2221 
Q 339 2906 448 3347 
Q 557 3789 755 4048 
Q 954 4307 1229 4406 
Q 1504 4506 1837 4506 
Q 2170 4506 2448 4406 
Q 2726 4307 2924 4048 
Q 3123 3789 3232 3347 
Q 3341 2906 3341 2221 
Q 3341 1536 3232 1091 
Q 3123 646 2924 390 
Q 2726 134 2448 35 
Q 2170 -64 1837 -64 
z
M 1837 416 
Q 2074 416 2246 496 
Q 2419 576 2534 781 
Q 2650 986 2704 1334 
Q 2758 1683 2758 2221 
Q 2758 2752 2704 3101 
Q 2650 3450 2534 3654 
Q 2419 3859 2246 3939 
Q 2074 4019 1837 4019 
Q 1606 4019 1433 3939 
Q 1261 3859 1149 3654 
Q 1037 3450 982 3101 
Q 928 2752 928 2221 
Q 928 1683 982 1334 
Q 1037 986 1149 781 
Q 1261 576 1433 496 
Q 1606 416 1837 416 
z
" transform="scale(0.015625)"/>
       </defs>
       <use xlink:href="#AlibabaPuHuiTi-Regular-31"/>
       <use xlink:href="#AlibabaPuHuiTi-Regular-32" x="57.499985"/>
       <use xlink:href="#AlibabaPuHuiTi-Regular-2d" x="114.999969"/>
       <use xlink:href="#AlibabaPuHuiTi-Regular-31" x="158.999954"/>
       <use xlink:href="#AlibabaPuHuiTi-Regular-37" x="216.499939"/>
       <use xlink:href="#AlibabaPuHuiTi-Regular-20" x="273.999924"/>
       <use xlink:href="#AlibabaPuHuiTi-Regular-30" x="299.699921"/>
       <use xlink:href="#AlibabaPuHuiTi-Regular-30" x="357.199905"/>
      </g>
     </g>
    </g>
    <g id="xtick_3">
     <g id="line2d_5">
      <path d="M 211.808081 384.48 
L 211.808081 51.84 
" clip-path="url(#p1457701c55)" style="fill: none; stroke-dasharray: 2.96,1.28; stroke-dashoffset: 0; stroke: #b0b0b0; stroke-width: 0.8"/>
     </g>
     <g id="line2d_6">
      <g>
       <use xlink:href="#m5ce84a86e5" x="211.808081" y="384.48" style="stroke: #000000; stroke-width: 0.8"/>
      </g>
     </g>
     <g id="text_3">
      <!-- 12-17 12 -->
      <g transform="translate(186.925893 400.6)scale(0.12 -0.12)">
       <use xlink:href="#AlibabaPuHuiTi-Regular-31"/>
       <use xlink:href="#AlibabaPuHuiTi-Regular-32" x="57.499985"/>
       <use xlink:href="#AlibabaPuHuiTi-Regular-2d" x="114.999969"/>
       <use xlink:href="#AlibabaPuHuiTi-Regular-31" x="158.999954"/>
       <use xlink:href="#AlibabaPuHuiTi-Regular-37" x="216.499939"/>
       <use xlink:href="#AlibabaPuHuiTi-Regular-20" x="273.999924"/>
       <use xlink:href="#AlibabaPuHuiTi-Regular-31" x="299.699921"/>
       <use xlink:href="#AlibabaPuHuiTi-Regular-32" x="357.199905"/>
      </g>
     </g>
    </g>
    <g id="xtick_4">
     <g id="line2d_7">
      <path d="M 271.929293 384.48 
L 271.929293 51.84 
" clip-path="url(#p1457701c55)" style="fill: none; stroke-dasharray: 2.96,1.28; stroke-dashoffset: 0; stroke: #b0b0b0; stroke-width: 0.8"/>
     </g>
     <g id="line2d_8">
      <g>
       <use xlink:href="#m5ce84a86e5" x="271.929293" y="384.48" style="stroke: #000000; stroke-width: 0.8"/>
      </g>
     </g>
     <g id="text_4">
      <!-- 12-18 00 -->
      <g transform="translate(247.047105 400.6)scale(0.12 -0.12)">
       <defs>
        <path id="AlibabaPuHuiTi-Regular-38" d="M 1837 -64 
Q 1120 -64 720 237 
Q 320 538 320 1178 
Q 320 1434 390 1622 
Q 461 1811 573 1942 
Q 685 2074 825 2154 
Q 966 2234 1107 2285 
L 1107 2310 
Q 826 2438 646 2672 
Q 467 2906 467 3322 
Q 467 3584 547 3801 
Q 627 4019 793 4176 
Q 960 4333 1219 4419 
Q 1478 4506 1837 4506 
Q 2195 4506 2454 4419 
Q 2714 4333 2880 4176 
Q 3046 4019 3126 3801 
Q 3206 3584 3206 3322 
Q 3206 2918 3049 2678 
Q 2893 2438 2566 2310 
L 2566 2285 
Q 2726 2234 2870 2154 
Q 3014 2074 3123 1939 
Q 3232 1805 3293 1616 
Q 3354 1427 3354 1171 
Q 3354 531 2957 233 
Q 2560 -64 1837 -64 
z
M 1837 2496 
Q 2074 2496 2237 2557 
Q 2400 2618 2499 2726 
Q 2598 2835 2643 2976 
Q 2688 3117 2688 3283 
Q 2688 3648 2477 3846 
Q 2266 4045 1837 4045 
Q 986 4045 986 3283 
Q 986 3117 1024 2976 
Q 1062 2835 1161 2726 
Q 1261 2618 1424 2557 
Q 1587 2496 1837 2496 
z
M 1837 403 
Q 2362 403 2592 617 
Q 2822 832 2822 1197 
Q 2822 1651 2579 1862 
Q 2336 2074 1837 2074 
Q 1338 2074 1098 1862 
Q 858 1651 858 1197 
Q 858 832 1085 617 
Q 1312 403 1837 403 
z
" transform="scale(0.015625)"/>
       </defs>
       <use xlink:href="#AlibabaPuHuiTi-Regular-31"/>
       <use xlink:href="#AlibabaPuHuiTi-Regular-32" x="57.499985"/>
       <use xlink:href="#AlibabaPuHuiTi-Regular-2d" x="114.999969"/>
       <use xlink:href="#AlibabaPuHuiTi-Regular-31" x="158.999954"/>
       <use xlink:href="#AlibabaPuHuiTi-Regular-38" x="216.499939"/>
       <use xlink:href="#AlibabaPuHuiTi-Regular-20" x="273.999924"/>
       <use xlink:href="#AlibabaPuHuiTi-Regular-30" x="299.699921"/>
       <use xlink:href="#AlibabaPuHuiTi-Regular-30" x="357.199905"/>
      </g>
     </g>
    </g>
    <g id="xtick_5">
     <g id="line2d_9">
      <path d="M 332.050505 384.48 
L 332.050505 51.84 
" clip-path="url(#p1457701c55)" style="fill: none; stroke-dasharray: 2.96,1.28; stroke-dashoffset: 0; stroke: #b0b0b0; stroke-width: 0.8"/>
     </g>
     <g id="line2d_10">
      <g>
       <use xlink:href="#m5ce84a86e5" x="332.050505" y="384.48" style="stroke: #000000; stroke-width: 0.8"/>
      </g>
     </g>
     <g id="text_5">
      <!-- 12-18 12 -->
      <g transform="translate(307.168318 400.6)scale(0.12 -0.12)">
       <use xlink:href="#AlibabaPuHuiTi-Regular-31"/>
       <use xlink:href="#AlibabaPuHuiTi-Regular-32" x="57.499985"/>
       <use xlink:href="#AlibabaPuHuiTi-Regular-2d" x="114.999969"/>
       <use xlink:href="#AlibabaPuHuiTi-Regular-31" x="158.999954"/>
       <use xlink:href="#AlibabaPuHuiTi-Regular-38" x="216.499939"/>
       <use xlink:href="#AlibabaPuHuiTi-Regular-20" x="273.999924"/>
       <use xlink:href="#AlibabaPuHuiTi-Regular-31" x="299.699921"/>
       <use xlink:href="#AlibabaPuHuiTi-Regular-32" x="357.199905"/>
      </g>
     </g>
    </g>
    <g id="xtick_6">
     <g id="line2d_11">
      <path d="M 392.171717 384.48 
L 392.171717 51.84 
" clip-path="url(#p1457701c55)" style="fill: none; stroke-dasharray: 2.96,1.28; stroke-dashoffset: 0; stroke: #b0b0b0; stroke-width: 0.8"/>
     </g>
     <g id="line2d_12">
      <g>
       <use xlink:href="#m5ce84a86e5" x="392.171717" y="384.48" style="stroke: #000000; stroke-width: 0.8"/>
      </g>
     </g>
     <g id="text_6">
      <!-- 12-19 00 -->
      <g transform="translate(367.28953 400.6)scale(0.12 -0.12)">
       <defs>
        <path id="AlibabaPuHuiTi-Regular-39" d="M 922 403 
Q 1344 403 1661 518 
Q 1978 634 2198 838 
Q 2419 1043 2544 1318 
Q 2669 1594 2701 1914 
L 2675 1914 
Q 2554 1779 2304 1664 
Q 2054 1549 1728 1549 
Q 1421 1549 1168 1632 
Q 915 1715 739 1884 
Q 563 2054 464 2320 
Q 365 2586 365 2950 
Q 365 3277 451 3561 
Q 538 3846 717 4054 
Q 896 4262 1171 4384 
Q 1446 4506 1818 4506 
Q 2125 4506 2390 4416 
Q 2656 4326 2854 4115 
Q 3053 3904 3168 3558 
Q 3283 3213 3283 2701 
Q 3283 2080 3148 1568 
Q 3014 1056 2726 691 
Q 2438 326 1990 124 
Q 1542 -77 915 -77 
L 922 403 
z
M 1747 1984 
Q 2266 1984 2506 2224 
Q 2746 2464 2746 2867 
Q 2746 3430 2509 3731 
Q 2272 4032 1818 4032 
Q 1363 4032 1132 3753 
Q 902 3475 902 2950 
Q 902 2451 1139 2217 
Q 1376 1984 1747 1984 
z
" transform="scale(0.015625)"/>
       </defs>
       <use xlink:href="#AlibabaPuHuiTi-Regular-31"/>
       <use xlink:href="#AlibabaPuHuiTi-Regular-32" x="57.499985"/>
       <use xlink:href="#AlibabaPuHuiTi-Regular-2d" x="114.999969"/>
       <use xlink:href="#AlibabaPuHuiTi-Regular-31" x="158.999954"/>
       <use xlink:href="#AlibabaPuHuiTi-Regular-39" x="216.499939"/>
       <use xlink:href="#AlibabaPuHuiTi-Regular-20" x="273.999924"/>
       <use xlink:href="#AlibabaPuHuiTi-Regular-30" x="299.699921"/>
       <use xlink:href="#AlibabaPuHuiTi-Regular-30" x="357.199905"/>
      </g>
     </g>
    </g>
    <g id="xtick_7">
     <g id="line2d_13">
      <path d="M 452.292929 384.48 
L 452.292929 51.84 
" clip-path="url(#p1457701c55)" style="fill: none; stroke-dasharray: 2.96,1.28; stroke-dashoffset: 0; stroke: #b0b0b0; stroke-width: 0.8"/>
     </g>
     <g id="line2d_14">
      <g>
       <use xlink:href="#m5ce84a86e5" x="452.292929" y="384.48" style="stroke: #000000; stroke-width: 0.8"/>
      </g>
     </g>
     <g id="text_7">
      <!-- 12-19 12 -->
      <g transform="translate(427.410742 400.6)scale(0.12 -0.12)">
       <use xlink:href="#AlibabaPuHuiTi-Regular-31"/>
       <use xlink:href="#AlibabaPuHuiTi-Regular-32" x="57.499985"/>
       <use xlink:href="#AlibabaPuHuiTi-Regular-2d" x="114.999969"/>
       <use xlink:href="#AlibabaPuHuiTi-Regular-31" x="158.999954"/>
       <use xlink:href="#AlibabaPuHuiTi-Regular-39" x="216.499939"/>
       <use xlink:href="#AlibabaPuHuiTi-Regular-20" x="273.999924"/>
       <use xlink:href="#AlibabaPuHuiTi-Regular-31" x="299.699921"/>
       <use xlink:href="#AlibabaPuHuiTi-Regular-32" x="357.199905"/>
      </g>
     </g>
    </g>
    <g id="xtick_8">
     <g id="line2d_15">
      <path d="M 512.414141 384.48 
L 512.414141 51.84 
" clip-path="url(#p1457701c55)" style="fill: none; stroke-dasharray: 2.96,1.28; stroke-dashoffset: 0; stroke: #b0b0b0; stroke-width: 0.8"/>
     </g>
     <g id="line2d_16">
      <g>
       <use xlink:href="#m5ce84a86e5" x="512.414141" y="384.48" style="stroke: #000000; stroke-width: 0.8"/>
      </g>
     </g>
     <g id="text_8">
      <!-- 12-20 00 -->
      <g transform="translate(487.531954 400.6)scale(0.12 -0.12)">
       <use xlink:href="#AlibabaPuHuiTi-Regular-31"/>
       <use xlink:href="#AlibabaPuHuiTi-Regular-32" x="57.499985"/>
       <use xlink:href="#AlibabaPuHuiTi-Regular-2d" x="114.999969"/>
       <use xlink:href="#AlibabaPuHuiTi-Regular-32" x="158.999954"/>
       <use xlink:href="#AlibabaPuHuiTi-Regular-30" x="216.499939"/>
       <use xlink:href="#AlibabaPuHuiTi-Regular-20" x="273.999924"/>
       <use xlink:href="#AlibabaPuHuiTi-Regular-30" x="299.699921"/>
       <use xlink:href="#AlibabaPuHuiTi-Regular-30" x="357.199905"/>
      </g>
     </g>
    </g>
    <g id="xtick_9">
     <g id="line2d_17">
      <path d="M 572.535354 384.48 
L 572.535354 51.84 
" clip-path="url(#p1457701c55)" style="fill: none; stroke-dasharray: 2.96,1.28; stroke-dashoffset: 0; stroke: #b0b0b0; stroke-width: 0.8"/>
     </g>
     <g id="line2d_18">
      <g>
       <use xlink:href="#m5ce84a86e5" x="572.535354" y="384.48" style="stroke: #000000; stroke-width: 0.8"/>
      </g>
     </g>
     <g id="text_9">
      <!-- 12-20 12 -->
      <g transform="translate(547.653166 400.6)scale(0.12 -0.12)">
       <use xlink:href="#AlibabaPuHuiTi-Regular-31"/>
       <use xlink:href="#AlibabaPuHuiTi-Regular-32" x="57.499985"/>
       <use xlink:href="#AlibabaPuHuiTi-Regular-2d" x="114.999969"/>
       <use xlink:href="#AlibabaPuHuiTi-Regular-32" x="158.999954"/>
       <use xlink:href="#AlibabaPuHuiTi-Regular-30" x="216.499939"/>
       <use xlink:href="#AlibabaPuHuiTi-Regular-20" x="273.999924"/>
       <use xlink:href="#AlibabaPuHuiTi-Regular-31" x="299.699921"/>
       <use xlink:href="#AlibabaPuHuiTi-Regular-32" x="357.199905"/>
      </g>
     </g>
    </g>
    <g id="xtick_10">
     <g id="line2d_19">
      <path d="M 632.656566 384.48 
L 632.656566 51.84 
" clip-path="url(#p1457701c55)" style="fill: none; stroke-dasharray: 2.96,1.28; stroke-dashoffset: 0; stroke: #b0b0b0; stroke-width: 0.8"/>
     </g>
     <g id="line2d_20">
      <g>
       <use xlink:href="#m5ce84a86e5" x="632.656566" y="384.48" style="stroke: #000000; stroke-width: 0.8"/>
      </g>
     </g>
     <g id="text_10">
      <!-- 12-21 00 -->
      <g transform="translate(607.774378 400.6)scale(0.12 -0.12)">
       <use xlink:href="#AlibabaPuHuiTi-Regular-31"/>
       <use xlink:href="#AlibabaPuHuiTi-Regular-32" x="57.499985"/>
       <use xlink:href="#AlibabaPuHuiTi-Regular-2d" x="114.999969"/>
       <use xlink:href="#AlibabaPuHuiTi-Regular-32" x="158.999954"/>
       <use xlink:href="#AlibabaPuHuiTi-Regular-31" x="216.499939"/>
       <use xlink:href="#AlibabaPuHuiTi-Regular-20" x="273.999924"/>
       <use xlink:href="#AlibabaPuHuiTi-Regular-30" x="299.699921"/>
       <use xlink:href="#AlibabaPuHuiTi-Regular-30" x="357.199905"/>
      </g>
     </g>
    </g>
   </g>
   <g id="matplotlib.axis_2">
    <g id="ytick_1">
     <g id="line2d_21">
      <defs>
       <path id="mf6c742397b" d="M 0 0 
L -3.5 0 
" style="stroke: #000000; stroke-width: 0.8"/>
      </defs>
      <g>
       <use xlink:href="#mf6c742397b" x="90" y="366.239091" style="stroke: #000000; stroke-width: 0.8"/>
      </g>
     </g>
     <g id="text_11">
      <!-- 33℃ -->
      <g transform="translate(58.17125 370.799091)scale(0.12 -0.12)">
       <defs>
        <path id="AlibabaPuHuiTi-Regular-33" d="M 1446 -64 
Q 1178 -64 925 -45 
Q 672 -26 448 19 
L 448 525 
Q 704 461 944 438 
Q 1184 416 1440 416 
Q 1690 416 1904 454 
Q 2118 493 2272 589 
Q 2426 685 2515 841 
Q 2605 998 2605 1229 
Q 2605 1702 2285 1888 
Q 1965 2074 1331 2074 
L 979 2074 
L 979 2515 
L 1325 2515 
Q 1907 2515 2208 2729 
Q 2509 2944 2509 3309 
Q 2509 3699 2275 3865 
Q 2042 4032 1562 4032 
Q 1370 4032 1120 4000 
Q 870 3968 659 3904 
L 659 4378 
Q 826 4429 1078 4467 
Q 1331 4506 1587 4506 
Q 2304 4506 2672 4230 
Q 3040 3955 3040 3341 
Q 3040 2906 2829 2672 
Q 2618 2438 2253 2330 
L 2253 2291 
Q 2726 2208 2940 1936 
Q 3155 1664 3155 1222 
Q 3155 608 2742 272 
Q 2330 -64 1446 -64 
z
" transform="scale(0.015625)"/>
        <path id="AlibabaPuHuiTi-Regular-2103" d="M 4531 -64 
Q 4070 -64 3699 32 
Q 3328 128 3062 381 
Q 2797 634 2653 1078 
Q 2509 1523 2509 2221 
Q 2509 2861 2656 3299 
Q 2803 3738 3072 4006 
Q 3341 4275 3728 4390 
Q 4115 4506 4595 4506 
Q 4902 4506 5129 4474 
Q 5357 4442 5555 4378 
L 5555 3846 
Q 5363 3917 5132 3958 
Q 4902 4000 4608 4000 
Q 4230 4000 3948 3910 
Q 3667 3821 3481 3613 
Q 3296 3405 3203 3069 
Q 3110 2733 3110 2234 
Q 3110 1702 3196 1360 
Q 3283 1018 3459 816 
Q 3635 614 3907 534 
Q 4179 454 4550 454 
Q 4864 454 5107 496 
Q 5350 538 5606 627 
L 5606 128 
Q 5421 45 5145 -9 
Q 4870 -64 4531 -64 
z
M 1158 2432 
Q 947 2432 758 2515 
Q 570 2598 429 2739 
Q 288 2880 208 3069 
Q 128 3258 128 3469 
Q 128 3680 208 3869 
Q 288 4058 429 4195 
Q 570 4333 758 4416 
Q 947 4499 1158 4499 
Q 1370 4499 1558 4416 
Q 1747 4333 1888 4195 
Q 2029 4058 2112 3869 
Q 2195 3680 2195 3469 
Q 2195 3258 2112 3069 
Q 2029 2880 1888 2739 
Q 1747 2598 1558 2515 
Q 1370 2432 1158 2432 
z
M 1158 2918 
Q 1389 2918 1549 3078 
Q 1709 3238 1709 3469 
Q 1709 3693 1549 3853 
Q 1389 4013 1158 4013 
Q 1043 4013 944 3971 
Q 845 3930 771 3856 
Q 698 3782 653 3683 
Q 608 3584 608 3469 
Q 608 3354 653 3254 
Q 698 3155 771 3078 
Q 845 3002 944 2960 
Q 1043 2918 1158 2918 
z
" transform="scale(0.015625)"/>
       </defs>
       <use xlink:href="#AlibabaPuHuiTi-Regular-33"/>
       <use xlink:href="#AlibabaPuHuiTi-Regular-33" x="57.499985"/>
       <use xlink:href="#AlibabaPuHuiTi-Regular-2103" x="114.999969"/>
      </g>
     </g>
    </g>
    <g id="ytick_2">
     <g id="line2d_22">
      <g>
       <use xlink:href="#mf6c742397b" x="90" y="321.904947" style="stroke: #000000; stroke-width: 0.8"/>
      </g>
     </g>
     <g id="text_12">
      <!-- 34℃ -->
      <g transform="translate(58.17125 326.464947)scale(0.12 -0.12)">
       <defs>
        <path id="AlibabaPuHuiTi-Regular-34" d="M 3386 1094 
L 2861 1094 
L 2861 0 
L 2323 0 
L 2323 1094 
L 224 1094 
L 224 1715 
L 2170 4442 
L 2861 4442 
L 2861 1581 
L 3386 1581 
L 3386 1094 
z
M 2323 1581 
L 2323 3853 
L 2285 3853 
L 710 1619 
L 710 1581 
L 2323 1581 
z
" transform="scale(0.015625)"/>
       </defs>
       <use xlink:href="#AlibabaPuHuiTi-Regular-33"/>
       <use xlink:href="#AlibabaPuHuiTi-Regular-34" x="57.499985"/>
       <use xlink:href="#AlibabaPuHuiTi-Regular-2103" x="114.999969"/>
      </g>
     </g>
    </g>
    <g id="ytick_3">
     <g id="line2d_23">
      <g>
       <use xlink:href="#mf6c742397b" x="90" y="277.570803" style="stroke: #000000; stroke-width: 0.8"/>
      </g>
     </g>
     <g id="text_13">
      <!-- 35℃ -->
      <g transform="translate(58.17125 282.130803)scale(0.12 -0.12)">
       <defs>
        <path id="AlibabaPuHuiTi-Regular-35" d="M 1466 -64 
Q 1197 -64 982 -45 
Q 768 -26 550 19 
L 550 525 
Q 800 461 1001 438 
Q 1203 416 1459 416 
Q 1734 416 1961 464 
Q 2189 512 2349 624 
Q 2509 736 2598 918 
Q 2688 1101 2688 1376 
Q 2688 1875 2397 2102 
Q 2106 2330 1414 2330 
Q 1235 2330 1004 2301 
Q 774 2272 563 2234 
L 864 4442 
L 2938 4442 
L 2938 3942 
L 1299 3942 
L 1114 2726 
Q 1235 2746 1356 2755 
Q 1478 2765 1632 2765 
Q 2406 2765 2822 2445 
Q 3238 2125 3238 1414 
Q 3238 1018 3113 739 
Q 2989 461 2758 281 
Q 2528 102 2198 19 
Q 1869 -64 1466 -64 
z
" transform="scale(0.015625)"/>
       </defs>
       <use xlink:href="#AlibabaPuHuiTi-Regular-33"/>
       <use xlink:href="#AlibabaPuHuiTi-Regular-35" x="57.499985"/>
       <use xlink:href="#AlibabaPuHuiTi-Regular-2103" x="114.999969"/>
      </g>
     </g>
    </g>
    <g id="ytick_4">
     <g id="line2d_24">
      <g>
       <use xlink:href="#mf6c742397b" x="90" y="233.236659" style="stroke: #000000; stroke-width: 0.8"/>
      </g>
     </g>
     <g id="text_14">
      <!-- 36℃ -->
      <g transform="translate(58.17125 237.796659)scale(0.12 -0.12)">
       <use xlink:href="#AlibabaPuHuiTi-Regular-33"/>
       <use xlink:href="#AlibabaPuHuiTi-Regular-36" x="57.499985"/>
       <use xlink:href="#AlibabaPuHuiTi-Regular-2103" x="114.999969"/>
      </g>
     </g>
    </g>
    <g id="ytick_5">
     <g id="line2d_25">
      <g>
       <use xlink:href="#mf6c742397b" x="90" y="188.902514" style="stroke: #000000; stroke-width: 0.8"/>
      </g>
     </g>
     <g id="text_15">
      <!-- 37℃ -->
      <g transform="translate(58.17125 193.462514)scale(0.12 -0.12)">
       <use xlink:href="#AlibabaPuHuiTi-Regular-33"/>
       <use xlink:href="#AlibabaPuHuiTi-Regular-37" x="57.499985"/>
       <use xlink:href="#AlibabaPuHuiTi-Regular-2103" x="114.999969"/>
      </g>
     </g>
    </g>
    <g id="ytick_6">
     <g id="line2d_26">
      <g>
       <use xlink:href="#mf6c742397b" x="90" y="144.56837" style="stroke: #000000; stroke-width: 0.8"/>
      </g>
     </g>
     <g id="text_16">
      <!-- 38℃ -->
      <g transform="translate(58.17125 149.12837)scale(0.12 -0.12)">
       <use xlink:href="#AlibabaPuHuiTi-Regular-33"/>
       <use xlink:href="#AlibabaPuHuiTi-Regular-38" x="57.499985"/>
       <use xlink:href="#AlibabaPuHuiTi-Regular-2103" x="114.999969"/>
      </g>
     </g>
    </g>
    <g id="ytick_7">
     <g id="line2d_27">
      <g>
       <use xlink:href="#mf6c742397b" x="90" y="100.234226" style="stroke: #000000; stroke-width: 0.8"/>
      </g>
     </g>
     <g id="text_17">
      <!-- 39℃ -->
      <g transform="translate(58.17125 104.794226)scale(0.12 -0.12)">
       <use xlink:href="#AlibabaPuHuiTi-Regular-33"/>
       <use xlink:href="#AlibabaPuHuiTi-Regular-39" x="57.499985"/>
       <use xlink:href="#AlibabaPuHuiTi-Regular-2103" x="114.999969"/>
      </g>
     </g>
    </g>
   </g>
   <g id="line2d_28">
    <path d="M 115.363636 113.534469 
L 118.202694 120.778654 
L 120.958249 127.202947 
L 123.546801 132.693365 
L 126.051852 137.504415 
L 128.473401 141.685498 
L 130.811448 145.284372 
L 133.065993 148.347144 
L 135.237037 150.918277 
L 137.324579 153.040586 
L 139.32862 154.75524 
L 141.249158 156.101762 
L 143.086195 157.118025 
L 144.839731 157.840259 
L 146.593266 158.320422 
L 148.2633 158.552663 
L 149.933333 158.565339 
L 151.603367 158.358448 
L 153.273401 157.931991 
L 155.026936 157.247902 
L 156.780471 156.321742 
L 158.617508 155.091841 
L 160.454545 153.596265 
L 162.375084 151.748644 
L 164.379125 149.511104 
L 166.466667 146.844121 
L 168.63771 143.706528 
L 170.892256 140.055509 
L 173.230303 135.846602 
L 175.902357 130.543652 
L 178.156902 126.292483 
L 180.327946 122.658121 
L 182.415488 119.588563 
L 184.419529 117.033807 
L 186.340067 114.945851 
L 188.177104 113.278691 
L 189.93064 111.988326 
L 191.600673 111.032754 
L 193.187205 110.371973 
L 194.773737 109.95187 
L 196.276768 109.775889 
L 197.779798 109.815919 
L 199.282828 110.071959 
L 200.86936 110.576569 
L 202.455892 111.321857 
L 204.125926 112.366384 
L 205.79596 113.677591 
L 207.549495 115.341372 
L 209.386532 117.39973 
L 211.307071 119.896666 
L 213.311111 122.878184 
L 215.398653 126.392285 
L 217.569697 130.488972 
L 219.824242 135.220247 
L 222.16229 140.640114 
L 224.66734 147.027142 
L 228.007407 155.665994 
L 229.677441 159.253915 
L 231.263973 162.169989 
L 232.767003 164.489976 
L 234.186532 166.285652 
L 235.522559 167.624804 
L 236.775084 168.57123 
L 237.944108 169.184743 
L 239.02963 169.521166 
L 240.115152 169.632963 
L 241.200673 169.520133 
L 242.286195 169.182676 
L 243.371717 168.620591 
L 244.540741 167.76406 
L 245.793266 166.557256 
L 247.129293 164.940369 
L 248.548822 162.849598 
L 250.051852 160.217158 
L 251.387879 157.868214 
L 251.972391 157.340968 
L 252.473401 157.176683 
L 252.974411 157.277911 
L 253.475421 157.644653 
L 254.059933 158.408099 
L 254.727946 159.723131 
L 255.479461 161.766759 
L 256.314478 164.738118 
L 257.232997 168.85847 
L 258.235017 174.371202 
L 259.237037 179.922683 
L 259.738047 181.497779 
L 260.155556 182.133778 
L 260.406061 182.220143 
L 260.656566 182.085081 
L 260.990572 181.560558 
L 261.408081 180.351338 
L 261.909091 178.088378 
L 262.493603 174.328825 
L 263.662626 166.092197 
L 263.82963 166.001027 
L 263.996633 166.284768 
L 264.247138 167.413341 
L 264.581145 170.230297 
L 264.998653 175.860374 
L 268.004714 224.789004 
L 270.092256 254.605378 
L 272.012795 278.998599 
L 273.849832 299.607092 
L 275.603367 316.794079 
L 277.189899 330.25294 
L 278.692929 341.170829 
L 280.028956 349.378711 
L 281.281481 355.794074 
L 282.450505 360.664568 
L 283.452525 363.980756 
L 284.371044 366.324423 
L 285.206061 367.877179 
L 285.957576 368.804124 
L 286.542088 369.216894 
L 287.126599 369.36 
L 287.627609 369.268032 
L 288.212121 368.910335 
L 288.796633 368.282974 
L 289.464646 367.23579 
L 290.216162 365.636702 
L 291.051178 363.33712 
L 292.053199 359.851182 
L 293.138721 355.180456 
L 295.309764 344.322978 
L 299.484848 322.491692 
L 303.743434 299.014342 
L 308.085522 273.819079 
L 312.511111 246.832646 
L 317.103704 217.433164 
L 321.779798 186.039649 
L 325.119865 163.737918 
L 326.121886 158.887114 
L 327.040404 155.53238 
L 327.791919 153.564397 
L 328.459933 152.401995 
L 328.960943 151.8927 
L 329.461953 151.694125 
L 329.879461 151.766001 
L 330.29697 152.053655 
L 330.79798 152.683667 
L 331.382492 153.811396 
L 333.80404 159.254453 
L 334.722559 160.625148 
L 335.557576 161.522742 
L 336.309091 162.046804 
L 337.060606 162.302028 
L 337.812121 162.309937 
L 340.651178 162.281481 
L 346.746801 162.368097 
L 349.001347 162.027935 
L 351.255892 161.457399 
L 353.510438 160.656489 
L 358.854545 158.588705 
L 361.359596 157.965105 
L 363.53064 157.631245 
L 364.282155 157.742938 
L 365.03367 158.091507 
L 365.868687 158.756626 
L 366.703704 159.714185 
L 367.622222 161.105269 
L 368.624242 163.026384 
L 369.793266 165.781768 
L 371.713805 170.236822 
L 373.550842 173.948222 
L 375.304377 176.989295 
L 376.890909 179.318553 
L 378.393939 181.155248 
L 381.065993 184.225259 
L 382.40202 186.287487 
L 383.821549 188.902514 
L 385.324579 192.147414 
L 386.994613 196.305997 
L 388.915152 200.917918 
L 390.752189 204.769319 
L 392.505724 207.934866 
L 394.175758 210.485832 
L 395.678788 212.394792 
L 397.098316 213.861131 
L 398.434343 214.942547 
L 399.686869 215.693343 
L 400.939394 216.189593 
L 402.108418 216.423102 
L 403.277441 216.434873 
L 404.446465 216.224906 
L 405.615488 215.7932 
L 406.868013 215.084597 
L 408.120539 214.121447 
L 409.456566 212.81352 
L 410.876094 211.106514 
L 412.379125 208.94273 
L 413.965657 206.261078 
L 415.63569 202.997073 
L 417.389226 199.082835 
L 419.309764 194.223366 
L 422.482828 185.98466 
L 424.904377 180.387101 
L 427.158923 175.719156 
L 429.329966 171.719499 
L 431.417508 168.332047 
L 433.421549 165.502874 
L 435.342088 163.180211 
L 437.095623 161.391703 
L 438.849158 159.920282 
L 440.519192 158.813724 
L 442.105724 158.028889 
L 443.608754 157.524793 
L 445.111785 157.253658 
L 446.614815 157.215484 
L 448.117845 157.410271 
L 449.620875 157.838019 
L 451.123906 158.498728 
L 452.710438 159.448876 
L 454.29697 160.406012 
L 454.881481 160.407773 
L 455.465993 160.170499 
L 456.050505 159.69419 
L 456.718519 158.857141 
L 457.470034 157.542273 
L 458.305051 155.617873 
L 459.223569 152.937592 
L 460.225589 149.340449 
L 461.394613 144.255937 
L 462.647138 137.747222 
L 463.983165 129.594782 
L 465.402694 119.56446 
L 466.989226 106.685732 
L 468.659259 91.226651 
L 470.078788 78.288382 
L 470.913805 72.886806 
L 471.581818 69.814359 
L 472.16633 68.036562 
L 472.66734 67.189176 
L 473.001347 66.971146 
L 473.335354 67.03063 
L 473.66936 67.367628 
L 474.086869 68.17913 
L 474.587879 69.725306 
L 475.172391 72.318359 
L 475.840404 76.322527 
L 476.591919 82.154082 
L 477.510438 91.189448 
L 478.512458 103.439772 
L 479.59798 119.529461 
L 480.767003 140.134956 
L 482.353535 168.468668 
L 483.105051 177.465611 
L 483.773064 182.860124 
L 484.274074 185.298415 
L 484.608081 186.158421 
L 484.858586 186.401527 
L 485.025589 186.372218 
L 485.276094 186.041184 
L 485.610101 185.06394 
L 486.027609 182.981175 
L 488.699663 166.618569 
L 489.952189 160.789503 
L 491.03771 156.709239 
L 492.039731 153.743605 
L 492.958249 151.700418 
L 493.709764 150.509177 
L 494.377778 149.813309 
L 494.96229 149.484692 
L 495.546801 149.417657 
L 496.131313 149.612205 
L 496.715825 150.068336 
L 497.383838 150.909934 
L 498.97037 153.563323 
L 502.477441 159.170078 
L 505.90101 164.226031 
L 509.241077 168.761352 
L 512.497643 172.805469 
L 515.587205 176.297363 
L 518.593266 179.372613 
L 521.599327 182.130008 
L 524.521886 184.506076 
L 527.360943 186.526569 
L 530.116498 188.216503 
L 532.788552 189.600159 
L 535.460606 190.732671 
L 538.049158 191.590545 
L 540.804714 192.265458 
L 543.560269 192.707006 
L 546.232323 192.91231 
L 548.904377 192.898179 
L 551.576431 192.664612 
L 554.248485 192.21161 
L 557.00404 191.514623 
L 559.759596 190.584272 
L 562.515152 189.420556 
L 565.354209 187.977497 
L 568.193266 186.286716 
L 571.115825 184.287448 
L 574.121886 181.957193 
L 577.294949 179.205963 
L 579.215488 177.681417 
L 581.052525 176.504364 
L 582.806061 175.63731 
L 584.559596 175.020788 
L 586.22963 174.666543 
L 587.899663 174.539538 
L 589.569697 174.639772 
L 599.172391 176.012519 
L 610.612121 177.855526 
L 622.051852 179.923947 
L 622.636364 180.035686 
L 622.636364 180.035686 
" clip-path="url(#p1457701c55)" style="fill: none; stroke: #92c6ff; stroke-width: 1.5; stroke-linecap: square"/>
   </g>
   <g id="line2d_29">
    <path d="M 115.363636 188.902514 
L 622.636364 188.902514 
" clip-path="url(#p1457701c55)" style="fill: none; stroke: #97f0aa; stroke-width: 1.5; stroke-linecap: square"/>
   </g>
   <g id="patch_3">
    <path d="M 90 384.48 
L 90 51.84 
" style="fill: none; stroke: #000000; stroke-width: 0.8; stroke-linejoin: miter; stroke-linecap: square"/>
   </g>
   <g id="patch_4">
    <path d="M 648 384.48 
L 648 51.84 
" style="fill: none; stroke: #000000; stroke-width: 0.8; stroke-linejoin: miter; stroke-linecap: square"/>
   </g>
   <g id="patch_5">
    <path d="M 90 384.48 
L 648 384.48 
" style="fill: none; stroke: #000000; stroke-width: 0.8; stroke-linejoin: miter; stroke-linecap: square"/>
   </g>
   <g id="patch_6">
    <path d="M 90 51.84 
L 648 51.84 
" style="fill: none; stroke: #000000; stroke-width: 0.8; stroke-linejoin: miter; stroke-linecap: square"/>
   </g>
  </g>
 </g>
 <defs>
  <clipPath id="p1457701c55">
   <rect x="90" y="51.84" width="558" height="332.64"/>
  </clipPath>
 </defs>
</svg>
