<?xml version="1.0" encoding="utf-8" standalone="no"?>
<!DOCTYPE svg PUBLIC "-//W3C//DTD SVG 1.1//EN"
  "http://www.w3.org/Graphics/SVG/1.1/DTD/svg11.dtd">
<svg xmlns:xlink="http://www.w3.org/1999/xlink" width="720pt" height="432pt" viewBox="0 0 720 432" xmlns="http://www.w3.org/2000/svg" version="1.1">
 <metadata>
  <rdf:RDF xmlns:dc="http://purl.org/dc/elements/1.1/" xmlns:cc="http://creativecommons.org/ns#" xmlns:rdf="http://www.w3.org/1999/02/22-rdf-syntax-ns#">
   <cc:Work>
    <dc:type rdf:resource="http://purl.org/dc/dcmitype/StillImage"/>
    <dc:date>2022-12-22T20:55:35.758246</dc:date>
    <dc:format>image/svg+xml</dc:format>
    <dc:creator>
     <cc:Agent>
      <dc:title>Matplotlib v3.5.2, https://matplotlib.org/</dc:title>
     </cc:Agent>
    </dc:creator>
   </cc:Work>
  </rdf:RDF>
 </metadata>
 <defs>
  <style type="text/css">*{stroke-linejoin: round; stroke-linecap: butt}</style>
 </defs>
 <g id="figure_1">
  <g id="patch_1">
   <path d="M 0 432 
L 720 432 
L 720 0 
L 0 0 
z
" style="fill: #ffffff"/>
  </g>
  <g id="axes_1">
   <g id="patch_2">
    <path d="M 90 384.48 
L 648 384.48 
L 648 51.84 
L 90 51.84 
z
" style="fill: #ffffff"/>
   </g>
   <g id="PathCollection_1">
    <defs>
     <path id="m3629bb3c32" d="M 0 1.936492 
C 0.513564 1.936492 1.006162 1.732451 1.369306 1.369306 
C 1.732451 1.006162 1.936492 0.513564 1.936492 0 
C 1.936492 -0.513564 1.732451 -1.006162 1.369306 -1.369306 
C 1.006162 -1.732451 0.513564 -1.936492 0 -1.936492 
C -0.513564 -1.936492 -1.006162 -1.732451 -1.369306 -1.369306 
C -1.732451 -1.006162 -1.936492 -0.513564 -1.936492 0 
C -1.936492 0.513564 -1.732451 1.006162 -1.369306 1.369306 
C -1.006162 1.732451 -0.513564 1.936492 0 1.936492 
z
" style="stroke: #ff9900"/>
    </defs>
    <g clip-path="url(#pdcd8bfce36)">
     <use xlink:href="#m3629bb3c32" x="115.363636" y="113.534469" style="fill: #ff9900; stroke: #ff9900"/>
     <use xlink:href="#m3629bb3c32" x="135.570067" y="157.868614" style="fill: #ff9900; stroke: #ff9900"/>
     <use xlink:href="#m3629bb3c32" x="177.067453" y="113.534469" style="fill: #ff9900; stroke: #ff9900"/>
     <use xlink:href="#m3629bb3c32" x="204.408922" y="166.735442" style="fill: #ff9900; stroke: #ff9900"/>
     <use xlink:href="#m3629bb3c32" x="211.258559" y="162.302028" style="fill: #ff9900; stroke: #ff9900"/>
     <use xlink:href="#m3629bb3c32" x="215.254181" y="180.035686" style="fill: #ff9900; stroke: #ff9900"/>
     <use xlink:href="#m3629bb3c32" x="217.423233" y="171.168857" style="fill: #ff9900; stroke: #ff9900"/>
     <use xlink:href="#m3629bb3c32" x="217.994036" y="184.4691" style="fill: #ff9900; stroke: #ff9900"/>
     <use xlink:href="#m3629bb3c32" x="256.180765" y="188.902514" style="fill: #ff9900; stroke: #ff9900"/>
     <use xlink:href="#m3629bb3c32" x="259.605583" y="157.868614" style="fill: #ff9900; stroke: #ff9900"/>
     <use xlink:href="#m3629bb3c32" x="266.911863" y="162.302028" style="fill: #ff9900; stroke: #ff9900"/>
     <use xlink:href="#m3629bb3c32" x="267.539747" y="162.302028" style="fill: #ff9900; stroke: #ff9900"/>
     <use xlink:href="#m3629bb3c32" x="273.932741" y="162.302028" style="fill: #ff9900; stroke: #ff9900"/>
     <use xlink:href="#m3629bb3c32" x="283.864716" y="157.868614" style="fill: #ff9900; stroke: #ff9900"/>
     <use xlink:href="#m3629bb3c32" x="285.748366" y="157.868614" style="fill: #ff9900; stroke: #ff9900"/>
     <use xlink:href="#m3629bb3c32" x="292.483843" y="175.602271" style="fill: #ff9900; stroke: #ff9900"/>
     <use xlink:href="#m3629bb3c32" x="298.876837" y="188.902514" style="fill: #ff9900; stroke: #ff9900"/>
     <use xlink:href="#m3629bb3c32" x="302.758299" y="202.202758" style="fill: #ff9900; stroke: #ff9900"/>
     <use xlink:href="#m3629bb3c32" x="343.913203" y="157.868614" style="fill: #ff9900; stroke: #ff9900"/>
     <use xlink:href="#m3629bb3c32" x="349.107511" y="157.868614" style="fill: #ff9900; stroke: #ff9900"/>
     <use xlink:href="#m3629bb3c32" x="365.147079" y="140.134956" style="fill: #ff9900; stroke: #ff9900"/>
     <use xlink:href="#m3629bb3c32" x="365.774962" y="157.868614" style="fill: #ff9900; stroke: #ff9900"/>
     <use xlink:href="#m3629bb3c32" x="371.939636" y="157.868614" style="fill: #ff9900; stroke: #ff9900"/>
     <use xlink:href="#m3629bb3c32" x="381.414968" y="162.302028" style="fill: #ff9900; stroke: #ff9900"/>
     <use xlink:href="#m3629bb3c32" x="426.736735" y="184.4691" style="fill: #ff9900; stroke: #ff9900"/>
     <use xlink:href="#m3629bb3c32" x="434.9563" y="175.602271" style="fill: #ff9900; stroke: #ff9900"/>
     <use xlink:href="#m3629bb3c32" x="444.20331" y="175.602271" style="fill: #ff9900; stroke: #ff9900"/>
     <use xlink:href="#m3629bb3c32" x="462.126528" y="180.035686" style="fill: #ff9900; stroke: #ff9900"/>
     <use xlink:href="#m3629bb3c32" x="510.18815" y="180.035686" style="fill: #ff9900; stroke: #ff9900"/>
     <use xlink:href="#m3629bb3c32" x="622.636364" y="184.4691" style="fill: #ff9900; stroke: #ff9900"/>
    </g>
   </g>
   <g id="matplotlib.axis_1">
    <g id="xtick_1">
     <g id="line2d_1">
      <path d="M 140.193572 384.48 
L 140.193572 51.84 
" clip-path="url(#pdcd8bfce36)" style="fill: none; stroke-dasharray: 2.96,1.28; stroke-dashoffset: 0; stroke: #b0b0b0; stroke-width: 0.8"/>
     </g>
     <g id="line2d_2">
      <defs>
       <path id="mc65b85010c" d="M 0 0 
L 0 3.5 
" style="stroke: #000000; stroke-width: 0.8"/>
      </defs>
      <g>
       <use xlink:href="#mc65b85010c" x="140.193572" y="384.48" style="stroke: #000000; stroke-width: 0.8"/>
      </g>
     </g>
     <g id="text_1">
      <!-- 2022-12-17 -->
      <g transform="translate(107.313572 400.6)scale(0.12 -0.12)">
       <defs>
        <path id="AlibabaPuHuiTi-Regular-32" d="M 365 608 
Q 1075 1165 1504 1555 
Q 1933 1946 2169 2240 
Q 2406 2534 2483 2768 
Q 2560 3002 2560 3238 
Q 2560 3475 2473 3628 
Q 2387 3782 2252 3872 
Q 2118 3962 1948 3994 
Q 1779 4026 1619 4026 
Q 1408 4026 1171 4003 
Q 934 3981 672 3910 
L 672 4403 
Q 896 4454 1149 4480 
Q 1402 4506 1683 4506 
Q 2010 4506 2272 4435 
Q 2534 4365 2723 4211 
Q 2912 4058 3011 3814 
Q 3110 3571 3110 3232 
Q 3110 2931 3020 2665 
Q 2931 2400 2720 2115 
Q 2509 1830 2150 1500 
Q 1792 1171 1254 742 
L 998 544 
L 998 486 
L 3290 486 
L 3290 0 
L 365 0 
L 365 608 
z
" transform="scale(0.015625)"/>
        <path id="AlibabaPuHuiTi-Regular-30" d="M 1837 -64 
Q 1504 -64 1229 35 
Q 954 134 755 390 
Q 557 646 448 1091 
Q 339 1536 339 2221 
Q 339 2906 448 3347 
Q 557 3789 755 4048 
Q 954 4307 1229 4406 
Q 1504 4506 1837 4506 
Q 2170 4506 2448 4406 
Q 2726 4307 2924 4048 
Q 3123 3789 3232 3347 
Q 3341 2906 3341 2221 
Q 3341 1536 3232 1091 
Q 3123 646 2924 390 
Q 2726 134 2448 35 
Q 2170 -64 1837 -64 
z
M 1837 416 
Q 2074 416 2246 496 
Q 2419 576 2534 781 
Q 2650 986 2704 1334 
Q 2758 1683 2758 2221 
Q 2758 2752 2704 3101 
Q 2650 3450 2534 3654 
Q 2419 3859 2246 3939 
Q 2074 4019 1837 4019 
Q 1606 4019 1433 3939 
Q 1261 3859 1149 3654 
Q 1037 3450 982 3101 
Q 928 2752 928 2221 
Q 928 1683 982 1334 
Q 1037 986 1149 781 
Q 1261 576 1433 496 
Q 1606 416 1837 416 
z
" transform="scale(0.015625)"/>
        <path id="AlibabaPuHuiTi-Regular-2d" d="M 461 2195 
L 2349 2195 
L 2349 1734 
L 461 1734 
L 461 2195 
z
" transform="scale(0.015625)"/>
        <path id="AlibabaPuHuiTi-Regular-31" d="M 1747 3917 
L 646 3706 
L 646 4173 
L 1946 4442 
L 2323 4442 
L 2323 0 
L 1747 0 
L 1747 3917 
z
" transform="scale(0.015625)"/>
        <path id="AlibabaPuHuiTi-Regular-37" d="M 2784 3942 
L 346 3942 
L 346 4442 
L 3277 4442 
L 3277 3878 
L 1453 0 
L 864 0 
L 2784 3942 
z
" transform="scale(0.015625)"/>
       </defs>
       <use xlink:href="#AlibabaPuHuiTi-Regular-32"/>
       <use xlink:href="#AlibabaPuHuiTi-Regular-30" x="57.499985"/>
       <use xlink:href="#AlibabaPuHuiTi-Regular-32" x="114.999969"/>
       <use xlink:href="#AlibabaPuHuiTi-Regular-32" x="172.499954"/>
       <use xlink:href="#AlibabaPuHuiTi-Regular-2d" x="229.999939"/>
       <use xlink:href="#AlibabaPuHuiTi-Regular-31" x="273.999924"/>
       <use xlink:href="#AlibabaPuHuiTi-Regular-32" x="331.499908"/>
       <use xlink:href="#AlibabaPuHuiTi-Regular-2d" x="388.999893"/>
       <use xlink:href="#AlibabaPuHuiTi-Regular-31" x="432.999878"/>
       <use xlink:href="#AlibabaPuHuiTi-Regular-37" x="490.499863"/>
      </g>
     </g>
    </g>
    <g id="xtick_2">
     <g id="line2d_3">
      <path d="M 222.38922 384.48 
L 222.38922 51.84 
" clip-path="url(#pdcd8bfce36)" style="fill: none; stroke-dasharray: 2.96,1.28; stroke-dashoffset: 0; stroke: #b0b0b0; stroke-width: 0.8"/>
     </g>
     <g id="line2d_4">
      <g>
       <use xlink:href="#mc65b85010c" x="222.38922" y="384.48" style="stroke: #000000; stroke-width: 0.8"/>
      </g>
     </g>
     <g id="text_2">
      <!-- 2022-12-18 -->
      <g transform="translate(189.50922 400.6)scale(0.12 -0.12)">
       <defs>
        <path id="AlibabaPuHuiTi-Regular-38" d="M 1837 -64 
Q 1120 -64 720 237 
Q 320 538 320 1178 
Q 320 1434 390 1622 
Q 461 1811 573 1942 
Q 685 2074 825 2154 
Q 966 2234 1107 2285 
L 1107 2310 
Q 826 2438 646 2672 
Q 467 2906 467 3322 
Q 467 3584 547 3801 
Q 627 4019 793 4176 
Q 960 4333 1219 4419 
Q 1478 4506 1837 4506 
Q 2195 4506 2454 4419 
Q 2714 4333 2880 4176 
Q 3046 4019 3126 3801 
Q 3206 3584 3206 3322 
Q 3206 2918 3049 2678 
Q 2893 2438 2566 2310 
L 2566 2285 
Q 2726 2234 2870 2154 
Q 3014 2074 3123 1939 
Q 3232 1805 3293 1616 
Q 3354 1427 3354 1171 
Q 3354 531 2957 233 
Q 2560 -64 1837 -64 
z
M 1837 2496 
Q 2074 2496 2237 2557 
Q 2400 2618 2499 2726 
Q 2598 2835 2643 2976 
Q 2688 3117 2688 3283 
Q 2688 3648 2477 3846 
Q 2266 4045 1837 4045 
Q 986 4045 986 3283 
Q 986 3117 1024 2976 
Q 1062 2835 1161 2726 
Q 1261 2618 1424 2557 
Q 1587 2496 1837 2496 
z
M 1837 403 
Q 2362 403 2592 617 
Q 2822 832 2822 1197 
Q 2822 1651 2579 1862 
Q 2336 2074 1837 2074 
Q 1338 2074 1098 1862 
Q 858 1651 858 1197 
Q 858 832 1085 617 
Q 1312 403 1837 403 
z
" transform="scale(0.015625)"/>
       </defs>
       <use xlink:href="#AlibabaPuHuiTi-Regular-32"/>
       <use xlink:href="#AlibabaPuHuiTi-Regular-30" x="57.499985"/>
       <use xlink:href="#AlibabaPuHuiTi-Regular-32" x="114.999969"/>
       <use xlink:href="#AlibabaPuHuiTi-Regular-32" x="172.499954"/>
       <use xlink:href="#AlibabaPuHuiTi-Regular-2d" x="229.999939"/>
       <use xlink:href="#AlibabaPuHuiTi-Regular-31" x="273.999924"/>
       <use xlink:href="#AlibabaPuHuiTi-Regular-32" x="331.499908"/>
       <use xlink:href="#AlibabaPuHuiTi-Regular-2d" x="388.999893"/>
       <use xlink:href="#AlibabaPuHuiTi-Regular-31" x="432.999878"/>
       <use xlink:href="#AlibabaPuHuiTi-Regular-38" x="490.499863"/>
      </g>
     </g>
    </g>
    <g id="xtick_3">
     <g id="line2d_5">
      <path d="M 304.584869 384.48 
L 304.584869 51.84 
" clip-path="url(#pdcd8bfce36)" style="fill: none; stroke-dasharray: 2.96,1.28; stroke-dashoffset: 0; stroke: #b0b0b0; stroke-width: 0.8"/>
     </g>
     <g id="line2d_6">
      <g>
       <use xlink:href="#mc65b85010c" x="304.584869" y="384.48" style="stroke: #000000; stroke-width: 0.8"/>
      </g>
     </g>
     <g id="text_3">
      <!-- 2022-12-19 -->
      <g transform="translate(271.704869 400.6)scale(0.12 -0.12)">
       <defs>
        <path id="AlibabaPuHuiTi-Regular-39" d="M 922 403 
Q 1344 403 1661 518 
Q 1978 634 2198 838 
Q 2419 1043 2544 1318 
Q 2669 1594 2701 1914 
L 2675 1914 
Q 2554 1779 2304 1664 
Q 2054 1549 1728 1549 
Q 1421 1549 1168 1632 
Q 915 1715 739 1884 
Q 563 2054 464 2320 
Q 365 2586 365 2950 
Q 365 3277 451 3561 
Q 538 3846 717 4054 
Q 896 4262 1171 4384 
Q 1446 4506 1818 4506 
Q 2125 4506 2390 4416 
Q 2656 4326 2854 4115 
Q 3053 3904 3168 3558 
Q 3283 3213 3283 2701 
Q 3283 2080 3148 1568 
Q 3014 1056 2726 691 
Q 2438 326 1990 124 
Q 1542 -77 915 -77 
L 922 403 
z
M 1747 1984 
Q 2266 1984 2506 2224 
Q 2746 2464 2746 2867 
Q 2746 3430 2509 3731 
Q 2272 4032 1818 4032 
Q 1363 4032 1132 3753 
Q 902 3475 902 2950 
Q 902 2451 1139 2217 
Q 1376 1984 1747 1984 
z
" transform="scale(0.015625)"/>
       </defs>
       <use xlink:href="#AlibabaPuHuiTi-Regular-32"/>
       <use xlink:href="#AlibabaPuHuiTi-Regular-30" x="57.499985"/>
       <use xlink:href="#AlibabaPuHuiTi-Regular-32" x="114.999969"/>
       <use xlink:href="#AlibabaPuHuiTi-Regular-32" x="172.499954"/>
       <use xlink:href="#AlibabaPuHuiTi-Regular-2d" x="229.999939"/>
       <use xlink:href="#AlibabaPuHuiTi-Regular-31" x="273.999924"/>
       <use xlink:href="#AlibabaPuHuiTi-Regular-32" x="331.499908"/>
       <use xlink:href="#AlibabaPuHuiTi-Regular-2d" x="388.999893"/>
       <use xlink:href="#AlibabaPuHuiTi-Regular-31" x="432.999878"/>
       <use xlink:href="#AlibabaPuHuiTi-Regular-39" x="490.499863"/>
      </g>
     </g>
    </g>
    <g id="xtick_4">
     <g id="line2d_7">
      <path d="M 386.780517 384.48 
L 386.780517 51.84 
" clip-path="url(#pdcd8bfce36)" style="fill: none; stroke-dasharray: 2.96,1.28; stroke-dashoffset: 0; stroke: #b0b0b0; stroke-width: 0.8"/>
     </g>
     <g id="line2d_8">
      <g>
       <use xlink:href="#mc65b85010c" x="386.780517" y="384.48" style="stroke: #000000; stroke-width: 0.8"/>
      </g>
     </g>
     <g id="text_4">
      <!-- 2022-12-20 -->
      <g transform="translate(353.900517 400.6)scale(0.12 -0.12)">
       <use xlink:href="#AlibabaPuHuiTi-Regular-32"/>
       <use xlink:href="#AlibabaPuHuiTi-Regular-30" x="57.499985"/>
       <use xlink:href="#AlibabaPuHuiTi-Regular-32" x="114.999969"/>
       <use xlink:href="#AlibabaPuHuiTi-Regular-32" x="172.499954"/>
       <use xlink:href="#AlibabaPuHuiTi-Regular-2d" x="229.999939"/>
       <use xlink:href="#AlibabaPuHuiTi-Regular-31" x="273.999924"/>
       <use xlink:href="#AlibabaPuHuiTi-Regular-32" x="331.499908"/>
       <use xlink:href="#AlibabaPuHuiTi-Regular-2d" x="388.999893"/>
       <use xlink:href="#AlibabaPuHuiTi-Regular-32" x="432.999878"/>
       <use xlink:href="#AlibabaPuHuiTi-Regular-30" x="490.499863"/>
      </g>
     </g>
    </g>
    <g id="xtick_5">
     <g id="line2d_9">
      <path d="M 468.976165 384.48 
L 468.976165 51.84 
" clip-path="url(#pdcd8bfce36)" style="fill: none; stroke-dasharray: 2.96,1.28; stroke-dashoffset: 0; stroke: #b0b0b0; stroke-width: 0.8"/>
     </g>
     <g id="line2d_10">
      <g>
       <use xlink:href="#mc65b85010c" x="468.976165" y="384.48" style="stroke: #000000; stroke-width: 0.8"/>
      </g>
     </g>
     <g id="text_5">
      <!-- 2022-12-21 -->
      <g transform="translate(436.096165 400.6)scale(0.12 -0.12)">
       <use xlink:href="#AlibabaPuHuiTi-Regular-32"/>
       <use xlink:href="#AlibabaPuHuiTi-Regular-30" x="57.499985"/>
       <use xlink:href="#AlibabaPuHuiTi-Regular-32" x="114.999969"/>
       <use xlink:href="#AlibabaPuHuiTi-Regular-32" x="172.499954"/>
       <use xlink:href="#AlibabaPuHuiTi-Regular-2d" x="229.999939"/>
       <use xlink:href="#AlibabaPuHuiTi-Regular-31" x="273.999924"/>
       <use xlink:href="#AlibabaPuHuiTi-Regular-32" x="331.499908"/>
       <use xlink:href="#AlibabaPuHuiTi-Regular-2d" x="388.999893"/>
       <use xlink:href="#AlibabaPuHuiTi-Regular-32" x="432.999878"/>
       <use xlink:href="#AlibabaPuHuiTi-Regular-31" x="490.499863"/>
      </g>
     </g>
    </g>
    <g id="xtick_6">
     <g id="line2d_11">
      <path d="M 551.171814 384.48 
L 551.171814 51.84 
" clip-path="url(#pdcd8bfce36)" style="fill: none; stroke-dasharray: 2.96,1.28; stroke-dashoffset: 0; stroke: #b0b0b0; stroke-width: 0.8"/>
     </g>
     <g id="line2d_12">
      <g>
       <use xlink:href="#mc65b85010c" x="551.171814" y="384.48" style="stroke: #000000; stroke-width: 0.8"/>
      </g>
     </g>
     <g id="text_6">
      <!-- 2022-12-22 -->
      <g transform="translate(518.291814 400.6)scale(0.12 -0.12)">
       <use xlink:href="#AlibabaPuHuiTi-Regular-32"/>
       <use xlink:href="#AlibabaPuHuiTi-Regular-30" x="57.499985"/>
       <use xlink:href="#AlibabaPuHuiTi-Regular-32" x="114.999969"/>
       <use xlink:href="#AlibabaPuHuiTi-Regular-32" x="172.499954"/>
       <use xlink:href="#AlibabaPuHuiTi-Regular-2d" x="229.999939"/>
       <use xlink:href="#AlibabaPuHuiTi-Regular-31" x="273.999924"/>
       <use xlink:href="#AlibabaPuHuiTi-Regular-32" x="331.499908"/>
       <use xlink:href="#AlibabaPuHuiTi-Regular-2d" x="388.999893"/>
       <use xlink:href="#AlibabaPuHuiTi-Regular-32" x="432.999878"/>
       <use xlink:href="#AlibabaPuHuiTi-Regular-32" x="490.499863"/>
      </g>
     </g>
    </g>
    <g id="xtick_7">
     <g id="line2d_13">
      <path d="M 633.367462 384.48 
L 633.367462 51.84 
" clip-path="url(#pdcd8bfce36)" style="fill: none; stroke-dasharray: 2.96,1.28; stroke-dashoffset: 0; stroke: #b0b0b0; stroke-width: 0.8"/>
     </g>
     <g id="line2d_14">
      <g>
       <use xlink:href="#mc65b85010c" x="633.367462" y="384.48" style="stroke: #000000; stroke-width: 0.8"/>
      </g>
     </g>
     <g id="text_7">
      <!-- 2022-12-23 -->
      <g transform="translate(600.487462 400.6)scale(0.12 -0.12)">
       <defs>
        <path id="AlibabaPuHuiTi-Regular-33" d="M 1446 -64 
Q 1178 -64 925 -45 
Q 672 -26 448 19 
L 448 525 
Q 704 461 944 438 
Q 1184 416 1440 416 
Q 1690 416 1904 454 
Q 2118 493 2272 589 
Q 2426 685 2515 841 
Q 2605 998 2605 1229 
Q 2605 1702 2285 1888 
Q 1965 2074 1331 2074 
L 979 2074 
L 979 2515 
L 1325 2515 
Q 1907 2515 2208 2729 
Q 2509 2944 2509 3309 
Q 2509 3699 2275 3865 
Q 2042 4032 1562 4032 
Q 1370 4032 1120 4000 
Q 870 3968 659 3904 
L 659 4378 
Q 826 4429 1078 4467 
Q 1331 4506 1587 4506 
Q 2304 4506 2672 4230 
Q 3040 3955 3040 3341 
Q 3040 2906 2829 2672 
Q 2618 2438 2253 2330 
L 2253 2291 
Q 2726 2208 2940 1936 
Q 3155 1664 3155 1222 
Q 3155 608 2742 272 
Q 2330 -64 1446 -64 
z
" transform="scale(0.015625)"/>
       </defs>
       <use xlink:href="#AlibabaPuHuiTi-Regular-32"/>
       <use xlink:href="#AlibabaPuHuiTi-Regular-30" x="57.499985"/>
       <use xlink:href="#AlibabaPuHuiTi-Regular-32" x="114.999969"/>
       <use xlink:href="#AlibabaPuHuiTi-Regular-32" x="172.499954"/>
       <use xlink:href="#AlibabaPuHuiTi-Regular-2d" x="229.999939"/>
       <use xlink:href="#AlibabaPuHuiTi-Regular-31" x="273.999924"/>
       <use xlink:href="#AlibabaPuHuiTi-Regular-32" x="331.499908"/>
       <use xlink:href="#AlibabaPuHuiTi-Regular-2d" x="388.999893"/>
       <use xlink:href="#AlibabaPuHuiTi-Regular-32" x="432.999878"/>
       <use xlink:href="#AlibabaPuHuiTi-Regular-33" x="490.499863"/>
      </g>
     </g>
    </g>
   </g>
   <g id="matplotlib.axis_2">
    <g id="ytick_1">
     <g id="line2d_15">
      <defs>
       <path id="m1c7af2b2c6" d="M 0 0 
L -3.5 0 
" style="stroke: #000000; stroke-width: 0.8"/>
      </defs>
      <g>
       <use xlink:href="#m1c7af2b2c6" x="90" y="366.239091" style="stroke: #000000; stroke-width: 0.8"/>
      </g>
     </g>
     <g id="text_8">
      <!-- 33℃ -->
      <g transform="translate(58.17125 370.799091)scale(0.12 -0.12)">
       <defs>
        <path id="AlibabaPuHuiTi-Regular-2103" d="M 4531 -64 
Q 4070 -64 3699 32 
Q 3328 128 3062 381 
Q 2797 634 2653 1078 
Q 2509 1523 2509 2221 
Q 2509 2861 2656 3299 
Q 2803 3738 3072 4006 
Q 3341 4275 3728 4390 
Q 4115 4506 4595 4506 
Q 4902 4506 5129 4474 
Q 5357 4442 5555 4378 
L 5555 3846 
Q 5363 3917 5132 3958 
Q 4902 4000 4608 4000 
Q 4230 4000 3948 3910 
Q 3667 3821 3481 3613 
Q 3296 3405 3203 3069 
Q 3110 2733 3110 2234 
Q 3110 1702 3196 1360 
Q 3283 1018 3459 816 
Q 3635 614 3907 534 
Q 4179 454 4550 454 
Q 4864 454 5107 496 
Q 5350 538 5606 627 
L 5606 128 
Q 5421 45 5145 -9 
Q 4870 -64 4531 -64 
z
M 1158 2432 
Q 947 2432 758 2515 
Q 570 2598 429 2739 
Q 288 2880 208 3069 
Q 128 3258 128 3469 
Q 128 3680 208 3869 
Q 288 4058 429 4195 
Q 570 4333 758 4416 
Q 947 4499 1158 4499 
Q 1370 4499 1558 4416 
Q 1747 4333 1888 4195 
Q 2029 4058 2112 3869 
Q 2195 3680 2195 3469 
Q 2195 3258 2112 3069 
Q 2029 2880 1888 2739 
Q 1747 2598 1558 2515 
Q 1370 2432 1158 2432 
z
M 1158 2918 
Q 1389 2918 1549 3078 
Q 1709 3238 1709 3469 
Q 1709 3693 1549 3853 
Q 1389 4013 1158 4013 
Q 1043 4013 944 3971 
Q 845 3930 771 3856 
Q 698 3782 653 3683 
Q 608 3584 608 3469 
Q 608 3354 653 3254 
Q 698 3155 771 3078 
Q 845 3002 944 2960 
Q 1043 2918 1158 2918 
z
" transform="scale(0.015625)"/>
       </defs>
       <use xlink:href="#AlibabaPuHuiTi-Regular-33"/>
       <use xlink:href="#AlibabaPuHuiTi-Regular-33" x="57.499985"/>
       <use xlink:href="#AlibabaPuHuiTi-Regular-2103" x="114.999969"/>
      </g>
     </g>
    </g>
    <g id="ytick_2">
     <g id="line2d_16">
      <g>
       <use xlink:href="#m1c7af2b2c6" x="90" y="321.904947" style="stroke: #000000; stroke-width: 0.8"/>
      </g>
     </g>
     <g id="text_9">
      <!-- 34℃ -->
      <g transform="translate(58.17125 326.464947)scale(0.12 -0.12)">
       <defs>
        <path id="AlibabaPuHuiTi-Regular-34" d="M 3386 1094 
L 2861 1094 
L 2861 0 
L 2323 0 
L 2323 1094 
L 224 1094 
L 224 1715 
L 2170 4442 
L 2861 4442 
L 2861 1581 
L 3386 1581 
L 3386 1094 
z
M 2323 1581 
L 2323 3853 
L 2285 3853 
L 710 1619 
L 710 1581 
L 2323 1581 
z
" transform="scale(0.015625)"/>
       </defs>
       <use xlink:href="#AlibabaPuHuiTi-Regular-33"/>
       <use xlink:href="#AlibabaPuHuiTi-Regular-34" x="57.499985"/>
       <use xlink:href="#AlibabaPuHuiTi-Regular-2103" x="114.999969"/>
      </g>
     </g>
    </g>
    <g id="ytick_3">
     <g id="line2d_17">
      <g>
       <use xlink:href="#m1c7af2b2c6" x="90" y="277.570803" style="stroke: #000000; stroke-width: 0.8"/>
      </g>
     </g>
     <g id="text_10">
      <!-- 35℃ -->
      <g transform="translate(58.17125 282.130803)scale(0.12 -0.12)">
       <defs>
        <path id="AlibabaPuHuiTi-Regular-35" d="M 1466 -64 
Q 1197 -64 982 -45 
Q 768 -26 550 19 
L 550 525 
Q 800 461 1001 438 
Q 1203 416 1459 416 
Q 1734 416 1961 464 
Q 2189 512 2349 624 
Q 2509 736 2598 918 
Q 2688 1101 2688 1376 
Q 2688 1875 2397 2102 
Q 2106 2330 1414 2330 
Q 1235 2330 1004 2301 
Q 774 2272 563 2234 
L 864 4442 
L 2938 4442 
L 2938 3942 
L 1299 3942 
L 1114 2726 
Q 1235 2746 1356 2755 
Q 1478 2765 1632 2765 
Q 2406 2765 2822 2445 
Q 3238 2125 3238 1414 
Q 3238 1018 3113 739 
Q 2989 461 2758 281 
Q 2528 102 2198 19 
Q 1869 -64 1466 -64 
z
" transform="scale(0.015625)"/>
       </defs>
       <use xlink:href="#AlibabaPuHuiTi-Regular-33"/>
       <use xlink:href="#AlibabaPuHuiTi-Regular-35" x="57.499985"/>
       <use xlink:href="#AlibabaPuHuiTi-Regular-2103" x="114.999969"/>
      </g>
     </g>
    </g>
    <g id="ytick_4">
     <g id="line2d_18">
      <g>
       <use xlink:href="#m1c7af2b2c6" x="90" y="233.236659" style="stroke: #000000; stroke-width: 0.8"/>
      </g>
     </g>
     <g id="text_11">
      <!-- 36℃ -->
      <g transform="translate(58.17125 237.796659)scale(0.12 -0.12)">
       <defs>
        <path id="AlibabaPuHuiTi-Regular-36" d="M 1837 -64 
Q 1530 -64 1264 22 
Q 998 109 796 313 
Q 595 518 480 860 
Q 365 1203 365 1722 
Q 365 2342 502 2854 
Q 640 3366 928 3734 
Q 1216 4102 1667 4304 
Q 2118 4506 2746 4506 
L 2739 4019 
Q 2330 4019 2010 3904 
Q 1690 3789 1466 3587 
Q 1242 3386 1114 3114 
Q 986 2842 960 2528 
L 979 2528 
Q 1107 2656 1356 2774 
Q 1606 2893 1933 2893 
Q 2554 2893 2918 2541 
Q 3283 2189 3283 1459 
Q 3283 1133 3196 854 
Q 3110 576 2934 371 
Q 2758 166 2483 51 
Q 2208 -64 1837 -64 
z
M 1830 416 
Q 2285 416 2521 675 
Q 2758 934 2758 1459 
Q 2758 1958 2521 2204 
Q 2285 2451 1907 2451 
Q 1389 2451 1152 2204 
Q 915 1958 915 1562 
Q 915 416 1830 416 
z
" transform="scale(0.015625)"/>
       </defs>
       <use xlink:href="#AlibabaPuHuiTi-Regular-33"/>
       <use xlink:href="#AlibabaPuHuiTi-Regular-36" x="57.499985"/>
       <use xlink:href="#AlibabaPuHuiTi-Regular-2103" x="114.999969"/>
      </g>
     </g>
    </g>
    <g id="ytick_5">
     <g id="line2d_19">
      <g>
       <use xlink:href="#m1c7af2b2c6" x="90" y="188.902514" style="stroke: #000000; stroke-width: 0.8"/>
      </g>
     </g>
     <g id="text_12">
      <!-- 37℃ -->
      <g transform="translate(58.17125 193.462514)scale(0.12 -0.12)">
       <use xlink:href="#AlibabaPuHuiTi-Regular-33"/>
       <use xlink:href="#AlibabaPuHuiTi-Regular-37" x="57.499985"/>
       <use xlink:href="#AlibabaPuHuiTi-Regular-2103" x="114.999969"/>
      </g>
     </g>
    </g>
    <g id="ytick_6">
     <g id="line2d_20">
      <g>
       <use xlink:href="#m1c7af2b2c6" x="90" y="144.56837" style="stroke: #000000; stroke-width: 0.8"/>
      </g>
     </g>
     <g id="text_13">
      <!-- 38℃ -->
      <g transform="translate(58.17125 149.12837)scale(0.12 -0.12)">
       <use xlink:href="#AlibabaPuHuiTi-Regular-33"/>
       <use xlink:href="#AlibabaPuHuiTi-Regular-38" x="57.499985"/>
       <use xlink:href="#AlibabaPuHuiTi-Regular-2103" x="114.999969"/>
      </g>
     </g>
    </g>
    <g id="ytick_7">
     <g id="line2d_21">
      <g>
       <use xlink:href="#m1c7af2b2c6" x="90" y="100.234226" style="stroke: #000000; stroke-width: 0.8"/>
      </g>
     </g>
     <g id="text_14">
      <!-- 39℃ -->
      <g transform="translate(58.17125 104.794226)scale(0.12 -0.12)">
       <use xlink:href="#AlibabaPuHuiTi-Regular-33"/>
       <use xlink:href="#AlibabaPuHuiTi-Regular-39" x="57.499985"/>
       <use xlink:href="#AlibabaPuHuiTi-Regular-2103" x="114.999969"/>
      </g>
     </g>
    </g>
   </g>
   <g id="line2d_22">
    <path d="M 115.363636 113.534469 
L 117.646849 121.99117 
L 119.815901 129.211541 
L 121.927872 135.480282 
L 123.925683 140.718538 
L 125.809333 145.041581 
L 127.578823 148.558097 
L 129.234152 151.370185 
L 130.77532 153.573354 
L 132.259409 155.316722 
L 133.629336 156.596635 
L 134.942183 157.526529 
L 136.19795 158.144279 
L 137.396637 158.486115 
L 138.538243 158.586617 
L 139.679849 158.467552 
L 140.821455 158.128922 
L 142.020142 157.537051 
L 143.275909 156.657359 
L 144.588756 155.453616 
L 145.958683 153.887949 
L 147.442771 151.835014 
L 148.98394 149.31037 
L 150.639269 146.152996 
L 152.351678 142.400957 
L 154.178248 137.854257 
L 156.118979 132.407504 
L 158.288031 126.292483 
L 160.00044 122.138991 
L 161.655769 118.694309 
L 163.196937 115.991217 
L 164.623945 113.921709 
L 165.936792 112.38578 
L 167.192559 111.246646 
L 168.391246 110.460306 
L 169.475772 110.002201 
L 170.560297 109.784775 
L 171.587743 109.800804 
L 172.615189 110.032843 
L 173.699715 110.512118 
L 174.841321 111.276631 
L 176.040007 112.366384 
L 177.295774 113.823379 
L 178.608621 115.691618 
L 180.035629 118.122332 
L 181.576798 121.215526 
L 183.175046 124.936642 
L 184.887456 129.503581 
L 186.714026 135.036348 
L 188.654756 141.66295 
L 190.652567 149.289492 
L 192.250816 155.27796 
L 193.620743 159.583466 
L 194.87651 162.857627 
L 196.075197 165.38285 
L 197.159723 167.162497 
L 198.130088 168.348091 
L 198.986293 169.075207 
L 199.785417 169.48403 
L 200.527461 169.630385 
L 201.269505 169.552112 
L 202.011549 169.249213 
L 202.810673 168.671804 
L 203.666878 167.76406 
L 204.580163 166.466169 
L 205.607609 164.599322 
L 206.692135 162.161562 
L 208.004982 158.60778 
L 208.518705 157.597999 
L 208.918267 157.225636 
L 209.260749 157.194108 
L 209.60323 157.428093 
L 210.002793 158.036656 
L 210.459435 159.174679 
L 211.030238 161.260992 
L 211.715202 164.738118 
L 212.457246 169.703505 
L 213.370531 177.461882 
L 213.884254 180.820944 
L 214.226736 181.953187 
L 214.455057 182.215958 
L 214.626298 182.154705 
L 214.854619 181.728593 
L 215.140021 180.642388 
L 215.539583 178.088378 
L 216.053306 173.03324 
L 216.738269 166.092197 
L 216.85243 166.001027 
L 216.966591 166.284768 
L 217.137832 167.413341 
L 217.423233 171.168857 
L 217.822795 180.164694 
L 219.649365 223.524805 
L 221.361775 259.056804 
L 222.960023 287.751292 
L 224.444111 310.532829 
L 225.814039 328.259937 
L 227.069806 341.725097 
L 228.211412 351.654749 
L 229.238858 358.709293 
L 230.152143 363.483091 
L 230.951267 366.504464 
L 231.57915 368.12169 
L 232.149953 369.014045 
L 232.606596 369.331689 
L 232.949078 369.338781 
L 233.34864 369.096654 
L 233.805282 368.489737 
L 234.319005 367.385949 
L 234.946889 365.431509 
L 235.631852 362.539931 
L 236.430977 358.164815 
L 237.401342 351.478181 
L 240.76908 326.063589 
L 244.250979 298.068773 
L 247.847039 267.321859 
L 251.557259 233.645343 
L 255.38164 196.856082 
L 259.09186 161.157156 
L 259.890985 156.343734 
L 260.518868 153.748538 
L 261.032591 152.401995 
L 261.432153 151.838026 
L 261.774635 151.691238 
L 262.060037 151.80627 
L 262.402518 152.229135 
L 262.802081 153.115193 
L 263.315803 154.869875 
L 264.229088 158.005342 
L 265.028213 160.05189 
L 265.770257 161.369775 
L 266.39814 162.046804 
L 266.911863 162.302028 
L 267.425586 162.309937 
L 269.366316 162.281481 
L 273.533179 162.368097 
L 275.074348 162.027935 
L 276.615516 161.457399 
L 278.213765 160.622402 
L 281.752744 158.613543 
L 283.465153 157.982102 
L 285.006322 157.631245 
L 285.520045 157.742938 
L 286.033767 158.091507 
L 286.604571 158.756626 
L 287.289534 159.94079 
L 288.031578 161.69885 
L 288.887783 164.341508 
L 291.285156 172.327883 
L 292.712164 176.170413 
L 294.025011 179.092255 
L 295.223698 181.246732 
L 297.050267 184.342814 
L 298.077713 186.717226 
L 299.219319 189.929742 
L 300.475086 194.161713 
L 302.872459 202.559673 
L 304.299467 206.639294 
L 305.612314 209.768058 
L 306.868081 212.200786 
L 308.009687 213.937204 
L 309.037133 215.11307 
L 309.950418 215.850566 
L 310.806623 216.278936 
L 311.605747 216.449092 
L 312.404871 216.397509 
L 313.203996 216.124188 
L 314.0602 215.585282 
L 314.973485 214.729882 
L 315.943851 213.503686 
L 317.028376 211.74632 
L 318.169983 209.455248 
L 319.42575 206.4124 
L 320.795677 202.468442 
L 322.222685 197.66722 
L 324.049255 190.634452 
L 326.047066 183.400632 
L 327.930716 177.386908 
L 329.700206 172.450915 
L 331.355535 168.458917 
L 332.896703 165.285804 
L 334.380791 162.725615 
L 335.750719 160.793773 
L 337.006485 159.386739 
L 338.205172 158.368297 
L 339.289698 157.720075 
L 340.317144 157.345402 
L 341.344589 157.20369 
L 342.372035 157.294939 
L 343.39948 157.619148 
L 344.426926 158.176319 
L 345.511452 159.017177 
L 347.223861 160.436037 
L 347.623423 160.335354 
L 348.022986 159.995637 
L 348.479628 159.314692 
L 349.050431 158.024467 
L 349.735395 155.832265 
L 350.477439 152.664661 
L 351.333644 147.985297 
L 352.304009 141.355128 
L 353.388535 132.276572 
L 354.587221 120.193505 
L 355.842988 105.227633 
L 357.269996 85.424423 
L 358.01204 76.48579 
L 358.639923 71.211825 
L 359.153646 68.45778 
L 359.553208 67.287046 
L 359.83861 66.971146 
L 360.066931 67.03063 
L 360.295253 67.367628 
L 360.637734 68.393465 
L 361.037297 70.379455 
L 361.551019 74.181686 
L 362.178903 80.736768 
L 362.920947 91.189448 
L 363.720071 105.724317 
L 364.633356 126.498312 
L 366.745328 177.465611 
L 367.259051 183.362195 
L 367.658613 185.804969 
L 367.944014 186.401526 
L 368.058175 186.372216 
L 368.229416 186.041182 
L 368.457737 185.063938 
L 368.800219 182.449791 
L 370.227227 169.286512 
L 371.254672 161.859223 
L 372.167957 156.70924 
L 372.967082 153.324076 
L 373.652045 151.255301 
L 374.222848 150.118549 
L 374.736571 149.551909 
L 375.136133 149.41014 
L 375.478615 149.496823 
L 375.878178 149.840851 
L 376.33482 150.554333 
L 376.962703 152.023439 
L 379.759639 158.654778 
L 382.442413 164.462082 
L 385.068108 169.621156 
L 387.579641 174.070254 
L 389.977014 177.87413 
L 392.260227 181.094598 
L 394.486359 183.856689 
L 396.598331 186.13226 
L 398.653222 188.024022 
L 400.593952 189.518793 
L 402.477603 190.698436 
L 404.304173 191.587481 
L 406.244903 192.278821 
L 408.128553 192.713044 
L 409.955123 192.911356 
L 411.781693 192.89034 
L 413.608263 192.649998 
L 415.491914 192.17243 
L 417.375564 191.461612 
L 419.316294 190.485297 
L 421.314105 189.221637 
L 423.368997 187.648141 
L 425.480968 185.741679 
L 427.65002 183.478475 
L 429.876152 180.834113 
L 432.787248 177.3356 
L 434.100095 176.188812 
L 435.355862 175.372149 
L 436.554549 174.848241 
L 437.696155 174.58142 
L 438.837761 174.541075 
L 440.093528 174.736264 
L 445.801559 175.970871 
L 451.50959 177.432762 
L 459.044191 179.400273 
L 463.610616 180.304444 
L 468.119961 180.972783 
L 472.629305 181.418003 
L 477.13865 181.640105 
L 481.647995 181.639089 
L 486.157339 181.414954 
L 498.715008 180.591985 
L 511.215596 179.994979 
L 523.716184 179.619691 
L 536.216772 179.466121 
L 548.71736 179.534267 
L 561.217949 179.824131 
L 573.718537 180.335712 
L 586.219125 181.069011 
L 598.719713 182.024027 
L 611.277382 183.206642 
L 622.636364 184.4691 
L 622.636364 184.4691 
" clip-path="url(#pdcd8bfce36)" style="fill: none; stroke: #92c6ff; stroke-width: 1.5; stroke-linecap: square"/>
   </g>
   <g id="line2d_23">
    <path d="M 115.363636 188.902514 
L 622.636364 188.902514 
" clip-path="url(#pdcd8bfce36)" style="fill: none; stroke: #97f0aa; stroke-width: 1.5; stroke-linecap: square"/>
   </g>
   <g id="patch_3">
    <path d="M 90 384.48 
L 90 51.84 
" style="fill: none; stroke: #000000; stroke-width: 0.8; stroke-linejoin: miter; stroke-linecap: square"/>
   </g>
   <g id="patch_4">
    <path d="M 648 384.48 
L 648 51.84 
" style="fill: none; stroke: #000000; stroke-width: 0.8; stroke-linejoin: miter; stroke-linecap: square"/>
   </g>
   <g id="patch_5">
    <path d="M 90 384.48 
L 648 384.48 
" style="fill: none; stroke: #000000; stroke-width: 0.8; stroke-linejoin: miter; stroke-linecap: square"/>
   </g>
   <g id="patch_6">
    <path d="M 90 51.84 
L 648 51.84 
" style="fill: none; stroke: #000000; stroke-width: 0.8; stroke-linejoin: miter; stroke-linecap: square"/>
   </g>
  </g>
 </g>
 <defs>
  <clipPath id="pdcd8bfce36">
   <rect x="90" y="51.84" width="558" height="332.64"/>
  </clipPath>
 </defs>
</svg>
